G04 #@! TF.GenerationSoftware,KiCad,Pcbnew,8.0.2-1.fc40*
G04 #@! TF.CreationDate,2024-05-26T09:32:38-07:00*
G04 #@! TF.ProjectId,busicard-bottom,62757369-6361-4726-942d-626f74746f6d,rev?*
G04 #@! TF.SameCoordinates,Original*
G04 #@! TF.FileFunction,Legend,Top*
G04 #@! TF.FilePolarity,Positive*
%FSLAX46Y46*%
G04 Gerber Fmt 4.6, Leading zero omitted, Abs format (unit mm)*
G04 Created by KiCad (PCBNEW 8.0.2-1.fc40) date 2024-05-26 09:32:38*
%MOMM*%
%LPD*%
G01*
G04 APERTURE LIST*
%ADD10C,0.100000*%
%ADD11C,0.300000*%
%ADD12C,0.250000*%
%ADD13C,0.120000*%
%ADD14C,0.200000*%
G04 APERTURE END LIST*
D10*
X138380951Y-118457419D02*
X138380951Y-119171704D01*
X138380951Y-119171704D02*
X138333332Y-119314561D01*
X138333332Y-119314561D02*
X138238094Y-119409800D01*
X138238094Y-119409800D02*
X138095237Y-119457419D01*
X138095237Y-119457419D02*
X137999999Y-119457419D01*
X139333332Y-119457419D02*
X138857142Y-119457419D01*
X138857142Y-119457419D02*
X138857142Y-118457419D01*
X140238094Y-119362180D02*
X140190475Y-119409800D01*
X140190475Y-119409800D02*
X140047618Y-119457419D01*
X140047618Y-119457419D02*
X139952380Y-119457419D01*
X139952380Y-119457419D02*
X139809523Y-119409800D01*
X139809523Y-119409800D02*
X139714285Y-119314561D01*
X139714285Y-119314561D02*
X139666666Y-119219323D01*
X139666666Y-119219323D02*
X139619047Y-119028847D01*
X139619047Y-119028847D02*
X139619047Y-118885990D01*
X139619047Y-118885990D02*
X139666666Y-118695514D01*
X139666666Y-118695514D02*
X139714285Y-118600276D01*
X139714285Y-118600276D02*
X139809523Y-118505038D01*
X139809523Y-118505038D02*
X139952380Y-118457419D01*
X139952380Y-118457419D02*
X140047618Y-118457419D01*
X140047618Y-118457419D02*
X140190475Y-118505038D01*
X140190475Y-118505038D02*
X140238094Y-118552657D01*
X140952380Y-118457419D02*
X140952380Y-119171704D01*
X140952380Y-119171704D02*
X140904761Y-119314561D01*
X140904761Y-119314561D02*
X140809523Y-119409800D01*
X140809523Y-119409800D02*
X140666666Y-119457419D01*
X140666666Y-119457419D02*
X140571428Y-119457419D01*
X141904761Y-119457419D02*
X141428571Y-119457419D01*
X141428571Y-119457419D02*
X141428571Y-118457419D01*
X142809523Y-119362180D02*
X142761904Y-119409800D01*
X142761904Y-119409800D02*
X142619047Y-119457419D01*
X142619047Y-119457419D02*
X142523809Y-119457419D01*
X142523809Y-119457419D02*
X142380952Y-119409800D01*
X142380952Y-119409800D02*
X142285714Y-119314561D01*
X142285714Y-119314561D02*
X142238095Y-119219323D01*
X142238095Y-119219323D02*
X142190476Y-119028847D01*
X142190476Y-119028847D02*
X142190476Y-118885990D01*
X142190476Y-118885990D02*
X142238095Y-118695514D01*
X142238095Y-118695514D02*
X142285714Y-118600276D01*
X142285714Y-118600276D02*
X142380952Y-118505038D01*
X142380952Y-118505038D02*
X142523809Y-118457419D01*
X142523809Y-118457419D02*
X142619047Y-118457419D01*
X142619047Y-118457419D02*
X142761904Y-118505038D01*
X142761904Y-118505038D02*
X142809523Y-118552657D01*
X143523809Y-118457419D02*
X143523809Y-119171704D01*
X143523809Y-119171704D02*
X143476190Y-119314561D01*
X143476190Y-119314561D02*
X143380952Y-119409800D01*
X143380952Y-119409800D02*
X143238095Y-119457419D01*
X143238095Y-119457419D02*
X143142857Y-119457419D01*
X144476190Y-119457419D02*
X144000000Y-119457419D01*
X144000000Y-119457419D02*
X144000000Y-118457419D01*
X145380952Y-119362180D02*
X145333333Y-119409800D01*
X145333333Y-119409800D02*
X145190476Y-119457419D01*
X145190476Y-119457419D02*
X145095238Y-119457419D01*
X145095238Y-119457419D02*
X144952381Y-119409800D01*
X144952381Y-119409800D02*
X144857143Y-119314561D01*
X144857143Y-119314561D02*
X144809524Y-119219323D01*
X144809524Y-119219323D02*
X144761905Y-119028847D01*
X144761905Y-119028847D02*
X144761905Y-118885990D01*
X144761905Y-118885990D02*
X144809524Y-118695514D01*
X144809524Y-118695514D02*
X144857143Y-118600276D01*
X144857143Y-118600276D02*
X144952381Y-118505038D01*
X144952381Y-118505038D02*
X145095238Y-118457419D01*
X145095238Y-118457419D02*
X145190476Y-118457419D01*
X145190476Y-118457419D02*
X145333333Y-118505038D01*
X145333333Y-118505038D02*
X145380952Y-118552657D01*
X146095238Y-118457419D02*
X146095238Y-119171704D01*
X146095238Y-119171704D02*
X146047619Y-119314561D01*
X146047619Y-119314561D02*
X145952381Y-119409800D01*
X145952381Y-119409800D02*
X145809524Y-119457419D01*
X145809524Y-119457419D02*
X145714286Y-119457419D01*
X147047619Y-119457419D02*
X146571429Y-119457419D01*
X146571429Y-119457419D02*
X146571429Y-118457419D01*
X147952381Y-119362180D02*
X147904762Y-119409800D01*
X147904762Y-119409800D02*
X147761905Y-119457419D01*
X147761905Y-119457419D02*
X147666667Y-119457419D01*
X147666667Y-119457419D02*
X147523810Y-119409800D01*
X147523810Y-119409800D02*
X147428572Y-119314561D01*
X147428572Y-119314561D02*
X147380953Y-119219323D01*
X147380953Y-119219323D02*
X147333334Y-119028847D01*
X147333334Y-119028847D02*
X147333334Y-118885990D01*
X147333334Y-118885990D02*
X147380953Y-118695514D01*
X147380953Y-118695514D02*
X147428572Y-118600276D01*
X147428572Y-118600276D02*
X147523810Y-118505038D01*
X147523810Y-118505038D02*
X147666667Y-118457419D01*
X147666667Y-118457419D02*
X147761905Y-118457419D01*
X147761905Y-118457419D02*
X147904762Y-118505038D01*
X147904762Y-118505038D02*
X147952381Y-118552657D01*
D11*
X158666666Y-86689750D02*
X158666666Y-84689750D01*
X158666666Y-85451654D02*
X158857142Y-85356416D01*
X158857142Y-85356416D02*
X159238095Y-85356416D01*
X159238095Y-85356416D02*
X159428571Y-85451654D01*
X159428571Y-85451654D02*
X159523809Y-85546892D01*
X159523809Y-85546892D02*
X159619047Y-85737369D01*
X159619047Y-85737369D02*
X159619047Y-86308797D01*
X159619047Y-86308797D02*
X159523809Y-86499273D01*
X159523809Y-86499273D02*
X159428571Y-86594512D01*
X159428571Y-86594512D02*
X159238095Y-86689750D01*
X159238095Y-86689750D02*
X158857142Y-86689750D01*
X158857142Y-86689750D02*
X158666666Y-86594512D01*
X161333333Y-85356416D02*
X161333333Y-86689750D01*
X160476190Y-85356416D02*
X160476190Y-86404035D01*
X160476190Y-86404035D02*
X160571428Y-86594512D01*
X160571428Y-86594512D02*
X160761904Y-86689750D01*
X160761904Y-86689750D02*
X161047619Y-86689750D01*
X161047619Y-86689750D02*
X161238095Y-86594512D01*
X161238095Y-86594512D02*
X161333333Y-86499273D01*
X162190476Y-86594512D02*
X162380952Y-86689750D01*
X162380952Y-86689750D02*
X162761904Y-86689750D01*
X162761904Y-86689750D02*
X162952381Y-86594512D01*
X162952381Y-86594512D02*
X163047619Y-86404035D01*
X163047619Y-86404035D02*
X163047619Y-86308797D01*
X163047619Y-86308797D02*
X162952381Y-86118321D01*
X162952381Y-86118321D02*
X162761904Y-86023083D01*
X162761904Y-86023083D02*
X162476190Y-86023083D01*
X162476190Y-86023083D02*
X162285714Y-85927845D01*
X162285714Y-85927845D02*
X162190476Y-85737369D01*
X162190476Y-85737369D02*
X162190476Y-85642131D01*
X162190476Y-85642131D02*
X162285714Y-85451654D01*
X162285714Y-85451654D02*
X162476190Y-85356416D01*
X162476190Y-85356416D02*
X162761904Y-85356416D01*
X162761904Y-85356416D02*
X162952381Y-85451654D01*
X163904762Y-86689750D02*
X163904762Y-85356416D01*
X163904762Y-84689750D02*
X163809524Y-84784988D01*
X163809524Y-84784988D02*
X163904762Y-84880226D01*
X163904762Y-84880226D02*
X164000000Y-84784988D01*
X164000000Y-84784988D02*
X163904762Y-84689750D01*
X163904762Y-84689750D02*
X163904762Y-84880226D01*
X165714286Y-86594512D02*
X165523810Y-86689750D01*
X165523810Y-86689750D02*
X165142857Y-86689750D01*
X165142857Y-86689750D02*
X164952381Y-86594512D01*
X164952381Y-86594512D02*
X164857143Y-86499273D01*
X164857143Y-86499273D02*
X164761905Y-86308797D01*
X164761905Y-86308797D02*
X164761905Y-85737369D01*
X164761905Y-85737369D02*
X164857143Y-85546892D01*
X164857143Y-85546892D02*
X164952381Y-85451654D01*
X164952381Y-85451654D02*
X165142857Y-85356416D01*
X165142857Y-85356416D02*
X165523810Y-85356416D01*
X165523810Y-85356416D02*
X165714286Y-85451654D01*
X167428572Y-86689750D02*
X167428572Y-85642131D01*
X167428572Y-85642131D02*
X167333334Y-85451654D01*
X167333334Y-85451654D02*
X167142858Y-85356416D01*
X167142858Y-85356416D02*
X166761905Y-85356416D01*
X166761905Y-85356416D02*
X166571429Y-85451654D01*
X167428572Y-86594512D02*
X167238096Y-86689750D01*
X167238096Y-86689750D02*
X166761905Y-86689750D01*
X166761905Y-86689750D02*
X166571429Y-86594512D01*
X166571429Y-86594512D02*
X166476191Y-86404035D01*
X166476191Y-86404035D02*
X166476191Y-86213559D01*
X166476191Y-86213559D02*
X166571429Y-86023083D01*
X166571429Y-86023083D02*
X166761905Y-85927845D01*
X166761905Y-85927845D02*
X167238096Y-85927845D01*
X167238096Y-85927845D02*
X167428572Y-85832607D01*
X168380953Y-86689750D02*
X168380953Y-85356416D01*
X168380953Y-85737369D02*
X168476191Y-85546892D01*
X168476191Y-85546892D02*
X168571429Y-85451654D01*
X168571429Y-85451654D02*
X168761905Y-85356416D01*
X168761905Y-85356416D02*
X168952382Y-85356416D01*
X170476191Y-86689750D02*
X170476191Y-84689750D01*
X170476191Y-86594512D02*
X170285715Y-86689750D01*
X170285715Y-86689750D02*
X169904762Y-86689750D01*
X169904762Y-86689750D02*
X169714286Y-86594512D01*
X169714286Y-86594512D02*
X169619048Y-86499273D01*
X169619048Y-86499273D02*
X169523810Y-86308797D01*
X169523810Y-86308797D02*
X169523810Y-85737369D01*
X169523810Y-85737369D02*
X169619048Y-85546892D01*
X169619048Y-85546892D02*
X169714286Y-85451654D01*
X169714286Y-85451654D02*
X169904762Y-85356416D01*
X169904762Y-85356416D02*
X170285715Y-85356416D01*
X170285715Y-85356416D02*
X170476191Y-85451654D01*
X171428572Y-85927845D02*
X172952382Y-85927845D01*
X173904762Y-86689750D02*
X173904762Y-84689750D01*
X173904762Y-85451654D02*
X174095238Y-85356416D01*
X174095238Y-85356416D02*
X174476191Y-85356416D01*
X174476191Y-85356416D02*
X174666667Y-85451654D01*
X174666667Y-85451654D02*
X174761905Y-85546892D01*
X174761905Y-85546892D02*
X174857143Y-85737369D01*
X174857143Y-85737369D02*
X174857143Y-86308797D01*
X174857143Y-86308797D02*
X174761905Y-86499273D01*
X174761905Y-86499273D02*
X174666667Y-86594512D01*
X174666667Y-86594512D02*
X174476191Y-86689750D01*
X174476191Y-86689750D02*
X174095238Y-86689750D01*
X174095238Y-86689750D02*
X173904762Y-86594512D01*
X176000000Y-86689750D02*
X175809524Y-86594512D01*
X175809524Y-86594512D02*
X175714286Y-86499273D01*
X175714286Y-86499273D02*
X175619048Y-86308797D01*
X175619048Y-86308797D02*
X175619048Y-85737369D01*
X175619048Y-85737369D02*
X175714286Y-85546892D01*
X175714286Y-85546892D02*
X175809524Y-85451654D01*
X175809524Y-85451654D02*
X176000000Y-85356416D01*
X176000000Y-85356416D02*
X176285715Y-85356416D01*
X176285715Y-85356416D02*
X176476191Y-85451654D01*
X176476191Y-85451654D02*
X176571429Y-85546892D01*
X176571429Y-85546892D02*
X176666667Y-85737369D01*
X176666667Y-85737369D02*
X176666667Y-86308797D01*
X176666667Y-86308797D02*
X176571429Y-86499273D01*
X176571429Y-86499273D02*
X176476191Y-86594512D01*
X176476191Y-86594512D02*
X176285715Y-86689750D01*
X176285715Y-86689750D02*
X176000000Y-86689750D01*
X177238096Y-85356416D02*
X178000000Y-85356416D01*
X177523810Y-84689750D02*
X177523810Y-86404035D01*
X177523810Y-86404035D02*
X177619048Y-86594512D01*
X177619048Y-86594512D02*
X177809524Y-86689750D01*
X177809524Y-86689750D02*
X178000000Y-86689750D01*
X178380953Y-85356416D02*
X179142857Y-85356416D01*
X178666667Y-84689750D02*
X178666667Y-86404035D01*
X178666667Y-86404035D02*
X178761905Y-86594512D01*
X178761905Y-86594512D02*
X178952381Y-86689750D01*
X178952381Y-86689750D02*
X179142857Y-86689750D01*
X180095238Y-86689750D02*
X179904762Y-86594512D01*
X179904762Y-86594512D02*
X179809524Y-86499273D01*
X179809524Y-86499273D02*
X179714286Y-86308797D01*
X179714286Y-86308797D02*
X179714286Y-85737369D01*
X179714286Y-85737369D02*
X179809524Y-85546892D01*
X179809524Y-85546892D02*
X179904762Y-85451654D01*
X179904762Y-85451654D02*
X180095238Y-85356416D01*
X180095238Y-85356416D02*
X180380953Y-85356416D01*
X180380953Y-85356416D02*
X180571429Y-85451654D01*
X180571429Y-85451654D02*
X180666667Y-85546892D01*
X180666667Y-85546892D02*
X180761905Y-85737369D01*
X180761905Y-85737369D02*
X180761905Y-86308797D01*
X180761905Y-86308797D02*
X180666667Y-86499273D01*
X180666667Y-86499273D02*
X180571429Y-86594512D01*
X180571429Y-86594512D02*
X180380953Y-86689750D01*
X180380953Y-86689750D02*
X180095238Y-86689750D01*
X181619048Y-86689750D02*
X181619048Y-85356416D01*
X181619048Y-85546892D02*
X181714286Y-85451654D01*
X181714286Y-85451654D02*
X181904762Y-85356416D01*
X181904762Y-85356416D02*
X182190477Y-85356416D01*
X182190477Y-85356416D02*
X182380953Y-85451654D01*
X182380953Y-85451654D02*
X182476191Y-85642131D01*
X182476191Y-85642131D02*
X182476191Y-86689750D01*
X182476191Y-85642131D02*
X182571429Y-85451654D01*
X182571429Y-85451654D02*
X182761905Y-85356416D01*
X182761905Y-85356416D02*
X183047619Y-85356416D01*
X183047619Y-85356416D02*
X183238096Y-85451654D01*
X183238096Y-85451654D02*
X183333334Y-85642131D01*
X183333334Y-85642131D02*
X183333334Y-86689750D01*
X163428570Y-88957257D02*
X163333332Y-88862019D01*
X163333332Y-88862019D02*
X163142856Y-88766780D01*
X163142856Y-88766780D02*
X162952380Y-88766780D01*
X162952380Y-88766780D02*
X162761904Y-88862019D01*
X162761904Y-88862019D02*
X162666665Y-88957257D01*
X162666665Y-88957257D02*
X162571427Y-89147733D01*
X162571427Y-89147733D02*
X162571427Y-89338209D01*
X162571427Y-89338209D02*
X162666665Y-89528685D01*
X162666665Y-89528685D02*
X162761904Y-89623923D01*
X162761904Y-89623923D02*
X162952380Y-89719161D01*
X162952380Y-89719161D02*
X163142856Y-89719161D01*
X163142856Y-89719161D02*
X163333332Y-89623923D01*
X163333332Y-89623923D02*
X163428570Y-89528685D01*
X163428570Y-88766780D02*
X163428570Y-89528685D01*
X163428570Y-89528685D02*
X163523808Y-89623923D01*
X163523808Y-89623923D02*
X163619046Y-89623923D01*
X163619046Y-89623923D02*
X163809523Y-89528685D01*
X163809523Y-89528685D02*
X163904761Y-89338209D01*
X163904761Y-89338209D02*
X163904761Y-88862019D01*
X163904761Y-88862019D02*
X163714285Y-88576304D01*
X163714285Y-88576304D02*
X163428570Y-88385828D01*
X163428570Y-88385828D02*
X163047618Y-88290590D01*
X163047618Y-88290590D02*
X162666665Y-88385828D01*
X162666665Y-88385828D02*
X162380951Y-88576304D01*
X162380951Y-88576304D02*
X162190475Y-88862019D01*
X162190475Y-88862019D02*
X162095237Y-89242971D01*
X162095237Y-89242971D02*
X162190475Y-89623923D01*
X162190475Y-89623923D02*
X162380951Y-89909638D01*
X162380951Y-89909638D02*
X162666665Y-90100114D01*
X162666665Y-90100114D02*
X163047618Y-90195352D01*
X163047618Y-90195352D02*
X163428570Y-90100114D01*
X163428570Y-90100114D02*
X163714285Y-89909638D01*
X164476190Y-87909638D02*
X165619047Y-87909638D01*
X165047618Y-89909638D02*
X165047618Y-87909638D01*
X166571428Y-89909638D02*
X166380952Y-89814400D01*
X166380952Y-89814400D02*
X166285714Y-89719161D01*
X166285714Y-89719161D02*
X166190476Y-89528685D01*
X166190476Y-89528685D02*
X166190476Y-88957257D01*
X166190476Y-88957257D02*
X166285714Y-88766780D01*
X166285714Y-88766780D02*
X166380952Y-88671542D01*
X166380952Y-88671542D02*
X166571428Y-88576304D01*
X166571428Y-88576304D02*
X166857143Y-88576304D01*
X166857143Y-88576304D02*
X167047619Y-88671542D01*
X167047619Y-88671542D02*
X167142857Y-88766780D01*
X167142857Y-88766780D02*
X167238095Y-88957257D01*
X167238095Y-88957257D02*
X167238095Y-89528685D01*
X167238095Y-89528685D02*
X167142857Y-89719161D01*
X167142857Y-89719161D02*
X167047619Y-89814400D01*
X167047619Y-89814400D02*
X166857143Y-89909638D01*
X166857143Y-89909638D02*
X166571428Y-89909638D01*
X168095238Y-89909638D02*
X168095238Y-88576304D01*
X168095238Y-88766780D02*
X168190476Y-88671542D01*
X168190476Y-88671542D02*
X168380952Y-88576304D01*
X168380952Y-88576304D02*
X168666667Y-88576304D01*
X168666667Y-88576304D02*
X168857143Y-88671542D01*
X168857143Y-88671542D02*
X168952381Y-88862019D01*
X168952381Y-88862019D02*
X168952381Y-89909638D01*
X168952381Y-88862019D02*
X169047619Y-88671542D01*
X169047619Y-88671542D02*
X169238095Y-88576304D01*
X169238095Y-88576304D02*
X169523809Y-88576304D01*
X169523809Y-88576304D02*
X169714286Y-88671542D01*
X169714286Y-88671542D02*
X169809524Y-88862019D01*
X169809524Y-88862019D02*
X169809524Y-89909638D01*
X170761905Y-89909638D02*
X170761905Y-87909638D01*
X171904762Y-89909638D02*
X171047619Y-88766780D01*
X171904762Y-87909638D02*
X170761905Y-89052495D01*
X173523810Y-89814400D02*
X173333334Y-89909638D01*
X173333334Y-89909638D02*
X172952381Y-89909638D01*
X172952381Y-89909638D02*
X172761905Y-89814400D01*
X172761905Y-89814400D02*
X172666667Y-89623923D01*
X172666667Y-89623923D02*
X172666667Y-88862019D01*
X172666667Y-88862019D02*
X172761905Y-88671542D01*
X172761905Y-88671542D02*
X172952381Y-88576304D01*
X172952381Y-88576304D02*
X173333334Y-88576304D01*
X173333334Y-88576304D02*
X173523810Y-88671542D01*
X173523810Y-88671542D02*
X173619048Y-88862019D01*
X173619048Y-88862019D02*
X173619048Y-89052495D01*
X173619048Y-89052495D02*
X172666667Y-89242971D01*
X175333334Y-89909638D02*
X175333334Y-87909638D01*
X175333334Y-89814400D02*
X175142858Y-89909638D01*
X175142858Y-89909638D02*
X174761905Y-89909638D01*
X174761905Y-89909638D02*
X174571429Y-89814400D01*
X174571429Y-89814400D02*
X174476191Y-89719161D01*
X174476191Y-89719161D02*
X174380953Y-89528685D01*
X174380953Y-89528685D02*
X174380953Y-88957257D01*
X174380953Y-88957257D02*
X174476191Y-88766780D01*
X174476191Y-88766780D02*
X174571429Y-88671542D01*
X174571429Y-88671542D02*
X174761905Y-88576304D01*
X174761905Y-88576304D02*
X175142858Y-88576304D01*
X175142858Y-88576304D02*
X175333334Y-88671542D01*
X177142858Y-89909638D02*
X177142858Y-87909638D01*
X177142858Y-89814400D02*
X176952382Y-89909638D01*
X176952382Y-89909638D02*
X176571429Y-89909638D01*
X176571429Y-89909638D02*
X176380953Y-89814400D01*
X176380953Y-89814400D02*
X176285715Y-89719161D01*
X176285715Y-89719161D02*
X176190477Y-89528685D01*
X176190477Y-89528685D02*
X176190477Y-88957257D01*
X176190477Y-88957257D02*
X176285715Y-88766780D01*
X176285715Y-88766780D02*
X176380953Y-88671542D01*
X176380953Y-88671542D02*
X176571429Y-88576304D01*
X176571429Y-88576304D02*
X176952382Y-88576304D01*
X176952382Y-88576304D02*
X177142858Y-88671542D01*
X178095239Y-89909638D02*
X178095239Y-88576304D01*
X178095239Y-87909638D02*
X178000001Y-88004876D01*
X178000001Y-88004876D02*
X178095239Y-88100114D01*
X178095239Y-88100114D02*
X178190477Y-88004876D01*
X178190477Y-88004876D02*
X178095239Y-87909638D01*
X178095239Y-87909638D02*
X178095239Y-88100114D01*
X179809525Y-89814400D02*
X179619049Y-89909638D01*
X179619049Y-89909638D02*
X179238096Y-89909638D01*
X179238096Y-89909638D02*
X179047620Y-89814400D01*
X179047620Y-89814400D02*
X178952382Y-89623923D01*
X178952382Y-89623923D02*
X178952382Y-88862019D01*
X178952382Y-88862019D02*
X179047620Y-88671542D01*
X179047620Y-88671542D02*
X179238096Y-88576304D01*
X179238096Y-88576304D02*
X179619049Y-88576304D01*
X179619049Y-88576304D02*
X179809525Y-88671542D01*
X179809525Y-88671542D02*
X179904763Y-88862019D01*
X179904763Y-88862019D02*
X179904763Y-89052495D01*
X179904763Y-89052495D02*
X178952382Y-89242971D01*
X164857142Y-93129526D02*
X164857142Y-91129526D01*
X164857142Y-91129526D02*
X165523809Y-92558097D01*
X165523809Y-92558097D02*
X166190475Y-91129526D01*
X166190475Y-91129526D02*
X166190475Y-93129526D01*
X167999999Y-93129526D02*
X167999999Y-92081907D01*
X167999999Y-92081907D02*
X167904761Y-91891430D01*
X167904761Y-91891430D02*
X167714285Y-91796192D01*
X167714285Y-91796192D02*
X167333332Y-91796192D01*
X167333332Y-91796192D02*
X167142856Y-91891430D01*
X167999999Y-93034288D02*
X167809523Y-93129526D01*
X167809523Y-93129526D02*
X167333332Y-93129526D01*
X167333332Y-93129526D02*
X167142856Y-93034288D01*
X167142856Y-93034288D02*
X167047618Y-92843811D01*
X167047618Y-92843811D02*
X167047618Y-92653335D01*
X167047618Y-92653335D02*
X167142856Y-92462859D01*
X167142856Y-92462859D02*
X167333332Y-92367621D01*
X167333332Y-92367621D02*
X167809523Y-92367621D01*
X167809523Y-92367621D02*
X167999999Y-92272383D01*
X168761904Y-91796192D02*
X169238094Y-93129526D01*
X169714285Y-91796192D02*
X169238094Y-93129526D01*
X169238094Y-93129526D02*
X169047618Y-93605716D01*
X169047618Y-93605716D02*
X168952380Y-93700954D01*
X168952380Y-93700954D02*
X168761904Y-93796192D01*
X170380952Y-91320002D02*
X170476190Y-91224764D01*
X170476190Y-91224764D02*
X170666666Y-91129526D01*
X170666666Y-91129526D02*
X171142857Y-91129526D01*
X171142857Y-91129526D02*
X171333333Y-91224764D01*
X171333333Y-91224764D02*
X171428571Y-91320002D01*
X171428571Y-91320002D02*
X171523809Y-91510478D01*
X171523809Y-91510478D02*
X171523809Y-91700954D01*
X171523809Y-91700954D02*
X171428571Y-91986668D01*
X171428571Y-91986668D02*
X170285714Y-93129526D01*
X170285714Y-93129526D02*
X171523809Y-93129526D01*
X172761904Y-91129526D02*
X172952381Y-91129526D01*
X172952381Y-91129526D02*
X173142857Y-91224764D01*
X173142857Y-91224764D02*
X173238095Y-91320002D01*
X173238095Y-91320002D02*
X173333333Y-91510478D01*
X173333333Y-91510478D02*
X173428571Y-91891430D01*
X173428571Y-91891430D02*
X173428571Y-92367621D01*
X173428571Y-92367621D02*
X173333333Y-92748573D01*
X173333333Y-92748573D02*
X173238095Y-92939049D01*
X173238095Y-92939049D02*
X173142857Y-93034288D01*
X173142857Y-93034288D02*
X172952381Y-93129526D01*
X172952381Y-93129526D02*
X172761904Y-93129526D01*
X172761904Y-93129526D02*
X172571428Y-93034288D01*
X172571428Y-93034288D02*
X172476190Y-92939049D01*
X172476190Y-92939049D02*
X172380952Y-92748573D01*
X172380952Y-92748573D02*
X172285714Y-92367621D01*
X172285714Y-92367621D02*
X172285714Y-91891430D01*
X172285714Y-91891430D02*
X172380952Y-91510478D01*
X172380952Y-91510478D02*
X172476190Y-91320002D01*
X172476190Y-91320002D02*
X172571428Y-91224764D01*
X172571428Y-91224764D02*
X172761904Y-91129526D01*
X174190476Y-91320002D02*
X174285714Y-91224764D01*
X174285714Y-91224764D02*
X174476190Y-91129526D01*
X174476190Y-91129526D02*
X174952381Y-91129526D01*
X174952381Y-91129526D02*
X175142857Y-91224764D01*
X175142857Y-91224764D02*
X175238095Y-91320002D01*
X175238095Y-91320002D02*
X175333333Y-91510478D01*
X175333333Y-91510478D02*
X175333333Y-91700954D01*
X175333333Y-91700954D02*
X175238095Y-91986668D01*
X175238095Y-91986668D02*
X174095238Y-93129526D01*
X174095238Y-93129526D02*
X175333333Y-93129526D01*
X177047619Y-91796192D02*
X177047619Y-93129526D01*
X176571428Y-91034288D02*
X176095238Y-92462859D01*
X176095238Y-92462859D02*
X177333333Y-92462859D01*
D10*
X132347552Y-90571428D02*
X133014219Y-90571428D01*
X133347552Y-90571428D02*
X133299933Y-90523809D01*
X133299933Y-90523809D02*
X133252314Y-90571428D01*
X133252314Y-90571428D02*
X133299933Y-90619047D01*
X133299933Y-90619047D02*
X133347552Y-90571428D01*
X133347552Y-90571428D02*
X133252314Y-90571428D01*
X132347552Y-91047618D02*
X133014219Y-91047618D01*
X132918981Y-91047618D02*
X132966600Y-91095237D01*
X132966600Y-91095237D02*
X133014219Y-91190475D01*
X133014219Y-91190475D02*
X133014219Y-91333332D01*
X133014219Y-91333332D02*
X132966600Y-91428570D01*
X132966600Y-91428570D02*
X132871362Y-91476189D01*
X132871362Y-91476189D02*
X132347552Y-91476189D01*
X132871362Y-91476189D02*
X132966600Y-91523808D01*
X132966600Y-91523808D02*
X133014219Y-91619046D01*
X133014219Y-91619046D02*
X133014219Y-91761903D01*
X133014219Y-91761903D02*
X132966600Y-91857142D01*
X132966600Y-91857142D02*
X132871362Y-91904761D01*
X132871362Y-91904761D02*
X132347552Y-91904761D01*
X132347552Y-92809522D02*
X132871362Y-92809522D01*
X132871362Y-92809522D02*
X132966600Y-92761903D01*
X132966600Y-92761903D02*
X133014219Y-92666665D01*
X133014219Y-92666665D02*
X133014219Y-92476189D01*
X133014219Y-92476189D02*
X132966600Y-92380951D01*
X132395172Y-92809522D02*
X132347552Y-92714284D01*
X132347552Y-92714284D02*
X132347552Y-92476189D01*
X132347552Y-92476189D02*
X132395172Y-92380951D01*
X132395172Y-92380951D02*
X132490410Y-92333332D01*
X132490410Y-92333332D02*
X132585648Y-92333332D01*
X132585648Y-92333332D02*
X132680886Y-92380951D01*
X132680886Y-92380951D02*
X132728505Y-92476189D01*
X132728505Y-92476189D02*
X132728505Y-92714284D01*
X132728505Y-92714284D02*
X132776124Y-92809522D01*
X133014219Y-93714284D02*
X132204695Y-93714284D01*
X132204695Y-93714284D02*
X132109457Y-93666665D01*
X132109457Y-93666665D02*
X132061838Y-93619046D01*
X132061838Y-93619046D02*
X132014219Y-93523808D01*
X132014219Y-93523808D02*
X132014219Y-93380951D01*
X132014219Y-93380951D02*
X132061838Y-93285713D01*
X132395172Y-93714284D02*
X132347552Y-93619046D01*
X132347552Y-93619046D02*
X132347552Y-93428570D01*
X132347552Y-93428570D02*
X132395172Y-93333332D01*
X132395172Y-93333332D02*
X132442791Y-93285713D01*
X132442791Y-93285713D02*
X132538029Y-93238094D01*
X132538029Y-93238094D02*
X132823743Y-93238094D01*
X132823743Y-93238094D02*
X132918981Y-93285713D01*
X132918981Y-93285713D02*
X132966600Y-93333332D01*
X132966600Y-93333332D02*
X133014219Y-93428570D01*
X133014219Y-93428570D02*
X133014219Y-93619046D01*
X133014219Y-93619046D02*
X132966600Y-93714284D01*
X132395172Y-94571427D02*
X132347552Y-94476189D01*
X132347552Y-94476189D02*
X132347552Y-94285713D01*
X132347552Y-94285713D02*
X132395172Y-94190475D01*
X132395172Y-94190475D02*
X132490410Y-94142856D01*
X132490410Y-94142856D02*
X132871362Y-94142856D01*
X132871362Y-94142856D02*
X132966600Y-94190475D01*
X132966600Y-94190475D02*
X133014219Y-94285713D01*
X133014219Y-94285713D02*
X133014219Y-94476189D01*
X133014219Y-94476189D02*
X132966600Y-94571427D01*
X132966600Y-94571427D02*
X132871362Y-94619046D01*
X132871362Y-94619046D02*
X132776124Y-94619046D01*
X132776124Y-94619046D02*
X132680886Y-94142856D01*
X133014219Y-95666666D02*
X133014219Y-96047618D01*
X132347552Y-95809523D02*
X133204695Y-95809523D01*
X133204695Y-95809523D02*
X133299933Y-95857142D01*
X133299933Y-95857142D02*
X133347552Y-95952380D01*
X133347552Y-95952380D02*
X133347552Y-96047618D01*
X132347552Y-96380952D02*
X133014219Y-96380952D01*
X132823743Y-96380952D02*
X132918981Y-96428571D01*
X132918981Y-96428571D02*
X132966600Y-96476190D01*
X132966600Y-96476190D02*
X133014219Y-96571428D01*
X133014219Y-96571428D02*
X133014219Y-96666666D01*
X132347552Y-97142857D02*
X132395172Y-97047619D01*
X132395172Y-97047619D02*
X132442791Y-97000000D01*
X132442791Y-97000000D02*
X132538029Y-96952381D01*
X132538029Y-96952381D02*
X132823743Y-96952381D01*
X132823743Y-96952381D02*
X132918981Y-97000000D01*
X132918981Y-97000000D02*
X132966600Y-97047619D01*
X132966600Y-97047619D02*
X133014219Y-97142857D01*
X133014219Y-97142857D02*
X133014219Y-97285714D01*
X133014219Y-97285714D02*
X132966600Y-97380952D01*
X132966600Y-97380952D02*
X132918981Y-97428571D01*
X132918981Y-97428571D02*
X132823743Y-97476190D01*
X132823743Y-97476190D02*
X132538029Y-97476190D01*
X132538029Y-97476190D02*
X132442791Y-97428571D01*
X132442791Y-97428571D02*
X132395172Y-97380952D01*
X132395172Y-97380952D02*
X132347552Y-97285714D01*
X132347552Y-97285714D02*
X132347552Y-97142857D01*
X132347552Y-97904762D02*
X133014219Y-97904762D01*
X132918981Y-97904762D02*
X132966600Y-97952381D01*
X132966600Y-97952381D02*
X133014219Y-98047619D01*
X133014219Y-98047619D02*
X133014219Y-98190476D01*
X133014219Y-98190476D02*
X132966600Y-98285714D01*
X132966600Y-98285714D02*
X132871362Y-98333333D01*
X132871362Y-98333333D02*
X132347552Y-98333333D01*
X132871362Y-98333333D02*
X132966600Y-98380952D01*
X132966600Y-98380952D02*
X133014219Y-98476190D01*
X133014219Y-98476190D02*
X133014219Y-98619047D01*
X133014219Y-98619047D02*
X132966600Y-98714286D01*
X132966600Y-98714286D02*
X132871362Y-98761905D01*
X132871362Y-98761905D02*
X132347552Y-98761905D01*
X133014219Y-99904762D02*
X132347552Y-100142857D01*
X132347552Y-100142857D02*
X133014219Y-100380952D01*
X132395172Y-101142857D02*
X132347552Y-101047619D01*
X132347552Y-101047619D02*
X132347552Y-100857143D01*
X132347552Y-100857143D02*
X132395172Y-100761905D01*
X132395172Y-100761905D02*
X132490410Y-100714286D01*
X132490410Y-100714286D02*
X132871362Y-100714286D01*
X132871362Y-100714286D02*
X132966600Y-100761905D01*
X132966600Y-100761905D02*
X133014219Y-100857143D01*
X133014219Y-100857143D02*
X133014219Y-101047619D01*
X133014219Y-101047619D02*
X132966600Y-101142857D01*
X132966600Y-101142857D02*
X132871362Y-101190476D01*
X132871362Y-101190476D02*
X132776124Y-101190476D01*
X132776124Y-101190476D02*
X132680886Y-100714286D01*
X132395172Y-102047619D02*
X132347552Y-101952381D01*
X132347552Y-101952381D02*
X132347552Y-101761905D01*
X132347552Y-101761905D02*
X132395172Y-101666667D01*
X132395172Y-101666667D02*
X132442791Y-101619048D01*
X132442791Y-101619048D02*
X132538029Y-101571429D01*
X132538029Y-101571429D02*
X132823743Y-101571429D01*
X132823743Y-101571429D02*
X132918981Y-101619048D01*
X132918981Y-101619048D02*
X132966600Y-101666667D01*
X132966600Y-101666667D02*
X133014219Y-101761905D01*
X133014219Y-101761905D02*
X133014219Y-101952381D01*
X133014219Y-101952381D02*
X132966600Y-102047619D01*
X133014219Y-102333334D02*
X133014219Y-102714286D01*
X133347552Y-102476191D02*
X132490410Y-102476191D01*
X132490410Y-102476191D02*
X132395172Y-102523810D01*
X132395172Y-102523810D02*
X132347552Y-102619048D01*
X132347552Y-102619048D02*
X132347552Y-102714286D01*
X132395172Y-103428572D02*
X132347552Y-103333334D01*
X132347552Y-103333334D02*
X132347552Y-103142858D01*
X132347552Y-103142858D02*
X132395172Y-103047620D01*
X132395172Y-103047620D02*
X132490410Y-103000001D01*
X132490410Y-103000001D02*
X132871362Y-103000001D01*
X132871362Y-103000001D02*
X132966600Y-103047620D01*
X132966600Y-103047620D02*
X133014219Y-103142858D01*
X133014219Y-103142858D02*
X133014219Y-103333334D01*
X133014219Y-103333334D02*
X132966600Y-103428572D01*
X132966600Y-103428572D02*
X132871362Y-103476191D01*
X132871362Y-103476191D02*
X132776124Y-103476191D01*
X132776124Y-103476191D02*
X132680886Y-103000001D01*
X132395172Y-104285715D02*
X132347552Y-104190477D01*
X132347552Y-104190477D02*
X132347552Y-104000001D01*
X132347552Y-104000001D02*
X132395172Y-103904763D01*
X132395172Y-103904763D02*
X132490410Y-103857144D01*
X132490410Y-103857144D02*
X132871362Y-103857144D01*
X132871362Y-103857144D02*
X132966600Y-103904763D01*
X132966600Y-103904763D02*
X133014219Y-104000001D01*
X133014219Y-104000001D02*
X133014219Y-104190477D01*
X133014219Y-104190477D02*
X132966600Y-104285715D01*
X132966600Y-104285715D02*
X132871362Y-104333334D01*
X132871362Y-104333334D02*
X132776124Y-104333334D01*
X132776124Y-104333334D02*
X132680886Y-103857144D01*
X133014219Y-104666668D02*
X133014219Y-105190477D01*
X133014219Y-105190477D02*
X132347552Y-104666668D01*
X132347552Y-104666668D02*
X132347552Y-105190477D01*
X133014219Y-105476192D02*
X132347552Y-105714287D01*
X133014219Y-105952382D02*
X132347552Y-105714287D01*
X132347552Y-105714287D02*
X132109457Y-105619049D01*
X132109457Y-105619049D02*
X132061838Y-105571430D01*
X132061838Y-105571430D02*
X132014219Y-105476192D01*
X132442791Y-106333335D02*
X132395172Y-106380954D01*
X132395172Y-106380954D02*
X132347552Y-106333335D01*
X132347552Y-106333335D02*
X132395172Y-106285716D01*
X132395172Y-106285716D02*
X132442791Y-106333335D01*
X132442791Y-106333335D02*
X132347552Y-106333335D01*
X132395172Y-107238096D02*
X132347552Y-107142858D01*
X132347552Y-107142858D02*
X132347552Y-106952382D01*
X132347552Y-106952382D02*
X132395172Y-106857144D01*
X132395172Y-106857144D02*
X132442791Y-106809525D01*
X132442791Y-106809525D02*
X132538029Y-106761906D01*
X132538029Y-106761906D02*
X132823743Y-106761906D01*
X132823743Y-106761906D02*
X132918981Y-106809525D01*
X132918981Y-106809525D02*
X132966600Y-106857144D01*
X132966600Y-106857144D02*
X133014219Y-106952382D01*
X133014219Y-106952382D02*
X133014219Y-107142858D01*
X133014219Y-107142858D02*
X132966600Y-107238096D01*
X132347552Y-107809525D02*
X132395172Y-107714287D01*
X132395172Y-107714287D02*
X132442791Y-107666668D01*
X132442791Y-107666668D02*
X132538029Y-107619049D01*
X132538029Y-107619049D02*
X132823743Y-107619049D01*
X132823743Y-107619049D02*
X132918981Y-107666668D01*
X132918981Y-107666668D02*
X132966600Y-107714287D01*
X132966600Y-107714287D02*
X133014219Y-107809525D01*
X133014219Y-107809525D02*
X133014219Y-107952382D01*
X133014219Y-107952382D02*
X132966600Y-108047620D01*
X132966600Y-108047620D02*
X132918981Y-108095239D01*
X132918981Y-108095239D02*
X132823743Y-108142858D01*
X132823743Y-108142858D02*
X132538029Y-108142858D01*
X132538029Y-108142858D02*
X132442791Y-108095239D01*
X132442791Y-108095239D02*
X132395172Y-108047620D01*
X132395172Y-108047620D02*
X132347552Y-107952382D01*
X132347552Y-107952382D02*
X132347552Y-107809525D01*
X132347552Y-108571430D02*
X133014219Y-108571430D01*
X132918981Y-108571430D02*
X132966600Y-108619049D01*
X132966600Y-108619049D02*
X133014219Y-108714287D01*
X133014219Y-108714287D02*
X133014219Y-108857144D01*
X133014219Y-108857144D02*
X132966600Y-108952382D01*
X132966600Y-108952382D02*
X132871362Y-109000001D01*
X132871362Y-109000001D02*
X132347552Y-109000001D01*
X132871362Y-109000001D02*
X132966600Y-109047620D01*
X132966600Y-109047620D02*
X133014219Y-109142858D01*
X133014219Y-109142858D02*
X133014219Y-109285715D01*
X133014219Y-109285715D02*
X132966600Y-109380954D01*
X132966600Y-109380954D02*
X132871362Y-109428573D01*
X132871362Y-109428573D02*
X132347552Y-109428573D01*
X131404275Y-89571428D02*
X131404275Y-89952380D01*
X131737608Y-89714285D02*
X130880466Y-89714285D01*
X130880466Y-89714285D02*
X130785228Y-89761904D01*
X130785228Y-89761904D02*
X130737608Y-89857142D01*
X130737608Y-89857142D02*
X130737608Y-89952380D01*
X130737608Y-90285714D02*
X131737608Y-90285714D01*
X130737608Y-90714285D02*
X131261418Y-90714285D01*
X131261418Y-90714285D02*
X131356656Y-90666666D01*
X131356656Y-90666666D02*
X131404275Y-90571428D01*
X131404275Y-90571428D02*
X131404275Y-90428571D01*
X131404275Y-90428571D02*
X131356656Y-90333333D01*
X131356656Y-90333333D02*
X131309037Y-90285714D01*
X130737608Y-91190476D02*
X131404275Y-91190476D01*
X131737608Y-91190476D02*
X131689989Y-91142857D01*
X131689989Y-91142857D02*
X131642370Y-91190476D01*
X131642370Y-91190476D02*
X131689989Y-91238095D01*
X131689989Y-91238095D02*
X131737608Y-91190476D01*
X131737608Y-91190476D02*
X131642370Y-91190476D01*
X130785228Y-92095237D02*
X130737608Y-91999999D01*
X130737608Y-91999999D02*
X130737608Y-91809523D01*
X130737608Y-91809523D02*
X130785228Y-91714285D01*
X130785228Y-91714285D02*
X130832847Y-91666666D01*
X130832847Y-91666666D02*
X130928085Y-91619047D01*
X130928085Y-91619047D02*
X131213799Y-91619047D01*
X131213799Y-91619047D02*
X131309037Y-91666666D01*
X131309037Y-91666666D02*
X131356656Y-91714285D01*
X131356656Y-91714285D02*
X131404275Y-91809523D01*
X131404275Y-91809523D02*
X131404275Y-91999999D01*
X131404275Y-91999999D02*
X131356656Y-92095237D01*
X130737608Y-92523809D02*
X131737608Y-92523809D01*
X131118561Y-92619047D02*
X130737608Y-92904761D01*
X131404275Y-92904761D02*
X131023323Y-92523809D01*
X131404275Y-93333333D02*
X130737608Y-93333333D01*
X131309037Y-93333333D02*
X131356656Y-93380952D01*
X131356656Y-93380952D02*
X131404275Y-93476190D01*
X131404275Y-93476190D02*
X131404275Y-93619047D01*
X131404275Y-93619047D02*
X131356656Y-93714285D01*
X131356656Y-93714285D02*
X131261418Y-93761904D01*
X131261418Y-93761904D02*
X130737608Y-93761904D01*
X130785228Y-94619047D02*
X130737608Y-94523809D01*
X130737608Y-94523809D02*
X130737608Y-94333333D01*
X130737608Y-94333333D02*
X130785228Y-94238095D01*
X130785228Y-94238095D02*
X130880466Y-94190476D01*
X130880466Y-94190476D02*
X131261418Y-94190476D01*
X131261418Y-94190476D02*
X131356656Y-94238095D01*
X131356656Y-94238095D02*
X131404275Y-94333333D01*
X131404275Y-94333333D02*
X131404275Y-94523809D01*
X131404275Y-94523809D02*
X131356656Y-94619047D01*
X131356656Y-94619047D02*
X131261418Y-94666666D01*
X131261418Y-94666666D02*
X131166180Y-94666666D01*
X131166180Y-94666666D02*
X131070942Y-94190476D01*
X130785228Y-95047619D02*
X130737608Y-95142857D01*
X130737608Y-95142857D02*
X130737608Y-95333333D01*
X130737608Y-95333333D02*
X130785228Y-95428571D01*
X130785228Y-95428571D02*
X130880466Y-95476190D01*
X130880466Y-95476190D02*
X130928085Y-95476190D01*
X130928085Y-95476190D02*
X131023323Y-95428571D01*
X131023323Y-95428571D02*
X131070942Y-95333333D01*
X131070942Y-95333333D02*
X131070942Y-95190476D01*
X131070942Y-95190476D02*
X131118561Y-95095238D01*
X131118561Y-95095238D02*
X131213799Y-95047619D01*
X131213799Y-95047619D02*
X131261418Y-95047619D01*
X131261418Y-95047619D02*
X131356656Y-95095238D01*
X131356656Y-95095238D02*
X131404275Y-95190476D01*
X131404275Y-95190476D02*
X131404275Y-95333333D01*
X131404275Y-95333333D02*
X131356656Y-95428571D01*
X130785228Y-95857143D02*
X130737608Y-95952381D01*
X130737608Y-95952381D02*
X130737608Y-96142857D01*
X130737608Y-96142857D02*
X130785228Y-96238095D01*
X130785228Y-96238095D02*
X130880466Y-96285714D01*
X130880466Y-96285714D02*
X130928085Y-96285714D01*
X130928085Y-96285714D02*
X131023323Y-96238095D01*
X131023323Y-96238095D02*
X131070942Y-96142857D01*
X131070942Y-96142857D02*
X131070942Y-96000000D01*
X131070942Y-96000000D02*
X131118561Y-95904762D01*
X131118561Y-95904762D02*
X131213799Y-95857143D01*
X131213799Y-95857143D02*
X131261418Y-95857143D01*
X131261418Y-95857143D02*
X131356656Y-95904762D01*
X131356656Y-95904762D02*
X131404275Y-96000000D01*
X131404275Y-96000000D02*
X131404275Y-96142857D01*
X131404275Y-96142857D02*
X131356656Y-96238095D01*
X130785228Y-97428572D02*
X130737608Y-97523810D01*
X130737608Y-97523810D02*
X130737608Y-97714286D01*
X130737608Y-97714286D02*
X130785228Y-97809524D01*
X130785228Y-97809524D02*
X130880466Y-97857143D01*
X130880466Y-97857143D02*
X130928085Y-97857143D01*
X130928085Y-97857143D02*
X131023323Y-97809524D01*
X131023323Y-97809524D02*
X131070942Y-97714286D01*
X131070942Y-97714286D02*
X131070942Y-97571429D01*
X131070942Y-97571429D02*
X131118561Y-97476191D01*
X131118561Y-97476191D02*
X131213799Y-97428572D01*
X131213799Y-97428572D02*
X131261418Y-97428572D01*
X131261418Y-97428572D02*
X131356656Y-97476191D01*
X131356656Y-97476191D02*
X131404275Y-97571429D01*
X131404275Y-97571429D02*
X131404275Y-97714286D01*
X131404275Y-97714286D02*
X131356656Y-97809524D01*
X130737608Y-98285715D02*
X131737608Y-98285715D01*
X130737608Y-98714286D02*
X131261418Y-98714286D01*
X131261418Y-98714286D02*
X131356656Y-98666667D01*
X131356656Y-98666667D02*
X131404275Y-98571429D01*
X131404275Y-98571429D02*
X131404275Y-98428572D01*
X131404275Y-98428572D02*
X131356656Y-98333334D01*
X131356656Y-98333334D02*
X131309037Y-98285715D01*
X130737608Y-99333334D02*
X130785228Y-99238096D01*
X130785228Y-99238096D02*
X130832847Y-99190477D01*
X130832847Y-99190477D02*
X130928085Y-99142858D01*
X130928085Y-99142858D02*
X131213799Y-99142858D01*
X131213799Y-99142858D02*
X131309037Y-99190477D01*
X131309037Y-99190477D02*
X131356656Y-99238096D01*
X131356656Y-99238096D02*
X131404275Y-99333334D01*
X131404275Y-99333334D02*
X131404275Y-99476191D01*
X131404275Y-99476191D02*
X131356656Y-99571429D01*
X131356656Y-99571429D02*
X131309037Y-99619048D01*
X131309037Y-99619048D02*
X131213799Y-99666667D01*
X131213799Y-99666667D02*
X130928085Y-99666667D01*
X130928085Y-99666667D02*
X130832847Y-99619048D01*
X130832847Y-99619048D02*
X130785228Y-99571429D01*
X130785228Y-99571429D02*
X130737608Y-99476191D01*
X130737608Y-99476191D02*
X130737608Y-99333334D01*
X131404275Y-100523810D02*
X130737608Y-100523810D01*
X131404275Y-100095239D02*
X130880466Y-100095239D01*
X130880466Y-100095239D02*
X130785228Y-100142858D01*
X130785228Y-100142858D02*
X130737608Y-100238096D01*
X130737608Y-100238096D02*
X130737608Y-100380953D01*
X130737608Y-100380953D02*
X130785228Y-100476191D01*
X130785228Y-100476191D02*
X130832847Y-100523810D01*
X130737608Y-101142858D02*
X130785228Y-101047620D01*
X130785228Y-101047620D02*
X130880466Y-101000001D01*
X130880466Y-101000001D02*
X131737608Y-101000001D01*
X130737608Y-101952382D02*
X131737608Y-101952382D01*
X130785228Y-101952382D02*
X130737608Y-101857144D01*
X130737608Y-101857144D02*
X130737608Y-101666668D01*
X130737608Y-101666668D02*
X130785228Y-101571430D01*
X130785228Y-101571430D02*
X130832847Y-101523811D01*
X130832847Y-101523811D02*
X130928085Y-101476192D01*
X130928085Y-101476192D02*
X131213799Y-101476192D01*
X131213799Y-101476192D02*
X131309037Y-101523811D01*
X131309037Y-101523811D02*
X131356656Y-101571430D01*
X131356656Y-101571430D02*
X131404275Y-101666668D01*
X131404275Y-101666668D02*
X131404275Y-101857144D01*
X131404275Y-101857144D02*
X131356656Y-101952382D01*
X130737608Y-103190478D02*
X131737608Y-103190478D01*
X131356656Y-103190478D02*
X131404275Y-103285716D01*
X131404275Y-103285716D02*
X131404275Y-103476192D01*
X131404275Y-103476192D02*
X131356656Y-103571430D01*
X131356656Y-103571430D02*
X131309037Y-103619049D01*
X131309037Y-103619049D02*
X131213799Y-103666668D01*
X131213799Y-103666668D02*
X130928085Y-103666668D01*
X130928085Y-103666668D02*
X130832847Y-103619049D01*
X130832847Y-103619049D02*
X130785228Y-103571430D01*
X130785228Y-103571430D02*
X130737608Y-103476192D01*
X130737608Y-103476192D02*
X130737608Y-103285716D01*
X130737608Y-103285716D02*
X130785228Y-103190478D01*
X130785228Y-104476192D02*
X130737608Y-104380954D01*
X130737608Y-104380954D02*
X130737608Y-104190478D01*
X130737608Y-104190478D02*
X130785228Y-104095240D01*
X130785228Y-104095240D02*
X130880466Y-104047621D01*
X130880466Y-104047621D02*
X131261418Y-104047621D01*
X131261418Y-104047621D02*
X131356656Y-104095240D01*
X131356656Y-104095240D02*
X131404275Y-104190478D01*
X131404275Y-104190478D02*
X131404275Y-104380954D01*
X131404275Y-104380954D02*
X131356656Y-104476192D01*
X131356656Y-104476192D02*
X131261418Y-104523811D01*
X131261418Y-104523811D02*
X131166180Y-104523811D01*
X131166180Y-104523811D02*
X131070942Y-104047621D01*
X131737608Y-105904764D02*
X131737608Y-106000002D01*
X131737608Y-106000002D02*
X131689989Y-106095240D01*
X131689989Y-106095240D02*
X131642370Y-106142859D01*
X131642370Y-106142859D02*
X131547132Y-106190478D01*
X131547132Y-106190478D02*
X131356656Y-106238097D01*
X131356656Y-106238097D02*
X131118561Y-106238097D01*
X131118561Y-106238097D02*
X130928085Y-106190478D01*
X130928085Y-106190478D02*
X130832847Y-106142859D01*
X130832847Y-106142859D02*
X130785228Y-106095240D01*
X130785228Y-106095240D02*
X130737608Y-106000002D01*
X130737608Y-106000002D02*
X130737608Y-105904764D01*
X130737608Y-105904764D02*
X130785228Y-105809526D01*
X130785228Y-105809526D02*
X130832847Y-105761907D01*
X130832847Y-105761907D02*
X130928085Y-105714288D01*
X130928085Y-105714288D02*
X131118561Y-105666669D01*
X131118561Y-105666669D02*
X131356656Y-105666669D01*
X131356656Y-105666669D02*
X131547132Y-105714288D01*
X131547132Y-105714288D02*
X131642370Y-105761907D01*
X131642370Y-105761907D02*
X131689989Y-105809526D01*
X131689989Y-105809526D02*
X131737608Y-105904764D01*
X130832847Y-106666669D02*
X130785228Y-106714288D01*
X130785228Y-106714288D02*
X130737608Y-106666669D01*
X130737608Y-106666669D02*
X130785228Y-106619050D01*
X130785228Y-106619050D02*
X130832847Y-106666669D01*
X130832847Y-106666669D02*
X130737608Y-106666669D01*
X131309037Y-107285716D02*
X131356656Y-107190478D01*
X131356656Y-107190478D02*
X131404275Y-107142859D01*
X131404275Y-107142859D02*
X131499513Y-107095240D01*
X131499513Y-107095240D02*
X131547132Y-107095240D01*
X131547132Y-107095240D02*
X131642370Y-107142859D01*
X131642370Y-107142859D02*
X131689989Y-107190478D01*
X131689989Y-107190478D02*
X131737608Y-107285716D01*
X131737608Y-107285716D02*
X131737608Y-107476192D01*
X131737608Y-107476192D02*
X131689989Y-107571430D01*
X131689989Y-107571430D02*
X131642370Y-107619049D01*
X131642370Y-107619049D02*
X131547132Y-107666668D01*
X131547132Y-107666668D02*
X131499513Y-107666668D01*
X131499513Y-107666668D02*
X131404275Y-107619049D01*
X131404275Y-107619049D02*
X131356656Y-107571430D01*
X131356656Y-107571430D02*
X131309037Y-107476192D01*
X131309037Y-107476192D02*
X131309037Y-107285716D01*
X131309037Y-107285716D02*
X131261418Y-107190478D01*
X131261418Y-107190478D02*
X131213799Y-107142859D01*
X131213799Y-107142859D02*
X131118561Y-107095240D01*
X131118561Y-107095240D02*
X130928085Y-107095240D01*
X130928085Y-107095240D02*
X130832847Y-107142859D01*
X130832847Y-107142859D02*
X130785228Y-107190478D01*
X130785228Y-107190478D02*
X130737608Y-107285716D01*
X130737608Y-107285716D02*
X130737608Y-107476192D01*
X130737608Y-107476192D02*
X130785228Y-107571430D01*
X130785228Y-107571430D02*
X130832847Y-107619049D01*
X130832847Y-107619049D02*
X130928085Y-107666668D01*
X130928085Y-107666668D02*
X131118561Y-107666668D01*
X131118561Y-107666668D02*
X131213799Y-107619049D01*
X131213799Y-107619049D02*
X131261418Y-107571430D01*
X131261418Y-107571430D02*
X131309037Y-107476192D01*
X130737608Y-108095240D02*
X131404275Y-108095240D01*
X131309037Y-108095240D02*
X131356656Y-108142859D01*
X131356656Y-108142859D02*
X131404275Y-108238097D01*
X131404275Y-108238097D02*
X131404275Y-108380954D01*
X131404275Y-108380954D02*
X131356656Y-108476192D01*
X131356656Y-108476192D02*
X131261418Y-108523811D01*
X131261418Y-108523811D02*
X130737608Y-108523811D01*
X131261418Y-108523811D02*
X131356656Y-108571430D01*
X131356656Y-108571430D02*
X131404275Y-108666668D01*
X131404275Y-108666668D02*
X131404275Y-108809525D01*
X131404275Y-108809525D02*
X131356656Y-108904764D01*
X131356656Y-108904764D02*
X131261418Y-108952383D01*
X131261418Y-108952383D02*
X130737608Y-108952383D01*
X130737608Y-109428573D02*
X131404275Y-109428573D01*
X131309037Y-109428573D02*
X131356656Y-109476192D01*
X131356656Y-109476192D02*
X131404275Y-109571430D01*
X131404275Y-109571430D02*
X131404275Y-109714287D01*
X131404275Y-109714287D02*
X131356656Y-109809525D01*
X131356656Y-109809525D02*
X131261418Y-109857144D01*
X131261418Y-109857144D02*
X130737608Y-109857144D01*
X131261418Y-109857144D02*
X131356656Y-109904763D01*
X131356656Y-109904763D02*
X131404275Y-110000001D01*
X131404275Y-110000001D02*
X131404275Y-110142858D01*
X131404275Y-110142858D02*
X131356656Y-110238097D01*
X131356656Y-110238097D02*
X131261418Y-110285716D01*
X131261418Y-110285716D02*
X130737608Y-110285716D01*
D11*
X195678328Y-110107142D02*
X194178328Y-110107142D01*
X194178328Y-110107142D02*
X194178328Y-109749999D01*
X194178328Y-109749999D02*
X194249757Y-109535713D01*
X194249757Y-109535713D02*
X194392614Y-109392856D01*
X194392614Y-109392856D02*
X194535471Y-109321427D01*
X194535471Y-109321427D02*
X194821185Y-109249999D01*
X194821185Y-109249999D02*
X195035471Y-109249999D01*
X195035471Y-109249999D02*
X195321185Y-109321427D01*
X195321185Y-109321427D02*
X195464042Y-109392856D01*
X195464042Y-109392856D02*
X195606900Y-109535713D01*
X195606900Y-109535713D02*
X195678328Y-109749999D01*
X195678328Y-109749999D02*
X195678328Y-110107142D01*
X195678328Y-107821427D02*
X195678328Y-108678570D01*
X195678328Y-108249999D02*
X194178328Y-108249999D01*
X194178328Y-108249999D02*
X194392614Y-108392856D01*
X194392614Y-108392856D02*
X194535471Y-108535713D01*
X194535471Y-108535713D02*
X194606900Y-108678570D01*
D12*
X196930928Y-98107142D02*
X195430928Y-98107142D01*
X195430928Y-98107142D02*
X195430928Y-97749999D01*
X195430928Y-97749999D02*
X195502357Y-97535713D01*
X195502357Y-97535713D02*
X195645214Y-97392856D01*
X195645214Y-97392856D02*
X195788071Y-97321427D01*
X195788071Y-97321427D02*
X196073785Y-97249999D01*
X196073785Y-97249999D02*
X196288071Y-97249999D01*
X196288071Y-97249999D02*
X196573785Y-97321427D01*
X196573785Y-97321427D02*
X196716642Y-97392856D01*
X196716642Y-97392856D02*
X196859500Y-97535713D01*
X196859500Y-97535713D02*
X196930928Y-97749999D01*
X196930928Y-97749999D02*
X196930928Y-98107142D01*
X195430928Y-96749999D02*
X195430928Y-95821427D01*
X195430928Y-95821427D02*
X196002357Y-96321427D01*
X196002357Y-96321427D02*
X196002357Y-96107142D01*
X196002357Y-96107142D02*
X196073785Y-95964285D01*
X196073785Y-95964285D02*
X196145214Y-95892856D01*
X196145214Y-95892856D02*
X196288071Y-95821427D01*
X196288071Y-95821427D02*
X196645214Y-95821427D01*
X196645214Y-95821427D02*
X196788071Y-95892856D01*
X196788071Y-95892856D02*
X196859500Y-95964285D01*
X196859500Y-95964285D02*
X196930928Y-96107142D01*
X196930928Y-96107142D02*
X196930928Y-96535713D01*
X196930928Y-96535713D02*
X196859500Y-96678570D01*
X196859500Y-96678570D02*
X196788071Y-96749999D01*
D11*
X183757142Y-111678328D02*
X183757142Y-112892614D01*
X183757142Y-112892614D02*
X183828571Y-113035471D01*
X183828571Y-113035471D02*
X183900000Y-113106900D01*
X183900000Y-113106900D02*
X184042857Y-113178328D01*
X184042857Y-113178328D02*
X184328571Y-113178328D01*
X184328571Y-113178328D02*
X184471428Y-113106900D01*
X184471428Y-113106900D02*
X184542857Y-113035471D01*
X184542857Y-113035471D02*
X184614285Y-112892614D01*
X184614285Y-112892614D02*
X184614285Y-111678328D01*
X186114286Y-113178328D02*
X185257143Y-113178328D01*
X185685714Y-113178328D02*
X185685714Y-111678328D01*
X185685714Y-111678328D02*
X185542857Y-111892614D01*
X185542857Y-111892614D02*
X185400000Y-112035471D01*
X185400000Y-112035471D02*
X185257143Y-112106900D01*
X194393100Y-98000000D02*
X194321671Y-98214286D01*
X194321671Y-98214286D02*
X194321671Y-98571428D01*
X194321671Y-98571428D02*
X194393100Y-98714286D01*
X194393100Y-98714286D02*
X194464528Y-98785714D01*
X194464528Y-98785714D02*
X194607385Y-98857143D01*
X194607385Y-98857143D02*
X194750242Y-98857143D01*
X194750242Y-98857143D02*
X194893100Y-98785714D01*
X194893100Y-98785714D02*
X194964528Y-98714286D01*
X194964528Y-98714286D02*
X195035957Y-98571428D01*
X195035957Y-98571428D02*
X195107385Y-98285714D01*
X195107385Y-98285714D02*
X195178814Y-98142857D01*
X195178814Y-98142857D02*
X195250242Y-98071428D01*
X195250242Y-98071428D02*
X195393100Y-98000000D01*
X195393100Y-98000000D02*
X195535957Y-98000000D01*
X195535957Y-98000000D02*
X195678814Y-98071428D01*
X195678814Y-98071428D02*
X195750242Y-98142857D01*
X195750242Y-98142857D02*
X195821671Y-98285714D01*
X195821671Y-98285714D02*
X195821671Y-98642857D01*
X195821671Y-98642857D02*
X195750242Y-98857143D01*
X195821671Y-99357142D02*
X194321671Y-99714285D01*
X194321671Y-99714285D02*
X195393100Y-99999999D01*
X195393100Y-99999999D02*
X194321671Y-100285714D01*
X194321671Y-100285714D02*
X195821671Y-100642857D01*
X194321671Y-102000000D02*
X194321671Y-101142857D01*
X194321671Y-101571428D02*
X195821671Y-101571428D01*
X195821671Y-101571428D02*
X195607385Y-101428571D01*
X195607385Y-101428571D02*
X195464528Y-101285714D01*
X195464528Y-101285714D02*
X195393100Y-101142857D01*
X184750000Y-121178328D02*
X184035714Y-121178328D01*
X184035714Y-121178328D02*
X184035714Y-119678328D01*
X186035715Y-121178328D02*
X185178572Y-121178328D01*
X185607143Y-121178328D02*
X185607143Y-119678328D01*
X185607143Y-119678328D02*
X185464286Y-119892614D01*
X185464286Y-119892614D02*
X185321429Y-120035471D01*
X185321429Y-120035471D02*
X185178572Y-120106900D01*
X195678328Y-104107142D02*
X194178328Y-104107142D01*
X194178328Y-104107142D02*
X194178328Y-103749999D01*
X194178328Y-103749999D02*
X194249757Y-103535713D01*
X194249757Y-103535713D02*
X194392614Y-103392856D01*
X194392614Y-103392856D02*
X194535471Y-103321427D01*
X194535471Y-103321427D02*
X194821185Y-103249999D01*
X194821185Y-103249999D02*
X195035471Y-103249999D01*
X195035471Y-103249999D02*
X195321185Y-103321427D01*
X195321185Y-103321427D02*
X195464042Y-103392856D01*
X195464042Y-103392856D02*
X195606900Y-103535713D01*
X195606900Y-103535713D02*
X195678328Y-103749999D01*
X195678328Y-103749999D02*
X195678328Y-104107142D01*
X194321185Y-102678570D02*
X194249757Y-102607142D01*
X194249757Y-102607142D02*
X194178328Y-102464285D01*
X194178328Y-102464285D02*
X194178328Y-102107142D01*
X194178328Y-102107142D02*
X194249757Y-101964285D01*
X194249757Y-101964285D02*
X194321185Y-101892856D01*
X194321185Y-101892856D02*
X194464042Y-101821427D01*
X194464042Y-101821427D02*
X194606900Y-101821427D01*
X194606900Y-101821427D02*
X194821185Y-101892856D01*
X194821185Y-101892856D02*
X195678328Y-102749999D01*
X195678328Y-102749999D02*
X195678328Y-101821427D01*
D12*
X196930928Y-92107142D02*
X195430928Y-92107142D01*
X195430928Y-92107142D02*
X195430928Y-91749999D01*
X195430928Y-91749999D02*
X195502357Y-91535713D01*
X195502357Y-91535713D02*
X195645214Y-91392856D01*
X195645214Y-91392856D02*
X195788071Y-91321427D01*
X195788071Y-91321427D02*
X196073785Y-91249999D01*
X196073785Y-91249999D02*
X196288071Y-91249999D01*
X196288071Y-91249999D02*
X196573785Y-91321427D01*
X196573785Y-91321427D02*
X196716642Y-91392856D01*
X196716642Y-91392856D02*
X196859500Y-91535713D01*
X196859500Y-91535713D02*
X196930928Y-91749999D01*
X196930928Y-91749999D02*
X196930928Y-92107142D01*
X195930928Y-89964285D02*
X196930928Y-89964285D01*
X195359500Y-90321427D02*
X196430928Y-90678570D01*
X196430928Y-90678570D02*
X196430928Y-89749999D01*
D10*
G04 #@! TO.C,D1*
X197250000Y-107500000D02*
X198750000Y-107500000D01*
X197250000Y-108500000D02*
X197250000Y-107500000D01*
X198750000Y-107500000D02*
X198750000Y-108500000D01*
G04 #@! TO.C,D3*
X197250000Y-95500000D02*
X198750000Y-95500000D01*
X197250000Y-96500000D02*
X197250000Y-95500000D01*
X198750000Y-95500000D02*
X198750000Y-96500000D01*
D13*
G04 #@! TO.C,U1*
X183390000Y-115562500D02*
X183390000Y-114912500D01*
X183390000Y-115562500D02*
X183390000Y-116212500D01*
X186510000Y-115562500D02*
X186510000Y-114912500D01*
X186510000Y-115562500D02*
X186510000Y-116212500D01*
X183440000Y-116725000D02*
X183110000Y-116965000D01*
X183110000Y-116485000D01*
X183440000Y-116725000D01*
G36*
X183440000Y-116725000D02*
G01*
X183110000Y-116965000D01*
X183110000Y-116485000D01*
X183440000Y-116725000D01*
G37*
G04 #@! TO.C,SW1*
D14*
X192000000Y-97750000D02*
X188000000Y-97750000D01*
X188000000Y-102250000D01*
X192000000Y-102250000D01*
X192000000Y-97750000D01*
D13*
G04 #@! TO.C,L1*
X184787221Y-117990000D02*
X185112779Y-117990000D01*
X184787221Y-119010000D02*
X185112779Y-119010000D01*
D10*
G04 #@! TO.C,D2*
X197250000Y-101500000D02*
X198750000Y-101500000D01*
X197250000Y-102500000D02*
X197250000Y-101500000D01*
X198750000Y-101500000D02*
X198750000Y-102500000D01*
G04 #@! TO.C,D4*
X197250000Y-89500000D02*
X198750000Y-89500000D01*
X197250000Y-90500000D02*
X197250000Y-89500000D01*
X198750000Y-89500000D02*
X198750000Y-90500000D01*
G04 #@! TD*
M02*
