G04 #@! TF.GenerationSoftware,KiCad,Pcbnew,8.0.2-1.fc40*
G04 #@! TF.CreationDate,2024-05-26T08:13:27-07:00*
G04 #@! TF.ProjectId,busicard-bottom,62757369-6361-4726-942d-626f74746f6d,rev?*
G04 #@! TF.SameCoordinates,Original*
G04 #@! TF.FileFunction,Legend,Bot*
G04 #@! TF.FilePolarity,Positive*
%FSLAX46Y46*%
G04 Gerber Fmt 4.6, Leading zero omitted, Abs format (unit mm)*
G04 Created by KiCad (PCBNEW 8.0.2-1.fc40) date 2024-05-26 08:13:27*
%MOMM*%
%LPD*%
G01*
G04 APERTURE LIST*
%ADD10C,0.000000*%
G04 APERTURE END LIST*
D10*
G04 #@! TO.C,G\u002A\u002A\u002A*
G36*
X159606627Y-98732769D02*
G01*
X159985913Y-98735574D01*
X160297476Y-98741565D01*
X160549382Y-98751595D01*
X160749693Y-98766521D01*
X160906473Y-98787192D01*
X161027786Y-98814466D01*
X161121695Y-98849195D01*
X161196265Y-98892231D01*
X161259559Y-98944429D01*
X161319640Y-99006644D01*
X161384573Y-99079728D01*
X161531745Y-99273360D01*
X161637700Y-99497173D01*
X161695831Y-99760875D01*
X161714884Y-100091251D01*
X161712097Y-100164800D01*
X161665044Y-100413161D01*
X161571096Y-100661750D01*
X161444759Y-100877761D01*
X161300541Y-101028380D01*
X161280832Y-101042490D01*
X161204368Y-101093479D01*
X161125586Y-101135602D01*
X161034893Y-101169705D01*
X160922694Y-101196638D01*
X160779396Y-101217247D01*
X160595404Y-101232381D01*
X160361124Y-101242887D01*
X160066959Y-101249615D01*
X159703324Y-101253409D01*
X159260616Y-101255119D01*
X158729243Y-101255592D01*
X158346356Y-101255739D01*
X157800524Y-101256082D01*
X157194252Y-101256584D01*
X156548453Y-101257221D01*
X155884034Y-101257971D01*
X155221911Y-101258811D01*
X154582989Y-101259719D01*
X153988180Y-101260674D01*
X153721652Y-101260951D01*
X153224692Y-101260485D01*
X152758373Y-101258795D01*
X152332354Y-101255987D01*
X151956294Y-101252170D01*
X151639854Y-101247451D01*
X151392693Y-101241937D01*
X151224470Y-101235738D01*
X151144846Y-101228958D01*
X151112867Y-101221095D01*
X150878317Y-101110835D01*
X150668641Y-100925583D01*
X150498635Y-100685600D01*
X150383093Y-100411147D01*
X150336814Y-100122483D01*
X150350932Y-99776051D01*
X150424185Y-99450296D01*
X150561260Y-99188367D01*
X150765247Y-98982033D01*
X150774032Y-98975347D01*
X150882252Y-98891781D01*
X150956633Y-98832394D01*
X150996598Y-98806805D01*
X151103622Y-98766502D01*
X151131704Y-98763876D01*
X151251632Y-98759521D01*
X151453007Y-98755466D01*
X151725199Y-98751820D01*
X152057578Y-98748693D01*
X152439515Y-98746198D01*
X152860379Y-98744443D01*
X153309542Y-98743540D01*
X153712133Y-98743090D01*
X154268550Y-98742320D01*
X154884665Y-98741336D01*
X155539438Y-98740178D01*
X156211825Y-98738883D01*
X156880789Y-98737493D01*
X157525287Y-98736046D01*
X158124277Y-98734580D01*
X158612635Y-98733304D01*
X159151556Y-98732297D01*
X159606627Y-98732769D01*
G37*
G36*
X135661169Y-93000274D02*
G01*
X136083047Y-93001440D01*
X136534850Y-93002582D01*
X136968595Y-93003576D01*
X137368243Y-93004388D01*
X137717754Y-93004987D01*
X138001088Y-93005341D01*
X138202202Y-93005416D01*
X138851677Y-93005103D01*
X138850820Y-96825005D01*
X138850766Y-97048324D01*
X138850538Y-97771291D01*
X138850227Y-98536197D01*
X138849845Y-99325518D01*
X138849402Y-100121728D01*
X138848908Y-100907303D01*
X138848373Y-101664719D01*
X138847811Y-102376450D01*
X138847231Y-103024971D01*
X138846643Y-103592758D01*
X138846106Y-104073093D01*
X138845530Y-104595035D01*
X138844996Y-105087329D01*
X138844512Y-105540170D01*
X138844090Y-105943760D01*
X138843741Y-106288295D01*
X138843473Y-106563976D01*
X138843297Y-106760999D01*
X138843224Y-106869565D01*
X138843125Y-107198520D01*
X136497212Y-107209704D01*
X136184522Y-107211091D01*
X135604732Y-107212728D01*
X135110759Y-107212147D01*
X134694213Y-107208695D01*
X134346704Y-107201717D01*
X134059843Y-107190560D01*
X133825241Y-107174568D01*
X133634507Y-107153087D01*
X133479254Y-107125464D01*
X133351089Y-107091042D01*
X133241625Y-107049170D01*
X133142472Y-106999191D01*
X133045239Y-106940451D01*
X133006483Y-106913549D01*
X132882088Y-106809642D01*
X132742558Y-106675196D01*
X132605502Y-106529492D01*
X132488527Y-106391814D01*
X132409241Y-106281447D01*
X132385253Y-106217671D01*
X132378430Y-106187321D01*
X132327775Y-106113671D01*
X132312470Y-106096024D01*
X132271203Y-106037870D01*
X132236616Y-105965555D01*
X132208122Y-105870669D01*
X132185124Y-105744803D01*
X132167025Y-105579546D01*
X132153233Y-105366491D01*
X132143152Y-105097225D01*
X132136187Y-104763342D01*
X132131744Y-104356431D01*
X132129226Y-103868082D01*
X132128041Y-103289887D01*
X132126808Y-102223446D01*
X132125668Y-101218661D01*
X132124728Y-100303651D01*
X132124053Y-99474116D01*
X132123711Y-98725752D01*
X132123769Y-98054258D01*
X132124293Y-97455331D01*
X132125353Y-96924668D01*
X132127013Y-96457968D01*
X132129342Y-96050929D01*
X132132406Y-95699246D01*
X132136273Y-95398620D01*
X132141009Y-95144746D01*
X132146683Y-94933325D01*
X132153359Y-94760051D01*
X132161108Y-94620624D01*
X132169994Y-94510741D01*
X132180085Y-94426099D01*
X132191449Y-94362397D01*
X132204152Y-94315332D01*
X132218262Y-94280602D01*
X132233844Y-94253905D01*
X132250968Y-94230938D01*
X132269700Y-94207398D01*
X132307374Y-94133931D01*
X132345877Y-94012497D01*
X132370676Y-93951880D01*
X132462959Y-93814974D01*
X132599985Y-93654653D01*
X132760429Y-93493285D01*
X132922967Y-93353234D01*
X133066278Y-93256868D01*
X133141781Y-93220456D01*
X133315502Y-93148419D01*
X133499928Y-93082406D01*
X133536543Y-93071060D01*
X133617360Y-93050576D01*
X133712515Y-93034176D01*
X133832495Y-93021463D01*
X133987793Y-93012038D01*
X134188897Y-93005502D01*
X134446297Y-93001456D01*
X134770482Y-92999502D01*
X135171944Y-92999241D01*
X135661169Y-93000274D01*
G37*
G36*
X193307750Y-84605628D02*
G01*
X193580757Y-84606264D01*
X193788725Y-84607475D01*
X193919796Y-84609305D01*
X193928289Y-84616869D01*
X193938528Y-84652812D01*
X193947508Y-84723178D01*
X193955302Y-84833288D01*
X193961983Y-84988461D01*
X193967625Y-85194018D01*
X193972299Y-85455276D01*
X193976079Y-85777557D01*
X193979039Y-86166179D01*
X193981252Y-86626461D01*
X193982790Y-87163724D01*
X193983726Y-87783287D01*
X193984134Y-88490470D01*
X193984086Y-89290591D01*
X193983895Y-90082308D01*
X193983761Y-91166704D01*
X193983764Y-92301038D01*
X193983906Y-93488531D01*
X193984189Y-94732407D01*
X193984615Y-96035883D01*
X193985184Y-97402184D01*
X193985901Y-98834531D01*
X193986764Y-100336144D01*
X193987779Y-101910246D01*
X193988945Y-103560055D01*
X193990265Y-105288796D01*
X193991741Y-107099690D01*
X193993376Y-108995957D01*
X193995169Y-110980819D01*
X193997123Y-113057497D01*
X193999241Y-115229212D01*
X193999216Y-115532922D01*
X193998009Y-115963764D01*
X193995523Y-116357268D01*
X193991903Y-116703280D01*
X193987287Y-116991648D01*
X193981819Y-117212217D01*
X193975638Y-117354834D01*
X193968887Y-117409346D01*
X193916772Y-117415979D01*
X193777382Y-117422359D01*
X193562161Y-117428261D01*
X193282435Y-117433598D01*
X192949532Y-117438283D01*
X192574780Y-117442228D01*
X192169506Y-117445347D01*
X191745036Y-117447554D01*
X191312698Y-117448760D01*
X190883820Y-117448879D01*
X190469727Y-117447826D01*
X190081749Y-117445512D01*
X189731212Y-117441850D01*
X189474481Y-117436250D01*
X189283352Y-117424755D01*
X189143581Y-117403889D01*
X189031362Y-117370055D01*
X188922892Y-117319656D01*
X188850936Y-117280449D01*
X188719070Y-117200264D01*
X188636872Y-117138808D01*
X188590318Y-117095779D01*
X188485614Y-117010104D01*
X188468773Y-116996739D01*
X188348294Y-116863167D01*
X188216273Y-116665116D01*
X188086945Y-116428279D01*
X187974545Y-116178354D01*
X187893310Y-115941033D01*
X187893265Y-115940868D01*
X187883805Y-115857558D01*
X187874910Y-115685751D01*
X187866767Y-115435164D01*
X187859560Y-115115516D01*
X187853475Y-114736522D01*
X187848696Y-114307899D01*
X187845408Y-113839366D01*
X187843796Y-113340637D01*
X187843428Y-113072679D01*
X187842201Y-112121793D01*
X187840975Y-111088867D01*
X187839761Y-109985920D01*
X187838568Y-108824974D01*
X187837405Y-107618045D01*
X187836282Y-106377157D01*
X187835207Y-105114327D01*
X187834191Y-103841578D01*
X187833242Y-102570927D01*
X187832370Y-101314395D01*
X187831586Y-100084002D01*
X187830896Y-98891769D01*
X187830313Y-97749715D01*
X187829844Y-96669860D01*
X187829498Y-95664225D01*
X187829286Y-94744828D01*
X187829285Y-94733290D01*
X187829155Y-94005631D01*
X187829003Y-93272426D01*
X187828833Y-92544056D01*
X187828646Y-91830899D01*
X187828449Y-91143339D01*
X187828243Y-90491754D01*
X187828031Y-89886525D01*
X187827817Y-89338034D01*
X187827604Y-88856660D01*
X187827396Y-88452784D01*
X187827195Y-88136786D01*
X187827272Y-87705371D01*
X187828639Y-87301961D01*
X187831803Y-86975476D01*
X187837228Y-86714614D01*
X187845372Y-86508074D01*
X187856700Y-86344552D01*
X187871669Y-86212747D01*
X187890742Y-86101355D01*
X187914378Y-85999077D01*
X187955381Y-85861351D01*
X188116804Y-85504451D01*
X188339386Y-85188308D01*
X188609316Y-84927252D01*
X188912783Y-84735614D01*
X189235976Y-84627727D01*
X189274881Y-84625736D01*
X189403443Y-84623131D01*
X189609260Y-84620538D01*
X189880476Y-84618006D01*
X190205230Y-84615581D01*
X190571667Y-84613310D01*
X190967928Y-84611238D01*
X191382154Y-84609414D01*
X191802489Y-84607883D01*
X192217073Y-84606692D01*
X192614051Y-84605888D01*
X192981562Y-84605518D01*
X193307750Y-84605628D01*
G37*
G36*
X194702734Y-84641443D02*
G01*
X194855348Y-84673158D01*
X195002461Y-84716494D01*
X195113352Y-84763953D01*
X195157304Y-84808041D01*
X195165676Y-84826952D01*
X195231250Y-84848943D01*
X195265184Y-84854279D01*
X195305243Y-84897622D01*
X195307383Y-84911229D01*
X195357843Y-84946431D01*
X195420881Y-84981704D01*
X195522183Y-85079109D01*
X195642312Y-85218952D01*
X195762900Y-85381504D01*
X195839794Y-85514882D01*
X195942099Y-85752650D01*
X196025899Y-86013314D01*
X196075600Y-86253395D01*
X196107342Y-86493563D01*
X196145957Y-86762752D01*
X196180787Y-86980934D01*
X196209320Y-87132578D01*
X196229044Y-87202151D01*
X196233112Y-87212105D01*
X196252617Y-87294782D01*
X196275510Y-87424922D01*
X196279755Y-87451781D01*
X196307557Y-87613523D01*
X196333001Y-87742880D01*
X196352282Y-87834589D01*
X196381044Y-87986272D01*
X196397921Y-88078472D01*
X196424313Y-88208818D01*
X196436887Y-88276976D01*
X196459766Y-88425392D01*
X196483782Y-88601499D01*
X196499833Y-88725161D01*
X196523677Y-88893646D01*
X196548473Y-89040251D01*
X196581977Y-89213308D01*
X196594576Y-89289072D01*
X196615857Y-89448429D01*
X196636280Y-89630586D01*
X196650934Y-89763892D01*
X196670322Y-89912081D01*
X196685636Y-89998763D01*
X196690591Y-90024957D01*
X196704834Y-90140907D01*
X196721683Y-90316047D01*
X196738462Y-90523796D01*
X196745777Y-90619723D01*
X196762688Y-90820085D01*
X196778205Y-90977987D01*
X196789700Y-91065641D01*
X196818502Y-91251229D01*
X196848136Y-91526045D01*
X196875248Y-91863523D01*
X196898154Y-92245360D01*
X196908435Y-92431964D01*
X196923041Y-92658850D01*
X196937260Y-92843296D01*
X196949102Y-92957441D01*
X196949790Y-92962423D01*
X196961364Y-93078125D01*
X196975736Y-93265367D01*
X196991145Y-93499353D01*
X197005826Y-93755290D01*
X197020286Y-94018195D01*
X197036375Y-94293605D01*
X197051444Y-94536065D01*
X197063533Y-94712984D01*
X197065769Y-94744716D01*
X197077826Y-94983469D01*
X197088312Y-95307509D01*
X197097214Y-95705798D01*
X197104515Y-96167281D01*
X197110198Y-96680909D01*
X197114247Y-97235635D01*
X197116647Y-97820409D01*
X197117380Y-98424182D01*
X197116432Y-99035905D01*
X197113786Y-99644530D01*
X197109425Y-100239006D01*
X197103336Y-100808284D01*
X197095499Y-101341317D01*
X197085899Y-101827056D01*
X197074521Y-102254449D01*
X197064964Y-102564455D01*
X197055251Y-102885750D01*
X197047033Y-103164427D01*
X197040712Y-103386591D01*
X197036690Y-103538340D01*
X197035371Y-103605778D01*
X197035376Y-103610411D01*
X197032899Y-103704396D01*
X197026439Y-103876164D01*
X197016840Y-104107312D01*
X197004950Y-104379433D01*
X196991609Y-104674120D01*
X196977666Y-104972968D01*
X196963963Y-105257570D01*
X196951346Y-105509521D01*
X196940660Y-105710414D01*
X196932747Y-105841843D01*
X196929240Y-105894030D01*
X196916019Y-106104646D01*
X196901227Y-106355715D01*
X196887458Y-106603642D01*
X196883779Y-106670991D01*
X196868123Y-106936377D01*
X196851074Y-107200377D01*
X196835717Y-107414612D01*
X196827233Y-107524026D01*
X196817830Y-107647833D01*
X196809097Y-107767979D01*
X196799636Y-107904806D01*
X196788048Y-108078659D01*
X196772931Y-108309882D01*
X196752889Y-108618816D01*
X196746078Y-108721221D01*
X196730563Y-108937925D01*
X196716182Y-109119006D01*
X196705353Y-109233238D01*
X196692580Y-109349828D01*
X196666863Y-109617727D01*
X196639951Y-109933674D01*
X196614669Y-110265532D01*
X196601492Y-110445442D01*
X196584222Y-110671907D01*
X196569523Y-110855374D01*
X196568607Y-110866339D01*
X196543072Y-111179727D01*
X196512155Y-111571495D01*
X196477343Y-112022787D01*
X196465710Y-112163934D01*
X196447457Y-112357067D01*
X196431093Y-112502092D01*
X196377908Y-112958421D01*
X196338298Y-113460704D01*
X196325625Y-113644021D01*
X196309423Y-113837289D01*
X196294612Y-113976840D01*
X196285529Y-114046341D01*
X196259479Y-114252202D01*
X196236763Y-114446271D01*
X196214416Y-114655971D01*
X196189478Y-114908720D01*
X196158984Y-115231937D01*
X196154862Y-115274913D01*
X196123463Y-115548103D01*
X196086707Y-115795627D01*
X196048570Y-115993360D01*
X196013029Y-116117178D01*
X195995864Y-116159317D01*
X195943174Y-116302250D01*
X195912865Y-116405579D01*
X195889325Y-116472608D01*
X195819667Y-116581974D01*
X195774188Y-116639859D01*
X195745161Y-116698951D01*
X195733041Y-116732750D01*
X195663238Y-116826287D01*
X195550202Y-116945303D01*
X195415652Y-117067681D01*
X195281307Y-117171307D01*
X195218159Y-117213805D01*
X195048497Y-117315060D01*
X194893266Y-117378732D01*
X194706706Y-117425027D01*
X194523829Y-117462315D01*
X194521500Y-113256193D01*
X194521288Y-112872545D01*
X194520846Y-112054898D01*
X194520376Y-111170062D01*
X194519887Y-110238635D01*
X194519392Y-109281208D01*
X194518901Y-108318375D01*
X194518423Y-107370729D01*
X194517970Y-106458866D01*
X194517552Y-105603377D01*
X194517180Y-104824858D01*
X194516664Y-103754945D01*
X194515871Y-102203603D01*
X194515064Y-100745391D01*
X194514240Y-99377213D01*
X194513396Y-98095971D01*
X194512526Y-96898569D01*
X194511628Y-95781909D01*
X194510696Y-94742896D01*
X194509727Y-93778431D01*
X194508716Y-92885417D01*
X194507660Y-92060758D01*
X194506555Y-91301358D01*
X194505396Y-90604118D01*
X194504180Y-89965942D01*
X194502902Y-89383734D01*
X194501558Y-88854396D01*
X194500146Y-88374831D01*
X194498658Y-87941942D01*
X194497094Y-87552634D01*
X194495448Y-87203806D01*
X194493716Y-86892365D01*
X194491806Y-86533250D01*
X194490235Y-86099192D01*
X194489620Y-85703352D01*
X194489932Y-85355734D01*
X194491146Y-85066346D01*
X194493233Y-84845196D01*
X194496165Y-84702288D01*
X194499915Y-84647629D01*
X194503865Y-84642852D01*
X194575333Y-84628842D01*
X194702734Y-84641443D01*
G37*
G36*
X151241061Y-92984907D02*
G01*
X152197147Y-92985165D01*
X153155004Y-92985622D01*
X154109591Y-92986286D01*
X154536488Y-92986585D01*
X155133568Y-92986894D01*
X155804425Y-92987141D01*
X156535630Y-92987326D01*
X157313762Y-92987449D01*
X158125391Y-92987509D01*
X158957094Y-92987503D01*
X159795444Y-92987433D01*
X160627018Y-92987296D01*
X161438388Y-92987092D01*
X162216128Y-92986820D01*
X162288542Y-92986791D01*
X163221950Y-92986497D01*
X164132127Y-92986352D01*
X165014071Y-92986349D01*
X165862777Y-92986486D01*
X166673247Y-92986756D01*
X167440478Y-92987152D01*
X168159466Y-92987671D01*
X168825213Y-92988307D01*
X169432714Y-92989054D01*
X169976968Y-92989907D01*
X170452975Y-92990860D01*
X170855731Y-92991909D01*
X171180235Y-92993048D01*
X171421485Y-92994271D01*
X171574479Y-92995573D01*
X171634217Y-92996949D01*
X171634535Y-92997417D01*
X171637939Y-93054696D01*
X171641329Y-93202917D01*
X171644687Y-93435386D01*
X171647999Y-93745411D01*
X171651248Y-94126300D01*
X171654418Y-94571360D01*
X171657493Y-95073897D01*
X171660456Y-95627221D01*
X171663291Y-96224638D01*
X171665983Y-96859457D01*
X171668515Y-97524984D01*
X171670870Y-98214527D01*
X171673033Y-98921393D01*
X171674988Y-99638893D01*
X171676719Y-100360326D01*
X171678208Y-101079008D01*
X171679441Y-101788243D01*
X171680401Y-102481339D01*
X171681072Y-103151605D01*
X171681437Y-103792346D01*
X171681481Y-104396871D01*
X171681187Y-104958487D01*
X171680539Y-105470500D01*
X171679522Y-105926221D01*
X171678119Y-106318955D01*
X171676312Y-106642011D01*
X171674088Y-106888694D01*
X171671429Y-107052315D01*
X171668321Y-107126178D01*
X171639671Y-107137836D01*
X171517620Y-107151150D01*
X171302410Y-107161720D01*
X170996942Y-107169451D01*
X170604121Y-107174251D01*
X170126849Y-107176023D01*
X170031891Y-107176070D01*
X169685541Y-107176300D01*
X169248966Y-107176659D01*
X168728185Y-107177138D01*
X168129213Y-107177732D01*
X167458067Y-107178432D01*
X166720763Y-107179231D01*
X165923320Y-107180122D01*
X165071751Y-107181097D01*
X164172075Y-107182151D01*
X163230308Y-107183274D01*
X162252466Y-107184460D01*
X161244566Y-107185702D01*
X160212623Y-107186991D01*
X159162657Y-107188322D01*
X158100681Y-107189688D01*
X157032714Y-107191078D01*
X155964772Y-107192489D01*
X154902871Y-107193912D01*
X153853027Y-107195339D01*
X152821256Y-107196763D01*
X151813578Y-107198177D01*
X151178298Y-107199032D01*
X149937097Y-107200427D01*
X148757981Y-107201377D01*
X147643361Y-107201888D01*
X146595649Y-107201966D01*
X145617256Y-107201616D01*
X144710595Y-107200845D01*
X143878076Y-107199655D01*
X143122112Y-107198056D01*
X142445114Y-107196052D01*
X141849493Y-107193646D01*
X141337661Y-107190847D01*
X140912030Y-107187659D01*
X140575011Y-107184088D01*
X140329016Y-107180140D01*
X140176456Y-107175820D01*
X140119744Y-107171133D01*
X140117549Y-107164041D01*
X140111348Y-107080510D01*
X140105496Y-106909803D01*
X140100089Y-106660170D01*
X140095225Y-106339859D01*
X140090999Y-105957121D01*
X140087507Y-105520202D01*
X140084847Y-105037354D01*
X140083111Y-104516824D01*
X140082399Y-103966863D01*
X140082338Y-103770627D01*
X140082112Y-103133144D01*
X140081828Y-102421790D01*
X140081494Y-101654772D01*
X140081118Y-100850300D01*
X140080765Y-100136788D01*
X140080710Y-100026585D01*
X140080608Y-99830999D01*
X149372601Y-99830999D01*
X149373136Y-100080023D01*
X149385436Y-100346109D01*
X149407277Y-100606192D01*
X149436437Y-100837212D01*
X149470694Y-101016101D01*
X149507827Y-101119797D01*
X149517002Y-101134753D01*
X149543181Y-101193716D01*
X149554580Y-101241461D01*
X149626658Y-101397407D01*
X149746439Y-101583163D01*
X149896012Y-101772732D01*
X150057462Y-101940114D01*
X150101309Y-101979940D01*
X150231542Y-102092078D01*
X150355702Y-102182888D01*
X150485380Y-102254548D01*
X150632166Y-102309236D01*
X150807651Y-102349127D01*
X151023426Y-102376397D01*
X151291082Y-102393224D01*
X151622209Y-102401786D01*
X152028399Y-102404258D01*
X152521242Y-102402817D01*
X152638690Y-102402282D01*
X152993212Y-102401027D01*
X153427882Y-102399885D01*
X153929796Y-102398870D01*
X154486050Y-102398001D01*
X155083739Y-102397292D01*
X155709961Y-102396761D01*
X156351810Y-102396423D01*
X156996383Y-102396295D01*
X157630775Y-102396393D01*
X157844385Y-102396463D01*
X158525799Y-102396512D01*
X159118004Y-102395928D01*
X159628030Y-102394278D01*
X160062903Y-102391131D01*
X160429650Y-102386052D01*
X160735303Y-102378612D01*
X160986887Y-102368377D01*
X161191430Y-102354914D01*
X161355963Y-102337793D01*
X161487511Y-102316579D01*
X161593102Y-102290841D01*
X161679768Y-102260147D01*
X161754533Y-102224064D01*
X161824426Y-102182160D01*
X161896476Y-102134003D01*
X162016771Y-102043791D01*
X162235831Y-101839089D01*
X162429576Y-101609119D01*
X162578155Y-101378808D01*
X162661714Y-101173086D01*
X162675689Y-101117959D01*
X162711422Y-100982926D01*
X162756038Y-100818220D01*
X162771536Y-100750478D01*
X162801267Y-100522375D01*
X162817071Y-100238723D01*
X162819143Y-99929464D01*
X162807683Y-99624537D01*
X162782890Y-99353885D01*
X162744961Y-99147448D01*
X162720813Y-99064655D01*
X162597271Y-98747233D01*
X162434671Y-98444711D01*
X162245376Y-98173226D01*
X162041750Y-97948916D01*
X161836154Y-97787919D01*
X161640955Y-97706370D01*
X161560961Y-97686094D01*
X161433932Y-97645127D01*
X161412768Y-97640449D01*
X161297570Y-97629681D01*
X161102626Y-97620070D01*
X160841056Y-97611975D01*
X160525979Y-97605753D01*
X160170516Y-97601758D01*
X159787785Y-97600349D01*
X159013748Y-97600509D01*
X158028227Y-97601179D01*
X157087978Y-97602353D01*
X156197079Y-97604009D01*
X155359604Y-97606124D01*
X154579629Y-97608679D01*
X153861232Y-97611649D01*
X153208485Y-97615015D01*
X152625468Y-97618756D01*
X152116254Y-97622849D01*
X151684920Y-97627271D01*
X151335541Y-97632003D01*
X151072194Y-97637023D01*
X150898954Y-97642307D01*
X150819897Y-97647837D01*
X150604341Y-97704377D01*
X150271290Y-97868481D01*
X149983229Y-98112457D01*
X149744903Y-98429402D01*
X149561055Y-98812416D01*
X149436427Y-99254596D01*
X149375764Y-99749042D01*
X149372601Y-99830999D01*
X140080608Y-99830999D01*
X140080279Y-99201836D01*
X140079832Y-98394262D01*
X140079381Y-97622074D01*
X140078934Y-96903481D01*
X140078809Y-96704520D01*
X140078486Y-96104593D01*
X140078257Y-95535963D01*
X140078120Y-95006069D01*
X140078075Y-94522352D01*
X140078119Y-94092252D01*
X140078252Y-93723208D01*
X140078472Y-93422663D01*
X140078778Y-93198056D01*
X140079167Y-93056827D01*
X140079640Y-93006418D01*
X140080688Y-93006115D01*
X140142942Y-93004021D01*
X140297699Y-93001996D01*
X140539919Y-93000048D01*
X140864561Y-92998183D01*
X141266584Y-92996409D01*
X141740949Y-92994733D01*
X142282612Y-92993162D01*
X142886536Y-92991704D01*
X143547677Y-92990366D01*
X144260996Y-92989155D01*
X145021452Y-92988079D01*
X145824005Y-92987143D01*
X146663612Y-92986356D01*
X147535236Y-92985726D01*
X148433833Y-92985259D01*
X149354363Y-92984961D01*
X150291786Y-92984842D01*
X151241061Y-92984907D01*
G37*
G36*
X186855994Y-85711472D02*
G01*
X186858570Y-85823508D01*
X186860620Y-86020387D01*
X186862130Y-86294238D01*
X186863088Y-86637192D01*
X186863481Y-87041377D01*
X186863299Y-87498923D01*
X186862528Y-88001961D01*
X186861155Y-88542619D01*
X186859171Y-89113028D01*
X186858972Y-89163664D01*
X186856495Y-89805136D01*
X186854017Y-90468212D01*
X186851587Y-91137907D01*
X186849257Y-91799241D01*
X186847077Y-92437230D01*
X186845100Y-93036891D01*
X186843375Y-93583242D01*
X186841956Y-94061300D01*
X186840893Y-94456082D01*
X186840341Y-94664008D01*
X186838948Y-95126011D01*
X186837164Y-95660491D01*
X186835051Y-96250549D01*
X186832674Y-96879284D01*
X186830099Y-97529791D01*
X186827389Y-98185173D01*
X186824609Y-98828524D01*
X186821825Y-99442946D01*
X186820313Y-99770892D01*
X186817476Y-100399957D01*
X186814634Y-101047190D01*
X186811856Y-101695957D01*
X186809211Y-102329627D01*
X186806766Y-102931566D01*
X186804592Y-103485144D01*
X186802759Y-103973729D01*
X186801333Y-104380687D01*
X186801155Y-104433905D01*
X186799589Y-104870656D01*
X186797598Y-105384857D01*
X186795261Y-105958227D01*
X186792659Y-106572486D01*
X186789867Y-107209352D01*
X186786966Y-107850542D01*
X186784033Y-108477777D01*
X186781148Y-109072774D01*
X186780927Y-109117542D01*
X186778099Y-109724080D01*
X186775366Y-110367753D01*
X186772795Y-111029220D01*
X186770450Y-111689139D01*
X186768397Y-112328168D01*
X186766704Y-112926966D01*
X186765434Y-113466189D01*
X186764655Y-113926496D01*
X186764268Y-114128379D01*
X186762532Y-114552592D01*
X186759703Y-114941095D01*
X186755933Y-115283466D01*
X186751376Y-115569277D01*
X186746183Y-115788104D01*
X186740509Y-115929522D01*
X186734505Y-115983107D01*
X186717199Y-115980843D01*
X186629996Y-115939562D01*
X186483558Y-115857418D01*
X186292689Y-115742878D01*
X186072197Y-115604407D01*
X185961909Y-115533798D01*
X185742733Y-115393830D01*
X185554904Y-115274344D01*
X185415531Y-115186213D01*
X185341725Y-115140307D01*
X185282164Y-115103632D01*
X185150960Y-115021493D01*
X184975590Y-114910937D01*
X184777367Y-114785367D01*
X184614412Y-114682020D01*
X184433259Y-114567442D01*
X184292385Y-114478688D01*
X184213108Y-114429213D01*
X184199951Y-114421123D01*
X184085884Y-114350195D01*
X183906871Y-114238170D01*
X183678115Y-114094624D01*
X183414819Y-113929128D01*
X183132189Y-113751256D01*
X182845427Y-113570580D01*
X182569736Y-113396672D01*
X182320320Y-113239106D01*
X182112384Y-113107454D01*
X181961130Y-113011288D01*
X181833608Y-112931004D01*
X181671693Y-112832738D01*
X181553478Y-112765541D01*
X181498270Y-112740703D01*
X181457421Y-112725482D01*
X181351229Y-112667388D01*
X181204138Y-112578510D01*
X181037002Y-112472409D01*
X180870680Y-112362646D01*
X180726027Y-112262782D01*
X180623901Y-112186378D01*
X180585157Y-112146995D01*
X180576804Y-112128990D01*
X180511224Y-112108037D01*
X180477147Y-112101722D01*
X180437180Y-112051170D01*
X180434695Y-112031428D01*
X180406668Y-112024386D01*
X180392324Y-112025429D01*
X180311229Y-111991934D01*
X180178622Y-111917829D01*
X180014557Y-111813882D01*
X179940539Y-111765045D01*
X179786588Y-111666648D01*
X179672959Y-111598481D01*
X179620124Y-111573044D01*
X179581996Y-111555807D01*
X179483432Y-111494005D01*
X179352348Y-111402723D01*
X179246005Y-111328110D01*
X179138531Y-111258996D01*
X179083971Y-111232406D01*
X179079975Y-111231656D01*
X179014691Y-111198202D01*
X178894787Y-111124991D01*
X178742810Y-111025685D01*
X178726217Y-111014551D01*
X178566137Y-110908008D01*
X178432520Y-110820538D01*
X178352828Y-110770133D01*
X178334835Y-110759275D01*
X178229952Y-110694482D01*
X178058946Y-110587787D01*
X177834518Y-110447179D01*
X177569371Y-110280649D01*
X177276205Y-110096185D01*
X176967722Y-109901779D01*
X176656622Y-109705417D01*
X176355608Y-109515093D01*
X176077382Y-109338793D01*
X175866958Y-109206884D01*
X175650968Y-109075217D01*
X175475216Y-108972185D01*
X175353798Y-108906023D01*
X175300804Y-108884969D01*
X175289960Y-108886557D01*
X175258916Y-108849037D01*
X175257726Y-108842739D01*
X175205072Y-108790403D01*
X175098535Y-108733357D01*
X175089819Y-108729607D01*
X174937478Y-108645673D01*
X174793358Y-108540838D01*
X174764076Y-108516704D01*
X174667265Y-108453456D01*
X174608505Y-108440438D01*
X174595414Y-108445722D01*
X174568427Y-108413320D01*
X174559942Y-108389405D01*
X174494416Y-108361742D01*
X174460482Y-108356407D01*
X174420423Y-108313064D01*
X174411971Y-108290514D01*
X174346429Y-108264386D01*
X174312495Y-108259050D01*
X174272437Y-108215707D01*
X174268004Y-108197639D01*
X174210723Y-108166439D01*
X174201304Y-108164451D01*
X174120113Y-108125861D01*
X173978553Y-108045567D01*
X173793560Y-107933458D01*
X173582067Y-107799419D01*
X173546051Y-107776156D01*
X173321113Y-107632135D01*
X173113001Y-107500874D01*
X172943530Y-107396031D01*
X172834507Y-107331267D01*
X172730077Y-107263089D01*
X172662228Y-107171836D01*
X172634001Y-107031142D01*
X172633529Y-107025421D01*
X172630017Y-106933529D01*
X172625776Y-106751715D01*
X172620901Y-106487201D01*
X172615489Y-106147204D01*
X172609635Y-105738942D01*
X172603436Y-105269636D01*
X172596986Y-104746503D01*
X172590384Y-104176762D01*
X172583723Y-103567633D01*
X172577100Y-102926333D01*
X172570611Y-102260082D01*
X172566881Y-101865497D01*
X172559853Y-101123163D01*
X172552685Y-100367277D01*
X172545494Y-99610262D01*
X172538401Y-98864542D01*
X172531521Y-98142539D01*
X172524974Y-97456677D01*
X172518880Y-96819376D01*
X172513356Y-96243062D01*
X172508519Y-95740157D01*
X172504490Y-95323085D01*
X172481568Y-92958297D01*
X173266521Y-92554615D01*
X173496010Y-92437814D01*
X173726676Y-92323132D01*
X173915410Y-92232250D01*
X174047159Y-92172402D01*
X174106871Y-92150818D01*
X174145794Y-92139336D01*
X174222533Y-92077179D01*
X174263083Y-92039877D01*
X174320935Y-92026907D01*
X174352898Y-92027164D01*
X174419338Y-91976634D01*
X174463313Y-91938895D01*
X174571844Y-91902548D01*
X174623163Y-91893854D01*
X174663786Y-91852856D01*
X174667982Y-91834737D01*
X174724891Y-91802434D01*
X174764483Y-91792342D01*
X174888503Y-91740440D01*
X175076739Y-91649998D01*
X175316319Y-91527293D01*
X175594368Y-91378598D01*
X175629141Y-91359834D01*
X175735389Y-91304949D01*
X175790292Y-91280560D01*
X175793721Y-91279833D01*
X175878666Y-91247519D01*
X176004851Y-91186832D01*
X176139633Y-91115092D01*
X176250370Y-91049622D01*
X176304415Y-91007745D01*
X176335962Y-90980915D01*
X176429916Y-90957719D01*
X176484202Y-90948570D01*
X176524973Y-90908007D01*
X176543224Y-90879340D01*
X176622931Y-90858278D01*
X176679983Y-90848717D01*
X176720888Y-90808549D01*
X176724422Y-90791564D01*
X176779454Y-90759061D01*
X176834878Y-90737951D01*
X176961486Y-90680072D01*
X177142974Y-90593514D01*
X177363057Y-90486361D01*
X177605449Y-90366702D01*
X177853867Y-90242624D01*
X178092023Y-90122214D01*
X178303633Y-90013560D01*
X178472413Y-89924748D01*
X178582076Y-89863867D01*
X178602971Y-89852099D01*
X178709855Y-89795788D01*
X178881785Y-89707803D01*
X179106022Y-89594457D01*
X179369829Y-89462066D01*
X179660468Y-89316945D01*
X179965203Y-89165406D01*
X180271294Y-89013768D01*
X180566006Y-88868342D01*
X180836599Y-88735444D01*
X181070337Y-88621390D01*
X181254482Y-88532494D01*
X181376296Y-88475071D01*
X181423042Y-88455435D01*
X181436644Y-88454632D01*
X181499440Y-88418664D01*
X181505385Y-88414151D01*
X181581947Y-88368144D01*
X181720951Y-88292178D01*
X181905789Y-88194654D01*
X182119860Y-88083979D01*
X182346559Y-87968557D01*
X182569284Y-87856793D01*
X182771427Y-87757089D01*
X182936388Y-87677853D01*
X183047560Y-87627488D01*
X183088342Y-87614397D01*
X183115438Y-87607658D01*
X183186215Y-87551005D01*
X183253911Y-87499736D01*
X183284163Y-87499678D01*
X183293320Y-87512043D01*
X183345497Y-87486740D01*
X183364928Y-87473341D01*
X183460995Y-87417713D01*
X183618227Y-87332325D01*
X183821808Y-87224725D01*
X184056926Y-87102460D01*
X184308764Y-86973077D01*
X184562511Y-86844124D01*
X184803350Y-86723146D01*
X185016469Y-86617694D01*
X185187052Y-86535311D01*
X185300285Y-86483546D01*
X185341354Y-86469947D01*
X185368474Y-86463666D01*
X185439233Y-86407241D01*
X185506981Y-86356392D01*
X185537190Y-86357512D01*
X185564756Y-86359973D01*
X185635147Y-86307784D01*
X185702896Y-86256934D01*
X185733104Y-86258054D01*
X185753475Y-86266512D01*
X185818882Y-86225233D01*
X185852416Y-86200600D01*
X185974797Y-86129581D01*
X186124924Y-86057689D01*
X186206910Y-86020794D01*
X186403185Y-85925058D01*
X186590249Y-85826076D01*
X186695605Y-85768092D01*
X186804272Y-85710636D01*
X186853868Y-85687743D01*
X186855994Y-85711472D01*
G37*
G04 #@! TD*
M02*
