  0
SECTION
  2
HEADER
  9
$ANGBASE
  50
0.0
  9
$ANGDIR
  70
1
  9
$MEASUREMENT
  70
0
  0
ENDSEC
  0
SECTION
  2
TABLES
  0
TABLE
  2
LTYPE
  70
4
  0
LTYPE
  5
40F
  2
CONTINUOUS
  70
0
  3
Solid line
  72
65
  73
0
  40
0.0
  0
LTYPE
  5
410
  2
DASHDOT
 70
0
  3
Dash Dot ____ _ ____ _
 72
65
 73
4
 40
2.0
 49
1.25
 49
-0.25
 49
0.25
 49
-0.25
  0
LTYPE
  5
411
  2
DASHED
 70
0
  3
Dashed __ __ __ __ __
 72
65
 73
2
 40
0.75
 49
0.5
 49
-0.25
  0
LTYPE
  5
43B
  2
DOTTED
 70
0
  3
Dotted .  .  .  .
 72
65
 73
2
 40
0.2
 49
0.0
 49
-0.2
  0
ENDTAB
  0
TABLE
  2
STYLE
  70
4
  0
STYLE
  2
KICAD
  70
0
  40
0
  41
1
  42
1
  50
0
  71
0
  3
isocp.shx
  0
STYLE
  2
KICADB
  70
0
  40
0
  41
1
  42
1
  50
0
  71
0
  3
isocp.shx
  0
STYLE
  2
KICADI
  70
0
  40
0
  41
1
  42
1
  50
15
  71
0
  3
isocp.shx
  0
STYLE
  2
KICADBI
  70
0
  40
0
  41
1
  42
1
  50
15
  71
0
  3
isocp.shx
  0
ENDTAB
  0
TABLE
  2
LAYER
  70
1
  0
LAYER
  2
BLACK
  70
0
  62
7
  6
CONTINUOUS
  0
ENDTAB
  0
ENDSEC
  0
SECTION
  2
ENTITIES
0
ARC
8
BLACK
10
5.1968503937007871
20
-4.7637795275590546
40
0.078740157480315
50
-180.00000000
51
-90.00000000
0
LINE
8
BLACK
6
CONTINUOUS
10
7.2047244094488185
20
-4.7637795275590546
11
7.3622047244094491
21
-4.7637795275590546
0
ARC
8
BLACK
10
6.1417322834645667
20
-3.7401574803149606
40
0.150278191636953
50
-99.99154741
51
99.99154741
0
LINE
8
BLACK
6
CONTINUOUS
10
7.8740157480314963
20
-4.5669291338582676
11
7.8740157480314963
21
-4.7637795275590546
0
ARC
8
BLACK
10
5.7086614173228343
20
-3.7401574803149606
40
0.4330708661417323
50
19.98310741
51
90.00000000
0
ARC
8
BLACK
10
7.3622047244094491
20
-4.7244094488188972
40
0.0393700787401575
50
-90.00000000
51
-0.00000000
0
LINE
8
BLACK
6
CONTINUOUS
10
7.4015748031496065
20
-4.7244094488188972
11
7.4015748031496065
21
-4.4881889763779528
0
ARC
8
BLACK
10
7.7952755905511806
20
-3.4679448818897636
40
0.0787401574822441
50
90.00000000
51
179.99959893
0
ARC
8
BLACK
10
7.2047244094488185
20
-4.4881889763779528
40
0.0393700787401575
50
90.00000000
51
180.00000000
0
LINE
8
BLACK
6
CONTINUOUS
10
7.7952755905511806
20
-3.0314960629921259
11
5.1968503937007871
21
-3.0314960629921259
0
ARC
8
BLACK
10
6.7322834645669287
20
-4.1338582677165352
40
0.4330708828995344
50
-90.00000000
51
-19.98310741
0
ARC
8
BLACK
10
5.7086614173228343
20
-3.7401574803149606
40
0.4330708828995344
50
-90.00000000
51
-19.98310741
0
LINE
8
BLACK
6
CONTINUOUS
10
7.2047244094488185
20
-4.4488188976377954
11
7.3622047244094491
21
-4.4488188976377954
0
ARC
8
BLACK
10
7.7952755905511806
20
-4.5669291338582676
40
0.078740157480315
50
0.00000000
51
90.00000000
0
ARC
8
BLACK
10
6.7322834645669287
20
-4.1338582677165352
40
0.4330708661417323
50
19.98310741
51
90.00000000
0
ARC
8
BLACK
10
7.7952755905511806
20
-4.7637795275590546
40
0.078740157480315
50
-90.00000000
51
-0.00000000
0
ARC
8
BLACK
10
7.3622047244094491
20
-4.4881889763779528
40
0.0393700787401575
50
0.00000000
51
90.00000000
0
ARC
8
BLACK
10
7.7952755905511806
20
-4.409448818897638
40
0.078740157480315
50
-180.00000000
51
-90.00000000
0
LINE
8
BLACK
6
CONTINUOUS
10
7.8740157480314963
20
-3.3104640157480314
11
7.8740157480314963
21
-3.1102362204724407
0
LINE
8
BLACK
6
CONTINUOUS
10
5.1181102362204722
20
-4.7637795275590546
11
5.1181102362204722
21
-3.1102362204724407
0
LINE
8
BLACK
6
CONTINUOUS
10
7.7165354330708658
20
-3.4679443307086615
11
7.7165354330708658
21
-4.409448818897638
0
ARC
8
BLACK
10
7.1653543307086611
20
-4.1338582677165352
40
0.150278191636953
50
-99.99154741
51
99.99154741
0
ARC
8
BLACK
10
7.7952755905511806
20
-3.3104645669291339
40
0.0787401574822441
50
-90.00000000
51
0.00040107
0
LINE
8
BLACK
6
CONTINUOUS
10
7.1653543307086611
20
-4.7244094488188972
11
7.1653543307086611
21
-4.4881889763779528
0
LINE
8
BLACK
6
CONTINUOUS
10
7.7952755905511806
20
-4.8425196850393704
11
5.1968503937007871
21
-4.8425196850393704
0
ARC
8
BLACK
10
7.7952755905511806
20
-3.1102362204724407
40
0.078740157480315
50
0.00000000
51
90.00000000
0
ARC
8
BLACK
10
7.2047244094488185
20
-4.7244094488188972
40
0.0393700787401575
50
-180.00000000
51
-90.00000000
0
ARC
8
BLACK
10
5.1968503937007871
20
-3.1102362204724407
40
0.078740157480315
50
90.00000000
51
180.00000000
0
ARC
8
BLACK
10
5.7086614173228343
20
-3.7401574803149606
40
0.4330708661417323
50
-270.00000000
51
-90.00000000
0
CIRCLE
8
BLACK
10
7.4803149606299213
20
-3.9370078740157481
40
0.1574803149606299
0
ARC
8
BLACK
10
6.7322834645669287
20
-4.1338582677165352
40
0.4330708661417323
50
-270.00000000
51
-90.00000000
  0
ENDSEC
  0
EOF
