G04 #@! TF.GenerationSoftware,KiCad,Pcbnew,8.0.2-1.fc40*
G04 #@! TF.CreationDate,2024-05-26T07:40:06-07:00*
G04 #@! TF.ProjectId,busicard-middle,62757369-6361-4726-942d-6d6964646c65,rev?*
G04 #@! TF.SameCoordinates,Original*
G04 #@! TF.FileFunction,Profile,NP*
%FSLAX46Y46*%
G04 Gerber Fmt 4.6, Leading zero omitted, Abs format (unit mm)*
G04 Created by KiCad (PCBNEW 8.0.2-1.fc40) date 2024-05-26 07:40:06*
%MOMM*%
%LPD*%
G01*
G04 APERTURE LIST*
G04 #@! TA.AperFunction,Profile*
%ADD10C,0.050000*%
G04 #@! TD*
G04 APERTURE END LIST*
D10*
X132000000Y-123000000D02*
G75*
G02*
X130000000Y-121000000I0J2000000D01*
G01*
X183000000Y-121000000D02*
X187000000Y-121000000D01*
X155337728Y-91240826D02*
G75*
G02*
X155337728Y-98759174I662272J-3759174D01*
G01*
X200000000Y-116000000D02*
X200000000Y-121000000D01*
X145000000Y-84000000D02*
G75*
G02*
X155337728Y-91240826I0J-11000000D01*
G01*
X188000000Y-120000000D02*
G75*
G02*
X187000000Y-121000000I-1000000J0D01*
G01*
X188000000Y-120000000D02*
X188000000Y-114000000D01*
X196000000Y-88085786D02*
G75*
G02*
X198000000Y-86085800I2000000J-14D01*
G01*
X182000000Y-114000000D02*
G75*
G02*
X183000000Y-113000000I1000000J0D01*
G01*
X198000000Y-77000000D02*
X132000000Y-77000000D01*
X181337728Y-108759174D02*
G75*
G02*
X171000000Y-116000000I-10337728J3759174D01*
G01*
X155337728Y-98759174D02*
G75*
G02*
X145000000Y-106000000I-10337728J3759174D01*
G01*
X183000000Y-113000000D02*
X187000000Y-113000000D01*
X198000000Y-114000000D02*
G75*
G02*
X200000000Y-116000000I0J-2000000D01*
G01*
X171000000Y-94000000D02*
G75*
G02*
X181337728Y-101240826I0J-11000000D01*
G01*
X200000000Y-121000000D02*
G75*
G02*
X198000000Y-123000000I-2000000J0D01*
G01*
X187000000Y-113000000D02*
G75*
G02*
X188000000Y-114000000I0J-1000000D01*
G01*
X198000000Y-114000000D02*
G75*
G02*
X196000000Y-112000000I0J2000000D01*
G01*
X200000000Y-84085786D02*
X200000000Y-79000000D01*
X130000000Y-121000000D02*
X130000000Y-79000000D01*
X196000000Y-88085786D02*
X196000000Y-112000000D01*
X181337728Y-101240826D02*
G75*
G02*
X181337728Y-108759174I662272J-3759174D01*
G01*
X200000000Y-84085786D02*
G75*
G02*
X198000000Y-86085800I-2000000J-14D01*
G01*
X182000000Y-120000000D02*
X182000000Y-114000000D01*
X198000000Y-123000000D02*
X132000000Y-123000000D01*
X198000000Y-77000000D02*
G75*
G02*
X200000000Y-79000000I0J-2000000D01*
G01*
X183000000Y-121000000D02*
G75*
G02*
X182000000Y-120000000I0J1000000D01*
G01*
X130000000Y-79000000D02*
G75*
G02*
X132000000Y-77000000I2000000J0D01*
G01*
X145000000Y-106000000D02*
G75*
G02*
X145000000Y-84000000I0J11000000D01*
G01*
X194000000Y-100000000D02*
G75*
G02*
X186000000Y-100000000I-4000000J0D01*
G01*
X186000000Y-100000000D02*
G75*
G02*
X194000000Y-100000000I4000000J0D01*
G01*
X171000000Y-116000000D02*
G75*
G02*
X171000000Y-94000000I0J11000000D01*
G01*
M02*
