G04 #@! TF.GenerationSoftware,KiCad,Pcbnew,8.0.2-1.fc40*
G04 #@! TF.CreationDate,2024-05-26T08:13:29-07:00*
G04 #@! TF.ProjectId,busicard-middle,62757369-6361-4726-942d-6d6964646c65,rev?*
G04 #@! TF.SameCoordinates,Original*
G04 #@! TF.FileFunction,Legend,Top*
G04 #@! TF.FilePolarity,Positive*
%FSLAX46Y46*%
G04 Gerber Fmt 4.6, Leading zero omitted, Abs format (unit mm)*
G04 Created by KiCad (PCBNEW 8.0.2-1.fc40) date 2024-05-26 08:13:29*
%MOMM*%
%LPD*%
G01*
G04 APERTURE LIST*
%ADD10C,0.100000*%
%ADD11C,0.300000*%
G04 APERTURE END LIST*
D10*
X138380951Y-118457419D02*
X138380951Y-119171704D01*
X138380951Y-119171704D02*
X138333332Y-119314561D01*
X138333332Y-119314561D02*
X138238094Y-119409800D01*
X138238094Y-119409800D02*
X138095237Y-119457419D01*
X138095237Y-119457419D02*
X137999999Y-119457419D01*
X139333332Y-119457419D02*
X138857142Y-119457419D01*
X138857142Y-119457419D02*
X138857142Y-118457419D01*
X140238094Y-119362180D02*
X140190475Y-119409800D01*
X140190475Y-119409800D02*
X140047618Y-119457419D01*
X140047618Y-119457419D02*
X139952380Y-119457419D01*
X139952380Y-119457419D02*
X139809523Y-119409800D01*
X139809523Y-119409800D02*
X139714285Y-119314561D01*
X139714285Y-119314561D02*
X139666666Y-119219323D01*
X139666666Y-119219323D02*
X139619047Y-119028847D01*
X139619047Y-119028847D02*
X139619047Y-118885990D01*
X139619047Y-118885990D02*
X139666666Y-118695514D01*
X139666666Y-118695514D02*
X139714285Y-118600276D01*
X139714285Y-118600276D02*
X139809523Y-118505038D01*
X139809523Y-118505038D02*
X139952380Y-118457419D01*
X139952380Y-118457419D02*
X140047618Y-118457419D01*
X140047618Y-118457419D02*
X140190475Y-118505038D01*
X140190475Y-118505038D02*
X140238094Y-118552657D01*
X140952380Y-118457419D02*
X140952380Y-119171704D01*
X140952380Y-119171704D02*
X140904761Y-119314561D01*
X140904761Y-119314561D02*
X140809523Y-119409800D01*
X140809523Y-119409800D02*
X140666666Y-119457419D01*
X140666666Y-119457419D02*
X140571428Y-119457419D01*
X141904761Y-119457419D02*
X141428571Y-119457419D01*
X141428571Y-119457419D02*
X141428571Y-118457419D01*
X142809523Y-119362180D02*
X142761904Y-119409800D01*
X142761904Y-119409800D02*
X142619047Y-119457419D01*
X142619047Y-119457419D02*
X142523809Y-119457419D01*
X142523809Y-119457419D02*
X142380952Y-119409800D01*
X142380952Y-119409800D02*
X142285714Y-119314561D01*
X142285714Y-119314561D02*
X142238095Y-119219323D01*
X142238095Y-119219323D02*
X142190476Y-119028847D01*
X142190476Y-119028847D02*
X142190476Y-118885990D01*
X142190476Y-118885990D02*
X142238095Y-118695514D01*
X142238095Y-118695514D02*
X142285714Y-118600276D01*
X142285714Y-118600276D02*
X142380952Y-118505038D01*
X142380952Y-118505038D02*
X142523809Y-118457419D01*
X142523809Y-118457419D02*
X142619047Y-118457419D01*
X142619047Y-118457419D02*
X142761904Y-118505038D01*
X142761904Y-118505038D02*
X142809523Y-118552657D01*
X143523809Y-118457419D02*
X143523809Y-119171704D01*
X143523809Y-119171704D02*
X143476190Y-119314561D01*
X143476190Y-119314561D02*
X143380952Y-119409800D01*
X143380952Y-119409800D02*
X143238095Y-119457419D01*
X143238095Y-119457419D02*
X143142857Y-119457419D01*
X144476190Y-119457419D02*
X144000000Y-119457419D01*
X144000000Y-119457419D02*
X144000000Y-118457419D01*
X145380952Y-119362180D02*
X145333333Y-119409800D01*
X145333333Y-119409800D02*
X145190476Y-119457419D01*
X145190476Y-119457419D02*
X145095238Y-119457419D01*
X145095238Y-119457419D02*
X144952381Y-119409800D01*
X144952381Y-119409800D02*
X144857143Y-119314561D01*
X144857143Y-119314561D02*
X144809524Y-119219323D01*
X144809524Y-119219323D02*
X144761905Y-119028847D01*
X144761905Y-119028847D02*
X144761905Y-118885990D01*
X144761905Y-118885990D02*
X144809524Y-118695514D01*
X144809524Y-118695514D02*
X144857143Y-118600276D01*
X144857143Y-118600276D02*
X144952381Y-118505038D01*
X144952381Y-118505038D02*
X145095238Y-118457419D01*
X145095238Y-118457419D02*
X145190476Y-118457419D01*
X145190476Y-118457419D02*
X145333333Y-118505038D01*
X145333333Y-118505038D02*
X145380952Y-118552657D01*
X146095238Y-118457419D02*
X146095238Y-119171704D01*
X146095238Y-119171704D02*
X146047619Y-119314561D01*
X146047619Y-119314561D02*
X145952381Y-119409800D01*
X145952381Y-119409800D02*
X145809524Y-119457419D01*
X145809524Y-119457419D02*
X145714286Y-119457419D01*
X147047619Y-119457419D02*
X146571429Y-119457419D01*
X146571429Y-119457419D02*
X146571429Y-118457419D01*
X147952381Y-119362180D02*
X147904762Y-119409800D01*
X147904762Y-119409800D02*
X147761905Y-119457419D01*
X147761905Y-119457419D02*
X147666667Y-119457419D01*
X147666667Y-119457419D02*
X147523810Y-119409800D01*
X147523810Y-119409800D02*
X147428572Y-119314561D01*
X147428572Y-119314561D02*
X147380953Y-119219323D01*
X147380953Y-119219323D02*
X147333334Y-119028847D01*
X147333334Y-119028847D02*
X147333334Y-118885990D01*
X147333334Y-118885990D02*
X147380953Y-118695514D01*
X147380953Y-118695514D02*
X147428572Y-118600276D01*
X147428572Y-118600276D02*
X147523810Y-118505038D01*
X147523810Y-118505038D02*
X147666667Y-118457419D01*
X147666667Y-118457419D02*
X147761905Y-118457419D01*
X147761905Y-118457419D02*
X147904762Y-118505038D01*
X147904762Y-118505038D02*
X147952381Y-118552657D01*
X133014219Y-89571428D02*
X133014219Y-89952380D01*
X133347552Y-89714285D02*
X132490410Y-89714285D01*
X132490410Y-89714285D02*
X132395172Y-89761904D01*
X132395172Y-89761904D02*
X132347552Y-89857142D01*
X132347552Y-89857142D02*
X132347552Y-89952380D01*
X132347552Y-90285714D02*
X133347552Y-90285714D01*
X132347552Y-90714285D02*
X132871362Y-90714285D01*
X132871362Y-90714285D02*
X132966600Y-90666666D01*
X132966600Y-90666666D02*
X133014219Y-90571428D01*
X133014219Y-90571428D02*
X133014219Y-90428571D01*
X133014219Y-90428571D02*
X132966600Y-90333333D01*
X132966600Y-90333333D02*
X132918981Y-90285714D01*
X132347552Y-91190476D02*
X133014219Y-91190476D01*
X133347552Y-91190476D02*
X133299933Y-91142857D01*
X133299933Y-91142857D02*
X133252314Y-91190476D01*
X133252314Y-91190476D02*
X133299933Y-91238095D01*
X133299933Y-91238095D02*
X133347552Y-91190476D01*
X133347552Y-91190476D02*
X133252314Y-91190476D01*
X132395172Y-92095237D02*
X132347552Y-91999999D01*
X132347552Y-91999999D02*
X132347552Y-91809523D01*
X132347552Y-91809523D02*
X132395172Y-91714285D01*
X132395172Y-91714285D02*
X132442791Y-91666666D01*
X132442791Y-91666666D02*
X132538029Y-91619047D01*
X132538029Y-91619047D02*
X132823743Y-91619047D01*
X132823743Y-91619047D02*
X132918981Y-91666666D01*
X132918981Y-91666666D02*
X132966600Y-91714285D01*
X132966600Y-91714285D02*
X133014219Y-91809523D01*
X133014219Y-91809523D02*
X133014219Y-91999999D01*
X133014219Y-91999999D02*
X132966600Y-92095237D01*
X132347552Y-92523809D02*
X133347552Y-92523809D01*
X132728505Y-92619047D02*
X132347552Y-92904761D01*
X133014219Y-92904761D02*
X132633267Y-92523809D01*
X133014219Y-93333333D02*
X132347552Y-93333333D01*
X132918981Y-93333333D02*
X132966600Y-93380952D01*
X132966600Y-93380952D02*
X133014219Y-93476190D01*
X133014219Y-93476190D02*
X133014219Y-93619047D01*
X133014219Y-93619047D02*
X132966600Y-93714285D01*
X132966600Y-93714285D02*
X132871362Y-93761904D01*
X132871362Y-93761904D02*
X132347552Y-93761904D01*
X132395172Y-94619047D02*
X132347552Y-94523809D01*
X132347552Y-94523809D02*
X132347552Y-94333333D01*
X132347552Y-94333333D02*
X132395172Y-94238095D01*
X132395172Y-94238095D02*
X132490410Y-94190476D01*
X132490410Y-94190476D02*
X132871362Y-94190476D01*
X132871362Y-94190476D02*
X132966600Y-94238095D01*
X132966600Y-94238095D02*
X133014219Y-94333333D01*
X133014219Y-94333333D02*
X133014219Y-94523809D01*
X133014219Y-94523809D02*
X132966600Y-94619047D01*
X132966600Y-94619047D02*
X132871362Y-94666666D01*
X132871362Y-94666666D02*
X132776124Y-94666666D01*
X132776124Y-94666666D02*
X132680886Y-94190476D01*
X132395172Y-95047619D02*
X132347552Y-95142857D01*
X132347552Y-95142857D02*
X132347552Y-95333333D01*
X132347552Y-95333333D02*
X132395172Y-95428571D01*
X132395172Y-95428571D02*
X132490410Y-95476190D01*
X132490410Y-95476190D02*
X132538029Y-95476190D01*
X132538029Y-95476190D02*
X132633267Y-95428571D01*
X132633267Y-95428571D02*
X132680886Y-95333333D01*
X132680886Y-95333333D02*
X132680886Y-95190476D01*
X132680886Y-95190476D02*
X132728505Y-95095238D01*
X132728505Y-95095238D02*
X132823743Y-95047619D01*
X132823743Y-95047619D02*
X132871362Y-95047619D01*
X132871362Y-95047619D02*
X132966600Y-95095238D01*
X132966600Y-95095238D02*
X133014219Y-95190476D01*
X133014219Y-95190476D02*
X133014219Y-95333333D01*
X133014219Y-95333333D02*
X132966600Y-95428571D01*
X132395172Y-95857143D02*
X132347552Y-95952381D01*
X132347552Y-95952381D02*
X132347552Y-96142857D01*
X132347552Y-96142857D02*
X132395172Y-96238095D01*
X132395172Y-96238095D02*
X132490410Y-96285714D01*
X132490410Y-96285714D02*
X132538029Y-96285714D01*
X132538029Y-96285714D02*
X132633267Y-96238095D01*
X132633267Y-96238095D02*
X132680886Y-96142857D01*
X132680886Y-96142857D02*
X132680886Y-96000000D01*
X132680886Y-96000000D02*
X132728505Y-95904762D01*
X132728505Y-95904762D02*
X132823743Y-95857143D01*
X132823743Y-95857143D02*
X132871362Y-95857143D01*
X132871362Y-95857143D02*
X132966600Y-95904762D01*
X132966600Y-95904762D02*
X133014219Y-96000000D01*
X133014219Y-96000000D02*
X133014219Y-96142857D01*
X133014219Y-96142857D02*
X132966600Y-96238095D01*
X132395172Y-97428572D02*
X132347552Y-97523810D01*
X132347552Y-97523810D02*
X132347552Y-97714286D01*
X132347552Y-97714286D02*
X132395172Y-97809524D01*
X132395172Y-97809524D02*
X132490410Y-97857143D01*
X132490410Y-97857143D02*
X132538029Y-97857143D01*
X132538029Y-97857143D02*
X132633267Y-97809524D01*
X132633267Y-97809524D02*
X132680886Y-97714286D01*
X132680886Y-97714286D02*
X132680886Y-97571429D01*
X132680886Y-97571429D02*
X132728505Y-97476191D01*
X132728505Y-97476191D02*
X132823743Y-97428572D01*
X132823743Y-97428572D02*
X132871362Y-97428572D01*
X132871362Y-97428572D02*
X132966600Y-97476191D01*
X132966600Y-97476191D02*
X133014219Y-97571429D01*
X133014219Y-97571429D02*
X133014219Y-97714286D01*
X133014219Y-97714286D02*
X132966600Y-97809524D01*
X132347552Y-98285715D02*
X133347552Y-98285715D01*
X132347552Y-98714286D02*
X132871362Y-98714286D01*
X132871362Y-98714286D02*
X132966600Y-98666667D01*
X132966600Y-98666667D02*
X133014219Y-98571429D01*
X133014219Y-98571429D02*
X133014219Y-98428572D01*
X133014219Y-98428572D02*
X132966600Y-98333334D01*
X132966600Y-98333334D02*
X132918981Y-98285715D01*
X132347552Y-99333334D02*
X132395172Y-99238096D01*
X132395172Y-99238096D02*
X132442791Y-99190477D01*
X132442791Y-99190477D02*
X132538029Y-99142858D01*
X132538029Y-99142858D02*
X132823743Y-99142858D01*
X132823743Y-99142858D02*
X132918981Y-99190477D01*
X132918981Y-99190477D02*
X132966600Y-99238096D01*
X132966600Y-99238096D02*
X133014219Y-99333334D01*
X133014219Y-99333334D02*
X133014219Y-99476191D01*
X133014219Y-99476191D02*
X132966600Y-99571429D01*
X132966600Y-99571429D02*
X132918981Y-99619048D01*
X132918981Y-99619048D02*
X132823743Y-99666667D01*
X132823743Y-99666667D02*
X132538029Y-99666667D01*
X132538029Y-99666667D02*
X132442791Y-99619048D01*
X132442791Y-99619048D02*
X132395172Y-99571429D01*
X132395172Y-99571429D02*
X132347552Y-99476191D01*
X132347552Y-99476191D02*
X132347552Y-99333334D01*
X133014219Y-100523810D02*
X132347552Y-100523810D01*
X133014219Y-100095239D02*
X132490410Y-100095239D01*
X132490410Y-100095239D02*
X132395172Y-100142858D01*
X132395172Y-100142858D02*
X132347552Y-100238096D01*
X132347552Y-100238096D02*
X132347552Y-100380953D01*
X132347552Y-100380953D02*
X132395172Y-100476191D01*
X132395172Y-100476191D02*
X132442791Y-100523810D01*
X132347552Y-101142858D02*
X132395172Y-101047620D01*
X132395172Y-101047620D02*
X132490410Y-101000001D01*
X132490410Y-101000001D02*
X133347552Y-101000001D01*
X132347552Y-101952382D02*
X133347552Y-101952382D01*
X132395172Y-101952382D02*
X132347552Y-101857144D01*
X132347552Y-101857144D02*
X132347552Y-101666668D01*
X132347552Y-101666668D02*
X132395172Y-101571430D01*
X132395172Y-101571430D02*
X132442791Y-101523811D01*
X132442791Y-101523811D02*
X132538029Y-101476192D01*
X132538029Y-101476192D02*
X132823743Y-101476192D01*
X132823743Y-101476192D02*
X132918981Y-101523811D01*
X132918981Y-101523811D02*
X132966600Y-101571430D01*
X132966600Y-101571430D02*
X133014219Y-101666668D01*
X133014219Y-101666668D02*
X133014219Y-101857144D01*
X133014219Y-101857144D02*
X132966600Y-101952382D01*
X132347552Y-103190478D02*
X133347552Y-103190478D01*
X132966600Y-103190478D02*
X133014219Y-103285716D01*
X133014219Y-103285716D02*
X133014219Y-103476192D01*
X133014219Y-103476192D02*
X132966600Y-103571430D01*
X132966600Y-103571430D02*
X132918981Y-103619049D01*
X132918981Y-103619049D02*
X132823743Y-103666668D01*
X132823743Y-103666668D02*
X132538029Y-103666668D01*
X132538029Y-103666668D02*
X132442791Y-103619049D01*
X132442791Y-103619049D02*
X132395172Y-103571430D01*
X132395172Y-103571430D02*
X132347552Y-103476192D01*
X132347552Y-103476192D02*
X132347552Y-103285716D01*
X132347552Y-103285716D02*
X132395172Y-103190478D01*
X132395172Y-104476192D02*
X132347552Y-104380954D01*
X132347552Y-104380954D02*
X132347552Y-104190478D01*
X132347552Y-104190478D02*
X132395172Y-104095240D01*
X132395172Y-104095240D02*
X132490410Y-104047621D01*
X132490410Y-104047621D02*
X132871362Y-104047621D01*
X132871362Y-104047621D02*
X132966600Y-104095240D01*
X132966600Y-104095240D02*
X133014219Y-104190478D01*
X133014219Y-104190478D02*
X133014219Y-104380954D01*
X133014219Y-104380954D02*
X132966600Y-104476192D01*
X132966600Y-104476192D02*
X132871362Y-104523811D01*
X132871362Y-104523811D02*
X132776124Y-104523811D01*
X132776124Y-104523811D02*
X132680886Y-104047621D01*
X132347552Y-106238097D02*
X132347552Y-105666669D01*
X132347552Y-105952383D02*
X133347552Y-105952383D01*
X133347552Y-105952383D02*
X133204695Y-105857145D01*
X133204695Y-105857145D02*
X133109457Y-105761907D01*
X133109457Y-105761907D02*
X133061838Y-105666669D01*
X132442791Y-106666669D02*
X132395172Y-106714288D01*
X132395172Y-106714288D02*
X132347552Y-106666669D01*
X132347552Y-106666669D02*
X132395172Y-106619050D01*
X132395172Y-106619050D02*
X132442791Y-106666669D01*
X132442791Y-106666669D02*
X132347552Y-106666669D01*
X133347552Y-107571430D02*
X133347552Y-107380954D01*
X133347552Y-107380954D02*
X133299933Y-107285716D01*
X133299933Y-107285716D02*
X133252314Y-107238097D01*
X133252314Y-107238097D02*
X133109457Y-107142859D01*
X133109457Y-107142859D02*
X132918981Y-107095240D01*
X132918981Y-107095240D02*
X132538029Y-107095240D01*
X132538029Y-107095240D02*
X132442791Y-107142859D01*
X132442791Y-107142859D02*
X132395172Y-107190478D01*
X132395172Y-107190478D02*
X132347552Y-107285716D01*
X132347552Y-107285716D02*
X132347552Y-107476192D01*
X132347552Y-107476192D02*
X132395172Y-107571430D01*
X132395172Y-107571430D02*
X132442791Y-107619049D01*
X132442791Y-107619049D02*
X132538029Y-107666668D01*
X132538029Y-107666668D02*
X132776124Y-107666668D01*
X132776124Y-107666668D02*
X132871362Y-107619049D01*
X132871362Y-107619049D02*
X132918981Y-107571430D01*
X132918981Y-107571430D02*
X132966600Y-107476192D01*
X132966600Y-107476192D02*
X132966600Y-107285716D01*
X132966600Y-107285716D02*
X132918981Y-107190478D01*
X132918981Y-107190478D02*
X132871362Y-107142859D01*
X132871362Y-107142859D02*
X132776124Y-107095240D01*
X132347552Y-108095240D02*
X133014219Y-108095240D01*
X132918981Y-108095240D02*
X132966600Y-108142859D01*
X132966600Y-108142859D02*
X133014219Y-108238097D01*
X133014219Y-108238097D02*
X133014219Y-108380954D01*
X133014219Y-108380954D02*
X132966600Y-108476192D01*
X132966600Y-108476192D02*
X132871362Y-108523811D01*
X132871362Y-108523811D02*
X132347552Y-108523811D01*
X132871362Y-108523811D02*
X132966600Y-108571430D01*
X132966600Y-108571430D02*
X133014219Y-108666668D01*
X133014219Y-108666668D02*
X133014219Y-108809525D01*
X133014219Y-108809525D02*
X132966600Y-108904764D01*
X132966600Y-108904764D02*
X132871362Y-108952383D01*
X132871362Y-108952383D02*
X132347552Y-108952383D01*
X132347552Y-109428573D02*
X133014219Y-109428573D01*
X132918981Y-109428573D02*
X132966600Y-109476192D01*
X132966600Y-109476192D02*
X133014219Y-109571430D01*
X133014219Y-109571430D02*
X133014219Y-109714287D01*
X133014219Y-109714287D02*
X132966600Y-109809525D01*
X132966600Y-109809525D02*
X132871362Y-109857144D01*
X132871362Y-109857144D02*
X132347552Y-109857144D01*
X132871362Y-109857144D02*
X132966600Y-109904763D01*
X132966600Y-109904763D02*
X133014219Y-110000001D01*
X133014219Y-110000001D02*
X133014219Y-110142858D01*
X133014219Y-110142858D02*
X132966600Y-110238097D01*
X132966600Y-110238097D02*
X132871362Y-110285716D01*
X132871362Y-110285716D02*
X132347552Y-110285716D01*
X131404275Y-92857141D02*
X130737608Y-92857141D01*
X131404275Y-92428570D02*
X130880466Y-92428570D01*
X130880466Y-92428570D02*
X130785228Y-92476189D01*
X130785228Y-92476189D02*
X130737608Y-92571427D01*
X130737608Y-92571427D02*
X130737608Y-92714284D01*
X130737608Y-92714284D02*
X130785228Y-92809522D01*
X130785228Y-92809522D02*
X130832847Y-92857141D01*
X130785228Y-93285713D02*
X130737608Y-93380951D01*
X130737608Y-93380951D02*
X130737608Y-93571427D01*
X130737608Y-93571427D02*
X130785228Y-93666665D01*
X130785228Y-93666665D02*
X130880466Y-93714284D01*
X130880466Y-93714284D02*
X130928085Y-93714284D01*
X130928085Y-93714284D02*
X131023323Y-93666665D01*
X131023323Y-93666665D02*
X131070942Y-93571427D01*
X131070942Y-93571427D02*
X131070942Y-93428570D01*
X131070942Y-93428570D02*
X131118561Y-93333332D01*
X131118561Y-93333332D02*
X131213799Y-93285713D01*
X131213799Y-93285713D02*
X131261418Y-93285713D01*
X131261418Y-93285713D02*
X131356656Y-93333332D01*
X131356656Y-93333332D02*
X131404275Y-93428570D01*
X131404275Y-93428570D02*
X131404275Y-93571427D01*
X131404275Y-93571427D02*
X131356656Y-93666665D01*
X130785228Y-94523808D02*
X130737608Y-94428570D01*
X130737608Y-94428570D02*
X130737608Y-94238094D01*
X130737608Y-94238094D02*
X130785228Y-94142856D01*
X130785228Y-94142856D02*
X130880466Y-94095237D01*
X130880466Y-94095237D02*
X131261418Y-94095237D01*
X131261418Y-94095237D02*
X131356656Y-94142856D01*
X131356656Y-94142856D02*
X131404275Y-94238094D01*
X131404275Y-94238094D02*
X131404275Y-94428570D01*
X131404275Y-94428570D02*
X131356656Y-94523808D01*
X131356656Y-94523808D02*
X131261418Y-94571427D01*
X131261418Y-94571427D02*
X131166180Y-94571427D01*
X131166180Y-94571427D02*
X131070942Y-94095237D01*
X131404275Y-95619047D02*
X131404275Y-95999999D01*
X131737608Y-95761904D02*
X130880466Y-95761904D01*
X130880466Y-95761904D02*
X130785228Y-95809523D01*
X130785228Y-95809523D02*
X130737608Y-95904761D01*
X130737608Y-95904761D02*
X130737608Y-95999999D01*
X131404275Y-96238095D02*
X130737608Y-96428571D01*
X130737608Y-96428571D02*
X131213799Y-96619047D01*
X131213799Y-96619047D02*
X130737608Y-96809523D01*
X130737608Y-96809523D02*
X131404275Y-96999999D01*
X130737608Y-97523809D02*
X130785228Y-97428571D01*
X130785228Y-97428571D02*
X130832847Y-97380952D01*
X130832847Y-97380952D02*
X130928085Y-97333333D01*
X130928085Y-97333333D02*
X131213799Y-97333333D01*
X131213799Y-97333333D02*
X131309037Y-97380952D01*
X131309037Y-97380952D02*
X131356656Y-97428571D01*
X131356656Y-97428571D02*
X131404275Y-97523809D01*
X131404275Y-97523809D02*
X131404275Y-97666666D01*
X131404275Y-97666666D02*
X131356656Y-97761904D01*
X131356656Y-97761904D02*
X131309037Y-97809523D01*
X131309037Y-97809523D02*
X131213799Y-97857142D01*
X131213799Y-97857142D02*
X130928085Y-97857142D01*
X130928085Y-97857142D02*
X130832847Y-97809523D01*
X130832847Y-97809523D02*
X130785228Y-97761904D01*
X130785228Y-97761904D02*
X130737608Y-97666666D01*
X130737608Y-97666666D02*
X130737608Y-97523809D01*
X131404275Y-98904762D02*
X131404275Y-99285714D01*
X130737608Y-99047619D02*
X131594751Y-99047619D01*
X131594751Y-99047619D02*
X131689989Y-99095238D01*
X131689989Y-99095238D02*
X131737608Y-99190476D01*
X131737608Y-99190476D02*
X131737608Y-99285714D01*
X130737608Y-99761905D02*
X130785228Y-99666667D01*
X130785228Y-99666667D02*
X130832847Y-99619048D01*
X130832847Y-99619048D02*
X130928085Y-99571429D01*
X130928085Y-99571429D02*
X131213799Y-99571429D01*
X131213799Y-99571429D02*
X131309037Y-99619048D01*
X131309037Y-99619048D02*
X131356656Y-99666667D01*
X131356656Y-99666667D02*
X131404275Y-99761905D01*
X131404275Y-99761905D02*
X131404275Y-99904762D01*
X131404275Y-99904762D02*
X131356656Y-100000000D01*
X131356656Y-100000000D02*
X131309037Y-100047619D01*
X131309037Y-100047619D02*
X131213799Y-100095238D01*
X131213799Y-100095238D02*
X130928085Y-100095238D01*
X130928085Y-100095238D02*
X130832847Y-100047619D01*
X130832847Y-100047619D02*
X130785228Y-100000000D01*
X130785228Y-100000000D02*
X130737608Y-99904762D01*
X130737608Y-99904762D02*
X130737608Y-99761905D01*
X130737608Y-100523810D02*
X131404275Y-100523810D01*
X131213799Y-100523810D02*
X131309037Y-100571429D01*
X131309037Y-100571429D02*
X131356656Y-100619048D01*
X131356656Y-100619048D02*
X131404275Y-100714286D01*
X131404275Y-100714286D02*
X131404275Y-100809524D01*
X130785228Y-102333334D02*
X130737608Y-102238096D01*
X130737608Y-102238096D02*
X130737608Y-102047620D01*
X130737608Y-102047620D02*
X130785228Y-101952382D01*
X130785228Y-101952382D02*
X130832847Y-101904763D01*
X130832847Y-101904763D02*
X130928085Y-101857144D01*
X130928085Y-101857144D02*
X131213799Y-101857144D01*
X131213799Y-101857144D02*
X131309037Y-101904763D01*
X131309037Y-101904763D02*
X131356656Y-101952382D01*
X131356656Y-101952382D02*
X131404275Y-102047620D01*
X131404275Y-102047620D02*
X131404275Y-102238096D01*
X131404275Y-102238096D02*
X131356656Y-102333334D01*
X130737608Y-102761906D02*
X131404275Y-102761906D01*
X131213799Y-102761906D02*
X131309037Y-102809525D01*
X131309037Y-102809525D02*
X131356656Y-102857144D01*
X131356656Y-102857144D02*
X131404275Y-102952382D01*
X131404275Y-102952382D02*
X131404275Y-103047620D01*
X131642370Y-103333335D02*
X131689989Y-103380954D01*
X131689989Y-103380954D02*
X131737608Y-103476192D01*
X131737608Y-103476192D02*
X131737608Y-103714287D01*
X131737608Y-103714287D02*
X131689989Y-103809525D01*
X131689989Y-103809525D02*
X131642370Y-103857144D01*
X131642370Y-103857144D02*
X131547132Y-103904763D01*
X131547132Y-103904763D02*
X131451894Y-103904763D01*
X131451894Y-103904763D02*
X131309037Y-103857144D01*
X131309037Y-103857144D02*
X130737608Y-103285716D01*
X130737608Y-103285716D02*
X130737608Y-103904763D01*
X131737608Y-104523811D02*
X131737608Y-104619049D01*
X131737608Y-104619049D02*
X131689989Y-104714287D01*
X131689989Y-104714287D02*
X131642370Y-104761906D01*
X131642370Y-104761906D02*
X131547132Y-104809525D01*
X131547132Y-104809525D02*
X131356656Y-104857144D01*
X131356656Y-104857144D02*
X131118561Y-104857144D01*
X131118561Y-104857144D02*
X130928085Y-104809525D01*
X130928085Y-104809525D02*
X130832847Y-104761906D01*
X130832847Y-104761906D02*
X130785228Y-104714287D01*
X130785228Y-104714287D02*
X130737608Y-104619049D01*
X130737608Y-104619049D02*
X130737608Y-104523811D01*
X130737608Y-104523811D02*
X130785228Y-104428573D01*
X130785228Y-104428573D02*
X130832847Y-104380954D01*
X130832847Y-104380954D02*
X130928085Y-104333335D01*
X130928085Y-104333335D02*
X131118561Y-104285716D01*
X131118561Y-104285716D02*
X131356656Y-104285716D01*
X131356656Y-104285716D02*
X131547132Y-104333335D01*
X131547132Y-104333335D02*
X131642370Y-104380954D01*
X131642370Y-104380954D02*
X131689989Y-104428573D01*
X131689989Y-104428573D02*
X131737608Y-104523811D01*
X131737608Y-105190478D02*
X131737608Y-105809525D01*
X131737608Y-105809525D02*
X131356656Y-105476192D01*
X131356656Y-105476192D02*
X131356656Y-105619049D01*
X131356656Y-105619049D02*
X131309037Y-105714287D01*
X131309037Y-105714287D02*
X131261418Y-105761906D01*
X131261418Y-105761906D02*
X131166180Y-105809525D01*
X131166180Y-105809525D02*
X130928085Y-105809525D01*
X130928085Y-105809525D02*
X130832847Y-105761906D01*
X130832847Y-105761906D02*
X130785228Y-105714287D01*
X130785228Y-105714287D02*
X130737608Y-105619049D01*
X130737608Y-105619049D02*
X130737608Y-105333335D01*
X130737608Y-105333335D02*
X130785228Y-105238097D01*
X130785228Y-105238097D02*
X130832847Y-105190478D01*
X131642370Y-106190478D02*
X131689989Y-106238097D01*
X131689989Y-106238097D02*
X131737608Y-106333335D01*
X131737608Y-106333335D02*
X131737608Y-106571430D01*
X131737608Y-106571430D02*
X131689989Y-106666668D01*
X131689989Y-106666668D02*
X131642370Y-106714287D01*
X131642370Y-106714287D02*
X131547132Y-106761906D01*
X131547132Y-106761906D02*
X131451894Y-106761906D01*
X131451894Y-106761906D02*
X131309037Y-106714287D01*
X131309037Y-106714287D02*
X130737608Y-106142859D01*
X130737608Y-106142859D02*
X130737608Y-106761906D01*
X130832847Y-107333335D02*
X130785228Y-107380954D01*
X130785228Y-107380954D02*
X130737608Y-107333335D01*
X130737608Y-107333335D02*
X130785228Y-107285716D01*
X130785228Y-107285716D02*
X130832847Y-107333335D01*
X130832847Y-107333335D02*
X130737608Y-107333335D01*
X131689989Y-107142859D02*
X131737608Y-107238097D01*
X131737608Y-107238097D02*
X131737608Y-107476192D01*
X131737608Y-107476192D02*
X131689989Y-107571430D01*
X131689989Y-107571430D02*
X131594751Y-107619049D01*
X131594751Y-107619049D02*
X131499513Y-107619049D01*
X131499513Y-107619049D02*
X131404275Y-107571430D01*
X131404275Y-107571430D02*
X131356656Y-107523811D01*
X131356656Y-107523811D02*
X131309037Y-107428573D01*
X131309037Y-107428573D02*
X131261418Y-107380954D01*
X131261418Y-107380954D02*
X131166180Y-107333335D01*
X131166180Y-107333335D02*
X131118561Y-107333335D01*
D11*
X158857142Y-86689750D02*
X158857142Y-84689750D01*
X158857142Y-85451654D02*
X159047618Y-85356416D01*
X159047618Y-85356416D02*
X159428571Y-85356416D01*
X159428571Y-85356416D02*
X159619047Y-85451654D01*
X159619047Y-85451654D02*
X159714285Y-85546892D01*
X159714285Y-85546892D02*
X159809523Y-85737369D01*
X159809523Y-85737369D02*
X159809523Y-86308797D01*
X159809523Y-86308797D02*
X159714285Y-86499273D01*
X159714285Y-86499273D02*
X159619047Y-86594512D01*
X159619047Y-86594512D02*
X159428571Y-86689750D01*
X159428571Y-86689750D02*
X159047618Y-86689750D01*
X159047618Y-86689750D02*
X158857142Y-86594512D01*
X161523809Y-85356416D02*
X161523809Y-86689750D01*
X160666666Y-85356416D02*
X160666666Y-86404035D01*
X160666666Y-86404035D02*
X160761904Y-86594512D01*
X160761904Y-86594512D02*
X160952380Y-86689750D01*
X160952380Y-86689750D02*
X161238095Y-86689750D01*
X161238095Y-86689750D02*
X161428571Y-86594512D01*
X161428571Y-86594512D02*
X161523809Y-86499273D01*
X162380952Y-86594512D02*
X162571428Y-86689750D01*
X162571428Y-86689750D02*
X162952380Y-86689750D01*
X162952380Y-86689750D02*
X163142857Y-86594512D01*
X163142857Y-86594512D02*
X163238095Y-86404035D01*
X163238095Y-86404035D02*
X163238095Y-86308797D01*
X163238095Y-86308797D02*
X163142857Y-86118321D01*
X163142857Y-86118321D02*
X162952380Y-86023083D01*
X162952380Y-86023083D02*
X162666666Y-86023083D01*
X162666666Y-86023083D02*
X162476190Y-85927845D01*
X162476190Y-85927845D02*
X162380952Y-85737369D01*
X162380952Y-85737369D02*
X162380952Y-85642131D01*
X162380952Y-85642131D02*
X162476190Y-85451654D01*
X162476190Y-85451654D02*
X162666666Y-85356416D01*
X162666666Y-85356416D02*
X162952380Y-85356416D01*
X162952380Y-85356416D02*
X163142857Y-85451654D01*
X164095238Y-86689750D02*
X164095238Y-85356416D01*
X164095238Y-84689750D02*
X164000000Y-84784988D01*
X164000000Y-84784988D02*
X164095238Y-84880226D01*
X164095238Y-84880226D02*
X164190476Y-84784988D01*
X164190476Y-84784988D02*
X164095238Y-84689750D01*
X164095238Y-84689750D02*
X164095238Y-84880226D01*
X165904762Y-86594512D02*
X165714286Y-86689750D01*
X165714286Y-86689750D02*
X165333333Y-86689750D01*
X165333333Y-86689750D02*
X165142857Y-86594512D01*
X165142857Y-86594512D02*
X165047619Y-86499273D01*
X165047619Y-86499273D02*
X164952381Y-86308797D01*
X164952381Y-86308797D02*
X164952381Y-85737369D01*
X164952381Y-85737369D02*
X165047619Y-85546892D01*
X165047619Y-85546892D02*
X165142857Y-85451654D01*
X165142857Y-85451654D02*
X165333333Y-85356416D01*
X165333333Y-85356416D02*
X165714286Y-85356416D01*
X165714286Y-85356416D02*
X165904762Y-85451654D01*
X167619048Y-86689750D02*
X167619048Y-85642131D01*
X167619048Y-85642131D02*
X167523810Y-85451654D01*
X167523810Y-85451654D02*
X167333334Y-85356416D01*
X167333334Y-85356416D02*
X166952381Y-85356416D01*
X166952381Y-85356416D02*
X166761905Y-85451654D01*
X167619048Y-86594512D02*
X167428572Y-86689750D01*
X167428572Y-86689750D02*
X166952381Y-86689750D01*
X166952381Y-86689750D02*
X166761905Y-86594512D01*
X166761905Y-86594512D02*
X166666667Y-86404035D01*
X166666667Y-86404035D02*
X166666667Y-86213559D01*
X166666667Y-86213559D02*
X166761905Y-86023083D01*
X166761905Y-86023083D02*
X166952381Y-85927845D01*
X166952381Y-85927845D02*
X167428572Y-85927845D01*
X167428572Y-85927845D02*
X167619048Y-85832607D01*
X168571429Y-86689750D02*
X168571429Y-85356416D01*
X168571429Y-85737369D02*
X168666667Y-85546892D01*
X168666667Y-85546892D02*
X168761905Y-85451654D01*
X168761905Y-85451654D02*
X168952381Y-85356416D01*
X168952381Y-85356416D02*
X169142858Y-85356416D01*
X170666667Y-86689750D02*
X170666667Y-84689750D01*
X170666667Y-86594512D02*
X170476191Y-86689750D01*
X170476191Y-86689750D02*
X170095238Y-86689750D01*
X170095238Y-86689750D02*
X169904762Y-86594512D01*
X169904762Y-86594512D02*
X169809524Y-86499273D01*
X169809524Y-86499273D02*
X169714286Y-86308797D01*
X169714286Y-86308797D02*
X169714286Y-85737369D01*
X169714286Y-85737369D02*
X169809524Y-85546892D01*
X169809524Y-85546892D02*
X169904762Y-85451654D01*
X169904762Y-85451654D02*
X170095238Y-85356416D01*
X170095238Y-85356416D02*
X170476191Y-85356416D01*
X170476191Y-85356416D02*
X170666667Y-85451654D01*
X171619048Y-85927845D02*
X173142858Y-85927845D01*
X174095238Y-86689750D02*
X174095238Y-85356416D01*
X174095238Y-85546892D02*
X174190476Y-85451654D01*
X174190476Y-85451654D02*
X174380952Y-85356416D01*
X174380952Y-85356416D02*
X174666667Y-85356416D01*
X174666667Y-85356416D02*
X174857143Y-85451654D01*
X174857143Y-85451654D02*
X174952381Y-85642131D01*
X174952381Y-85642131D02*
X174952381Y-86689750D01*
X174952381Y-85642131D02*
X175047619Y-85451654D01*
X175047619Y-85451654D02*
X175238095Y-85356416D01*
X175238095Y-85356416D02*
X175523809Y-85356416D01*
X175523809Y-85356416D02*
X175714286Y-85451654D01*
X175714286Y-85451654D02*
X175809524Y-85642131D01*
X175809524Y-85642131D02*
X175809524Y-86689750D01*
X176761905Y-86689750D02*
X176761905Y-85356416D01*
X176761905Y-84689750D02*
X176666667Y-84784988D01*
X176666667Y-84784988D02*
X176761905Y-84880226D01*
X176761905Y-84880226D02*
X176857143Y-84784988D01*
X176857143Y-84784988D02*
X176761905Y-84689750D01*
X176761905Y-84689750D02*
X176761905Y-84880226D01*
X178571429Y-86689750D02*
X178571429Y-84689750D01*
X178571429Y-86594512D02*
X178380953Y-86689750D01*
X178380953Y-86689750D02*
X178000000Y-86689750D01*
X178000000Y-86689750D02*
X177809524Y-86594512D01*
X177809524Y-86594512D02*
X177714286Y-86499273D01*
X177714286Y-86499273D02*
X177619048Y-86308797D01*
X177619048Y-86308797D02*
X177619048Y-85737369D01*
X177619048Y-85737369D02*
X177714286Y-85546892D01*
X177714286Y-85546892D02*
X177809524Y-85451654D01*
X177809524Y-85451654D02*
X178000000Y-85356416D01*
X178000000Y-85356416D02*
X178380953Y-85356416D01*
X178380953Y-85356416D02*
X178571429Y-85451654D01*
X180380953Y-86689750D02*
X180380953Y-84689750D01*
X180380953Y-86594512D02*
X180190477Y-86689750D01*
X180190477Y-86689750D02*
X179809524Y-86689750D01*
X179809524Y-86689750D02*
X179619048Y-86594512D01*
X179619048Y-86594512D02*
X179523810Y-86499273D01*
X179523810Y-86499273D02*
X179428572Y-86308797D01*
X179428572Y-86308797D02*
X179428572Y-85737369D01*
X179428572Y-85737369D02*
X179523810Y-85546892D01*
X179523810Y-85546892D02*
X179619048Y-85451654D01*
X179619048Y-85451654D02*
X179809524Y-85356416D01*
X179809524Y-85356416D02*
X180190477Y-85356416D01*
X180190477Y-85356416D02*
X180380953Y-85451654D01*
X181619048Y-86689750D02*
X181428572Y-86594512D01*
X181428572Y-86594512D02*
X181333334Y-86404035D01*
X181333334Y-86404035D02*
X181333334Y-84689750D01*
X183142858Y-86594512D02*
X182952382Y-86689750D01*
X182952382Y-86689750D02*
X182571429Y-86689750D01*
X182571429Y-86689750D02*
X182380953Y-86594512D01*
X182380953Y-86594512D02*
X182285715Y-86404035D01*
X182285715Y-86404035D02*
X182285715Y-85642131D01*
X182285715Y-85642131D02*
X182380953Y-85451654D01*
X182380953Y-85451654D02*
X182571429Y-85356416D01*
X182571429Y-85356416D02*
X182952382Y-85356416D01*
X182952382Y-85356416D02*
X183142858Y-85451654D01*
X183142858Y-85451654D02*
X183238096Y-85642131D01*
X183238096Y-85642131D02*
X183238096Y-85832607D01*
X183238096Y-85832607D02*
X182285715Y-86023083D01*
X163428570Y-88957257D02*
X163333332Y-88862019D01*
X163333332Y-88862019D02*
X163142856Y-88766780D01*
X163142856Y-88766780D02*
X162952380Y-88766780D01*
X162952380Y-88766780D02*
X162761904Y-88862019D01*
X162761904Y-88862019D02*
X162666665Y-88957257D01*
X162666665Y-88957257D02*
X162571427Y-89147733D01*
X162571427Y-89147733D02*
X162571427Y-89338209D01*
X162571427Y-89338209D02*
X162666665Y-89528685D01*
X162666665Y-89528685D02*
X162761904Y-89623923D01*
X162761904Y-89623923D02*
X162952380Y-89719161D01*
X162952380Y-89719161D02*
X163142856Y-89719161D01*
X163142856Y-89719161D02*
X163333332Y-89623923D01*
X163333332Y-89623923D02*
X163428570Y-89528685D01*
X163428570Y-88766780D02*
X163428570Y-89528685D01*
X163428570Y-89528685D02*
X163523808Y-89623923D01*
X163523808Y-89623923D02*
X163619046Y-89623923D01*
X163619046Y-89623923D02*
X163809523Y-89528685D01*
X163809523Y-89528685D02*
X163904761Y-89338209D01*
X163904761Y-89338209D02*
X163904761Y-88862019D01*
X163904761Y-88862019D02*
X163714285Y-88576304D01*
X163714285Y-88576304D02*
X163428570Y-88385828D01*
X163428570Y-88385828D02*
X163047618Y-88290590D01*
X163047618Y-88290590D02*
X162666665Y-88385828D01*
X162666665Y-88385828D02*
X162380951Y-88576304D01*
X162380951Y-88576304D02*
X162190475Y-88862019D01*
X162190475Y-88862019D02*
X162095237Y-89242971D01*
X162095237Y-89242971D02*
X162190475Y-89623923D01*
X162190475Y-89623923D02*
X162380951Y-89909638D01*
X162380951Y-89909638D02*
X162666665Y-90100114D01*
X162666665Y-90100114D02*
X163047618Y-90195352D01*
X163047618Y-90195352D02*
X163428570Y-90100114D01*
X163428570Y-90100114D02*
X163714285Y-89909638D01*
X164476190Y-87909638D02*
X165619047Y-87909638D01*
X165047618Y-89909638D02*
X165047618Y-87909638D01*
X166571428Y-89909638D02*
X166380952Y-89814400D01*
X166380952Y-89814400D02*
X166285714Y-89719161D01*
X166285714Y-89719161D02*
X166190476Y-89528685D01*
X166190476Y-89528685D02*
X166190476Y-88957257D01*
X166190476Y-88957257D02*
X166285714Y-88766780D01*
X166285714Y-88766780D02*
X166380952Y-88671542D01*
X166380952Y-88671542D02*
X166571428Y-88576304D01*
X166571428Y-88576304D02*
X166857143Y-88576304D01*
X166857143Y-88576304D02*
X167047619Y-88671542D01*
X167047619Y-88671542D02*
X167142857Y-88766780D01*
X167142857Y-88766780D02*
X167238095Y-88957257D01*
X167238095Y-88957257D02*
X167238095Y-89528685D01*
X167238095Y-89528685D02*
X167142857Y-89719161D01*
X167142857Y-89719161D02*
X167047619Y-89814400D01*
X167047619Y-89814400D02*
X166857143Y-89909638D01*
X166857143Y-89909638D02*
X166571428Y-89909638D01*
X168095238Y-89909638D02*
X168095238Y-88576304D01*
X168095238Y-88766780D02*
X168190476Y-88671542D01*
X168190476Y-88671542D02*
X168380952Y-88576304D01*
X168380952Y-88576304D02*
X168666667Y-88576304D01*
X168666667Y-88576304D02*
X168857143Y-88671542D01*
X168857143Y-88671542D02*
X168952381Y-88862019D01*
X168952381Y-88862019D02*
X168952381Y-89909638D01*
X168952381Y-88862019D02*
X169047619Y-88671542D01*
X169047619Y-88671542D02*
X169238095Y-88576304D01*
X169238095Y-88576304D02*
X169523809Y-88576304D01*
X169523809Y-88576304D02*
X169714286Y-88671542D01*
X169714286Y-88671542D02*
X169809524Y-88862019D01*
X169809524Y-88862019D02*
X169809524Y-89909638D01*
X170761905Y-89909638D02*
X170761905Y-87909638D01*
X171904762Y-89909638D02*
X171047619Y-88766780D01*
X171904762Y-87909638D02*
X170761905Y-89052495D01*
X173523810Y-89814400D02*
X173333334Y-89909638D01*
X173333334Y-89909638D02*
X172952381Y-89909638D01*
X172952381Y-89909638D02*
X172761905Y-89814400D01*
X172761905Y-89814400D02*
X172666667Y-89623923D01*
X172666667Y-89623923D02*
X172666667Y-88862019D01*
X172666667Y-88862019D02*
X172761905Y-88671542D01*
X172761905Y-88671542D02*
X172952381Y-88576304D01*
X172952381Y-88576304D02*
X173333334Y-88576304D01*
X173333334Y-88576304D02*
X173523810Y-88671542D01*
X173523810Y-88671542D02*
X173619048Y-88862019D01*
X173619048Y-88862019D02*
X173619048Y-89052495D01*
X173619048Y-89052495D02*
X172666667Y-89242971D01*
X175333334Y-89909638D02*
X175333334Y-87909638D01*
X175333334Y-89814400D02*
X175142858Y-89909638D01*
X175142858Y-89909638D02*
X174761905Y-89909638D01*
X174761905Y-89909638D02*
X174571429Y-89814400D01*
X174571429Y-89814400D02*
X174476191Y-89719161D01*
X174476191Y-89719161D02*
X174380953Y-89528685D01*
X174380953Y-89528685D02*
X174380953Y-88957257D01*
X174380953Y-88957257D02*
X174476191Y-88766780D01*
X174476191Y-88766780D02*
X174571429Y-88671542D01*
X174571429Y-88671542D02*
X174761905Y-88576304D01*
X174761905Y-88576304D02*
X175142858Y-88576304D01*
X175142858Y-88576304D02*
X175333334Y-88671542D01*
X177142858Y-89909638D02*
X177142858Y-87909638D01*
X177142858Y-89814400D02*
X176952382Y-89909638D01*
X176952382Y-89909638D02*
X176571429Y-89909638D01*
X176571429Y-89909638D02*
X176380953Y-89814400D01*
X176380953Y-89814400D02*
X176285715Y-89719161D01*
X176285715Y-89719161D02*
X176190477Y-89528685D01*
X176190477Y-89528685D02*
X176190477Y-88957257D01*
X176190477Y-88957257D02*
X176285715Y-88766780D01*
X176285715Y-88766780D02*
X176380953Y-88671542D01*
X176380953Y-88671542D02*
X176571429Y-88576304D01*
X176571429Y-88576304D02*
X176952382Y-88576304D01*
X176952382Y-88576304D02*
X177142858Y-88671542D01*
X178095239Y-89909638D02*
X178095239Y-88576304D01*
X178095239Y-87909638D02*
X178000001Y-88004876D01*
X178000001Y-88004876D02*
X178095239Y-88100114D01*
X178095239Y-88100114D02*
X178190477Y-88004876D01*
X178190477Y-88004876D02*
X178095239Y-87909638D01*
X178095239Y-87909638D02*
X178095239Y-88100114D01*
X179809525Y-89814400D02*
X179619049Y-89909638D01*
X179619049Y-89909638D02*
X179238096Y-89909638D01*
X179238096Y-89909638D02*
X179047620Y-89814400D01*
X179047620Y-89814400D02*
X178952382Y-89623923D01*
X178952382Y-89623923D02*
X178952382Y-88862019D01*
X178952382Y-88862019D02*
X179047620Y-88671542D01*
X179047620Y-88671542D02*
X179238096Y-88576304D01*
X179238096Y-88576304D02*
X179619049Y-88576304D01*
X179619049Y-88576304D02*
X179809525Y-88671542D01*
X179809525Y-88671542D02*
X179904763Y-88862019D01*
X179904763Y-88862019D02*
X179904763Y-89052495D01*
X179904763Y-89052495D02*
X178952382Y-89242971D01*
X164857142Y-93129526D02*
X164857142Y-91129526D01*
X164857142Y-91129526D02*
X165523809Y-92558097D01*
X165523809Y-92558097D02*
X166190475Y-91129526D01*
X166190475Y-91129526D02*
X166190475Y-93129526D01*
X167999999Y-93129526D02*
X167999999Y-92081907D01*
X167999999Y-92081907D02*
X167904761Y-91891430D01*
X167904761Y-91891430D02*
X167714285Y-91796192D01*
X167714285Y-91796192D02*
X167333332Y-91796192D01*
X167333332Y-91796192D02*
X167142856Y-91891430D01*
X167999999Y-93034288D02*
X167809523Y-93129526D01*
X167809523Y-93129526D02*
X167333332Y-93129526D01*
X167333332Y-93129526D02*
X167142856Y-93034288D01*
X167142856Y-93034288D02*
X167047618Y-92843811D01*
X167047618Y-92843811D02*
X167047618Y-92653335D01*
X167047618Y-92653335D02*
X167142856Y-92462859D01*
X167142856Y-92462859D02*
X167333332Y-92367621D01*
X167333332Y-92367621D02*
X167809523Y-92367621D01*
X167809523Y-92367621D02*
X167999999Y-92272383D01*
X168761904Y-91796192D02*
X169238094Y-93129526D01*
X169714285Y-91796192D02*
X169238094Y-93129526D01*
X169238094Y-93129526D02*
X169047618Y-93605716D01*
X169047618Y-93605716D02*
X168952380Y-93700954D01*
X168952380Y-93700954D02*
X168761904Y-93796192D01*
X170380952Y-91320002D02*
X170476190Y-91224764D01*
X170476190Y-91224764D02*
X170666666Y-91129526D01*
X170666666Y-91129526D02*
X171142857Y-91129526D01*
X171142857Y-91129526D02*
X171333333Y-91224764D01*
X171333333Y-91224764D02*
X171428571Y-91320002D01*
X171428571Y-91320002D02*
X171523809Y-91510478D01*
X171523809Y-91510478D02*
X171523809Y-91700954D01*
X171523809Y-91700954D02*
X171428571Y-91986668D01*
X171428571Y-91986668D02*
X170285714Y-93129526D01*
X170285714Y-93129526D02*
X171523809Y-93129526D01*
X172761904Y-91129526D02*
X172952381Y-91129526D01*
X172952381Y-91129526D02*
X173142857Y-91224764D01*
X173142857Y-91224764D02*
X173238095Y-91320002D01*
X173238095Y-91320002D02*
X173333333Y-91510478D01*
X173333333Y-91510478D02*
X173428571Y-91891430D01*
X173428571Y-91891430D02*
X173428571Y-92367621D01*
X173428571Y-92367621D02*
X173333333Y-92748573D01*
X173333333Y-92748573D02*
X173238095Y-92939049D01*
X173238095Y-92939049D02*
X173142857Y-93034288D01*
X173142857Y-93034288D02*
X172952381Y-93129526D01*
X172952381Y-93129526D02*
X172761904Y-93129526D01*
X172761904Y-93129526D02*
X172571428Y-93034288D01*
X172571428Y-93034288D02*
X172476190Y-92939049D01*
X172476190Y-92939049D02*
X172380952Y-92748573D01*
X172380952Y-92748573D02*
X172285714Y-92367621D01*
X172285714Y-92367621D02*
X172285714Y-91891430D01*
X172285714Y-91891430D02*
X172380952Y-91510478D01*
X172380952Y-91510478D02*
X172476190Y-91320002D01*
X172476190Y-91320002D02*
X172571428Y-91224764D01*
X172571428Y-91224764D02*
X172761904Y-91129526D01*
X174190476Y-91320002D02*
X174285714Y-91224764D01*
X174285714Y-91224764D02*
X174476190Y-91129526D01*
X174476190Y-91129526D02*
X174952381Y-91129526D01*
X174952381Y-91129526D02*
X175142857Y-91224764D01*
X175142857Y-91224764D02*
X175238095Y-91320002D01*
X175238095Y-91320002D02*
X175333333Y-91510478D01*
X175333333Y-91510478D02*
X175333333Y-91700954D01*
X175333333Y-91700954D02*
X175238095Y-91986668D01*
X175238095Y-91986668D02*
X174095238Y-93129526D01*
X174095238Y-93129526D02*
X175333333Y-93129526D01*
X177047619Y-91796192D02*
X177047619Y-93129526D01*
X176571428Y-91034288D02*
X176095238Y-92462859D01*
X176095238Y-92462859D02*
X177333333Y-92462859D01*
M02*
