G04 #@! TF.GenerationSoftware,KiCad,Pcbnew,8.0.2-1.fc40*
G04 #@! TF.CreationDate,2024-05-26T13:32:19-07:00*
G04 #@! TF.ProjectId,busicard-top,62757369-6361-4726-942d-746f702e6b69,rev?*
G04 #@! TF.SameCoordinates,Original*
G04 #@! TF.FileFunction,Legend,Bot*
G04 #@! TF.FilePolarity,Positive*
%FSLAX46Y46*%
G04 Gerber Fmt 4.6, Leading zero omitted, Abs format (unit mm)*
G04 Created by KiCad (PCBNEW 8.0.2-1.fc40) date 2024-05-26 13:32:19*
%MOMM*%
%LPD*%
G01*
G04 APERTURE LIST*
%ADD10C,0.300000*%
%ADD11C,0.100000*%
%ADD12C,0.120000*%
G04 APERTURE END LIST*
D10*
X180523809Y-85689750D02*
X180523809Y-83689750D01*
X180523809Y-84451654D02*
X180333333Y-84356416D01*
X180333333Y-84356416D02*
X179952380Y-84356416D01*
X179952380Y-84356416D02*
X179761904Y-84451654D01*
X179761904Y-84451654D02*
X179666666Y-84546892D01*
X179666666Y-84546892D02*
X179571428Y-84737369D01*
X179571428Y-84737369D02*
X179571428Y-85308797D01*
X179571428Y-85308797D02*
X179666666Y-85499273D01*
X179666666Y-85499273D02*
X179761904Y-85594512D01*
X179761904Y-85594512D02*
X179952380Y-85689750D01*
X179952380Y-85689750D02*
X180333333Y-85689750D01*
X180333333Y-85689750D02*
X180523809Y-85594512D01*
X177857142Y-84356416D02*
X177857142Y-85689750D01*
X178714285Y-84356416D02*
X178714285Y-85404035D01*
X178714285Y-85404035D02*
X178619047Y-85594512D01*
X178619047Y-85594512D02*
X178428571Y-85689750D01*
X178428571Y-85689750D02*
X178142856Y-85689750D01*
X178142856Y-85689750D02*
X177952380Y-85594512D01*
X177952380Y-85594512D02*
X177857142Y-85499273D01*
X176999999Y-85594512D02*
X176809523Y-85689750D01*
X176809523Y-85689750D02*
X176428571Y-85689750D01*
X176428571Y-85689750D02*
X176238094Y-85594512D01*
X176238094Y-85594512D02*
X176142856Y-85404035D01*
X176142856Y-85404035D02*
X176142856Y-85308797D01*
X176142856Y-85308797D02*
X176238094Y-85118321D01*
X176238094Y-85118321D02*
X176428571Y-85023083D01*
X176428571Y-85023083D02*
X176714285Y-85023083D01*
X176714285Y-85023083D02*
X176904761Y-84927845D01*
X176904761Y-84927845D02*
X176999999Y-84737369D01*
X176999999Y-84737369D02*
X176999999Y-84642131D01*
X176999999Y-84642131D02*
X176904761Y-84451654D01*
X176904761Y-84451654D02*
X176714285Y-84356416D01*
X176714285Y-84356416D02*
X176428571Y-84356416D01*
X176428571Y-84356416D02*
X176238094Y-84451654D01*
X175285713Y-85689750D02*
X175285713Y-84356416D01*
X175285713Y-83689750D02*
X175380951Y-83784988D01*
X175380951Y-83784988D02*
X175285713Y-83880226D01*
X175285713Y-83880226D02*
X175190475Y-83784988D01*
X175190475Y-83784988D02*
X175285713Y-83689750D01*
X175285713Y-83689750D02*
X175285713Y-83880226D01*
X173476189Y-85594512D02*
X173666665Y-85689750D01*
X173666665Y-85689750D02*
X174047618Y-85689750D01*
X174047618Y-85689750D02*
X174238094Y-85594512D01*
X174238094Y-85594512D02*
X174333332Y-85499273D01*
X174333332Y-85499273D02*
X174428570Y-85308797D01*
X174428570Y-85308797D02*
X174428570Y-84737369D01*
X174428570Y-84737369D02*
X174333332Y-84546892D01*
X174333332Y-84546892D02*
X174238094Y-84451654D01*
X174238094Y-84451654D02*
X174047618Y-84356416D01*
X174047618Y-84356416D02*
X173666665Y-84356416D01*
X173666665Y-84356416D02*
X173476189Y-84451654D01*
X171761903Y-85689750D02*
X171761903Y-84642131D01*
X171761903Y-84642131D02*
X171857141Y-84451654D01*
X171857141Y-84451654D02*
X172047617Y-84356416D01*
X172047617Y-84356416D02*
X172428570Y-84356416D01*
X172428570Y-84356416D02*
X172619046Y-84451654D01*
X171761903Y-85594512D02*
X171952379Y-85689750D01*
X171952379Y-85689750D02*
X172428570Y-85689750D01*
X172428570Y-85689750D02*
X172619046Y-85594512D01*
X172619046Y-85594512D02*
X172714284Y-85404035D01*
X172714284Y-85404035D02*
X172714284Y-85213559D01*
X172714284Y-85213559D02*
X172619046Y-85023083D01*
X172619046Y-85023083D02*
X172428570Y-84927845D01*
X172428570Y-84927845D02*
X171952379Y-84927845D01*
X171952379Y-84927845D02*
X171761903Y-84832607D01*
X170809522Y-85689750D02*
X170809522Y-84356416D01*
X170809522Y-84737369D02*
X170714284Y-84546892D01*
X170714284Y-84546892D02*
X170619046Y-84451654D01*
X170619046Y-84451654D02*
X170428570Y-84356416D01*
X170428570Y-84356416D02*
X170238093Y-84356416D01*
X168714284Y-85689750D02*
X168714284Y-83689750D01*
X168714284Y-85594512D02*
X168904760Y-85689750D01*
X168904760Y-85689750D02*
X169285713Y-85689750D01*
X169285713Y-85689750D02*
X169476189Y-85594512D01*
X169476189Y-85594512D02*
X169571427Y-85499273D01*
X169571427Y-85499273D02*
X169666665Y-85308797D01*
X169666665Y-85308797D02*
X169666665Y-84737369D01*
X169666665Y-84737369D02*
X169571427Y-84546892D01*
X169571427Y-84546892D02*
X169476189Y-84451654D01*
X169476189Y-84451654D02*
X169285713Y-84356416D01*
X169285713Y-84356416D02*
X168904760Y-84356416D01*
X168904760Y-84356416D02*
X168714284Y-84451654D01*
X167761903Y-84927845D02*
X166238094Y-84927845D01*
X165571427Y-84356416D02*
X164809523Y-84356416D01*
X165285713Y-83689750D02*
X165285713Y-85404035D01*
X165285713Y-85404035D02*
X165190475Y-85594512D01*
X165190475Y-85594512D02*
X164999999Y-85689750D01*
X164999999Y-85689750D02*
X164809523Y-85689750D01*
X163857142Y-85689750D02*
X164047618Y-85594512D01*
X164047618Y-85594512D02*
X164142856Y-85499273D01*
X164142856Y-85499273D02*
X164238094Y-85308797D01*
X164238094Y-85308797D02*
X164238094Y-84737369D01*
X164238094Y-84737369D02*
X164142856Y-84546892D01*
X164142856Y-84546892D02*
X164047618Y-84451654D01*
X164047618Y-84451654D02*
X163857142Y-84356416D01*
X163857142Y-84356416D02*
X163571427Y-84356416D01*
X163571427Y-84356416D02*
X163380951Y-84451654D01*
X163380951Y-84451654D02*
X163285713Y-84546892D01*
X163285713Y-84546892D02*
X163190475Y-84737369D01*
X163190475Y-84737369D02*
X163190475Y-85308797D01*
X163190475Y-85308797D02*
X163285713Y-85499273D01*
X163285713Y-85499273D02*
X163380951Y-85594512D01*
X163380951Y-85594512D02*
X163571427Y-85689750D01*
X163571427Y-85689750D02*
X163857142Y-85689750D01*
X162333332Y-84356416D02*
X162333332Y-86356416D01*
X162333332Y-84451654D02*
X162142856Y-84356416D01*
X162142856Y-84356416D02*
X161761903Y-84356416D01*
X161761903Y-84356416D02*
X161571427Y-84451654D01*
X161571427Y-84451654D02*
X161476189Y-84546892D01*
X161476189Y-84546892D02*
X161380951Y-84737369D01*
X161380951Y-84737369D02*
X161380951Y-85308797D01*
X161380951Y-85308797D02*
X161476189Y-85499273D01*
X161476189Y-85499273D02*
X161571427Y-85594512D01*
X161571427Y-85594512D02*
X161761903Y-85689750D01*
X161761903Y-85689750D02*
X162142856Y-85689750D01*
X162142856Y-85689750D02*
X162333332Y-85594512D01*
X178571429Y-87957257D02*
X178666667Y-87862019D01*
X178666667Y-87862019D02*
X178857143Y-87766780D01*
X178857143Y-87766780D02*
X179047619Y-87766780D01*
X179047619Y-87766780D02*
X179238095Y-87862019D01*
X179238095Y-87862019D02*
X179333334Y-87957257D01*
X179333334Y-87957257D02*
X179428572Y-88147733D01*
X179428572Y-88147733D02*
X179428572Y-88338209D01*
X179428572Y-88338209D02*
X179333334Y-88528685D01*
X179333334Y-88528685D02*
X179238095Y-88623923D01*
X179238095Y-88623923D02*
X179047619Y-88719161D01*
X179047619Y-88719161D02*
X178857143Y-88719161D01*
X178857143Y-88719161D02*
X178666667Y-88623923D01*
X178666667Y-88623923D02*
X178571429Y-88528685D01*
X178571429Y-87766780D02*
X178571429Y-88528685D01*
X178571429Y-88528685D02*
X178476191Y-88623923D01*
X178476191Y-88623923D02*
X178380953Y-88623923D01*
X178380953Y-88623923D02*
X178190476Y-88528685D01*
X178190476Y-88528685D02*
X178095238Y-88338209D01*
X178095238Y-88338209D02*
X178095238Y-87862019D01*
X178095238Y-87862019D02*
X178285715Y-87576304D01*
X178285715Y-87576304D02*
X178571429Y-87385828D01*
X178571429Y-87385828D02*
X178952381Y-87290590D01*
X178952381Y-87290590D02*
X179333334Y-87385828D01*
X179333334Y-87385828D02*
X179619048Y-87576304D01*
X179619048Y-87576304D02*
X179809524Y-87862019D01*
X179809524Y-87862019D02*
X179904762Y-88242971D01*
X179904762Y-88242971D02*
X179809524Y-88623923D01*
X179809524Y-88623923D02*
X179619048Y-88909638D01*
X179619048Y-88909638D02*
X179333334Y-89100114D01*
X179333334Y-89100114D02*
X178952381Y-89195352D01*
X178952381Y-89195352D02*
X178571429Y-89100114D01*
X178571429Y-89100114D02*
X178285715Y-88909638D01*
X177523809Y-86909638D02*
X176380952Y-86909638D01*
X176952381Y-88909638D02*
X176952381Y-86909638D01*
X175428571Y-88909638D02*
X175619047Y-88814400D01*
X175619047Y-88814400D02*
X175714285Y-88719161D01*
X175714285Y-88719161D02*
X175809523Y-88528685D01*
X175809523Y-88528685D02*
X175809523Y-87957257D01*
X175809523Y-87957257D02*
X175714285Y-87766780D01*
X175714285Y-87766780D02*
X175619047Y-87671542D01*
X175619047Y-87671542D02*
X175428571Y-87576304D01*
X175428571Y-87576304D02*
X175142856Y-87576304D01*
X175142856Y-87576304D02*
X174952380Y-87671542D01*
X174952380Y-87671542D02*
X174857142Y-87766780D01*
X174857142Y-87766780D02*
X174761904Y-87957257D01*
X174761904Y-87957257D02*
X174761904Y-88528685D01*
X174761904Y-88528685D02*
X174857142Y-88719161D01*
X174857142Y-88719161D02*
X174952380Y-88814400D01*
X174952380Y-88814400D02*
X175142856Y-88909638D01*
X175142856Y-88909638D02*
X175428571Y-88909638D01*
X173904761Y-88909638D02*
X173904761Y-87576304D01*
X173904761Y-87766780D02*
X173809523Y-87671542D01*
X173809523Y-87671542D02*
X173619047Y-87576304D01*
X173619047Y-87576304D02*
X173333332Y-87576304D01*
X173333332Y-87576304D02*
X173142856Y-87671542D01*
X173142856Y-87671542D02*
X173047618Y-87862019D01*
X173047618Y-87862019D02*
X173047618Y-88909638D01*
X173047618Y-87862019D02*
X172952380Y-87671542D01*
X172952380Y-87671542D02*
X172761904Y-87576304D01*
X172761904Y-87576304D02*
X172476190Y-87576304D01*
X172476190Y-87576304D02*
X172285713Y-87671542D01*
X172285713Y-87671542D02*
X172190475Y-87862019D01*
X172190475Y-87862019D02*
X172190475Y-88909638D01*
X171238094Y-88909638D02*
X171238094Y-86909638D01*
X170095237Y-88909638D02*
X170952380Y-87766780D01*
X170095237Y-86909638D02*
X171238094Y-88052495D01*
X168476189Y-88814400D02*
X168666665Y-88909638D01*
X168666665Y-88909638D02*
X169047618Y-88909638D01*
X169047618Y-88909638D02*
X169238094Y-88814400D01*
X169238094Y-88814400D02*
X169333332Y-88623923D01*
X169333332Y-88623923D02*
X169333332Y-87862019D01*
X169333332Y-87862019D02*
X169238094Y-87671542D01*
X169238094Y-87671542D02*
X169047618Y-87576304D01*
X169047618Y-87576304D02*
X168666665Y-87576304D01*
X168666665Y-87576304D02*
X168476189Y-87671542D01*
X168476189Y-87671542D02*
X168380951Y-87862019D01*
X168380951Y-87862019D02*
X168380951Y-88052495D01*
X168380951Y-88052495D02*
X169333332Y-88242971D01*
X166666665Y-88909638D02*
X166666665Y-86909638D01*
X166666665Y-88814400D02*
X166857141Y-88909638D01*
X166857141Y-88909638D02*
X167238094Y-88909638D01*
X167238094Y-88909638D02*
X167428570Y-88814400D01*
X167428570Y-88814400D02*
X167523808Y-88719161D01*
X167523808Y-88719161D02*
X167619046Y-88528685D01*
X167619046Y-88528685D02*
X167619046Y-87957257D01*
X167619046Y-87957257D02*
X167523808Y-87766780D01*
X167523808Y-87766780D02*
X167428570Y-87671542D01*
X167428570Y-87671542D02*
X167238094Y-87576304D01*
X167238094Y-87576304D02*
X166857141Y-87576304D01*
X166857141Y-87576304D02*
X166666665Y-87671542D01*
X164857141Y-88909638D02*
X164857141Y-86909638D01*
X164857141Y-88814400D02*
X165047617Y-88909638D01*
X165047617Y-88909638D02*
X165428570Y-88909638D01*
X165428570Y-88909638D02*
X165619046Y-88814400D01*
X165619046Y-88814400D02*
X165714284Y-88719161D01*
X165714284Y-88719161D02*
X165809522Y-88528685D01*
X165809522Y-88528685D02*
X165809522Y-87957257D01*
X165809522Y-87957257D02*
X165714284Y-87766780D01*
X165714284Y-87766780D02*
X165619046Y-87671542D01*
X165619046Y-87671542D02*
X165428570Y-87576304D01*
X165428570Y-87576304D02*
X165047617Y-87576304D01*
X165047617Y-87576304D02*
X164857141Y-87671542D01*
X163904760Y-88909638D02*
X163904760Y-87576304D01*
X163904760Y-86909638D02*
X163999998Y-87004876D01*
X163999998Y-87004876D02*
X163904760Y-87100114D01*
X163904760Y-87100114D02*
X163809522Y-87004876D01*
X163809522Y-87004876D02*
X163904760Y-86909638D01*
X163904760Y-86909638D02*
X163904760Y-87100114D01*
X162190474Y-88814400D02*
X162380950Y-88909638D01*
X162380950Y-88909638D02*
X162761903Y-88909638D01*
X162761903Y-88909638D02*
X162952379Y-88814400D01*
X162952379Y-88814400D02*
X163047617Y-88623923D01*
X163047617Y-88623923D02*
X163047617Y-87862019D01*
X163047617Y-87862019D02*
X162952379Y-87671542D01*
X162952379Y-87671542D02*
X162761903Y-87576304D01*
X162761903Y-87576304D02*
X162380950Y-87576304D01*
X162380950Y-87576304D02*
X162190474Y-87671542D01*
X162190474Y-87671542D02*
X162095236Y-87862019D01*
X162095236Y-87862019D02*
X162095236Y-88052495D01*
X162095236Y-88052495D02*
X163047617Y-88242971D01*
X177142857Y-92129526D02*
X177142857Y-90129526D01*
X177142857Y-90129526D02*
X176476190Y-91558097D01*
X176476190Y-91558097D02*
X175809524Y-90129526D01*
X175809524Y-90129526D02*
X175809524Y-92129526D01*
X174000000Y-92129526D02*
X174000000Y-91081907D01*
X174000000Y-91081907D02*
X174095238Y-90891430D01*
X174095238Y-90891430D02*
X174285714Y-90796192D01*
X174285714Y-90796192D02*
X174666667Y-90796192D01*
X174666667Y-90796192D02*
X174857143Y-90891430D01*
X174000000Y-92034288D02*
X174190476Y-92129526D01*
X174190476Y-92129526D02*
X174666667Y-92129526D01*
X174666667Y-92129526D02*
X174857143Y-92034288D01*
X174857143Y-92034288D02*
X174952381Y-91843811D01*
X174952381Y-91843811D02*
X174952381Y-91653335D01*
X174952381Y-91653335D02*
X174857143Y-91462859D01*
X174857143Y-91462859D02*
X174666667Y-91367621D01*
X174666667Y-91367621D02*
X174190476Y-91367621D01*
X174190476Y-91367621D02*
X174000000Y-91272383D01*
X173238095Y-90796192D02*
X172761905Y-92129526D01*
X172285714Y-90796192D02*
X172761905Y-92129526D01*
X172761905Y-92129526D02*
X172952381Y-92605716D01*
X172952381Y-92605716D02*
X173047619Y-92700954D01*
X173047619Y-92700954D02*
X173238095Y-92796192D01*
X171619047Y-90320002D02*
X171523809Y-90224764D01*
X171523809Y-90224764D02*
X171333333Y-90129526D01*
X171333333Y-90129526D02*
X170857142Y-90129526D01*
X170857142Y-90129526D02*
X170666666Y-90224764D01*
X170666666Y-90224764D02*
X170571428Y-90320002D01*
X170571428Y-90320002D02*
X170476190Y-90510478D01*
X170476190Y-90510478D02*
X170476190Y-90700954D01*
X170476190Y-90700954D02*
X170571428Y-90986668D01*
X170571428Y-90986668D02*
X171714285Y-92129526D01*
X171714285Y-92129526D02*
X170476190Y-92129526D01*
X169238095Y-90129526D02*
X169047618Y-90129526D01*
X169047618Y-90129526D02*
X168857142Y-90224764D01*
X168857142Y-90224764D02*
X168761904Y-90320002D01*
X168761904Y-90320002D02*
X168666666Y-90510478D01*
X168666666Y-90510478D02*
X168571428Y-90891430D01*
X168571428Y-90891430D02*
X168571428Y-91367621D01*
X168571428Y-91367621D02*
X168666666Y-91748573D01*
X168666666Y-91748573D02*
X168761904Y-91939049D01*
X168761904Y-91939049D02*
X168857142Y-92034288D01*
X168857142Y-92034288D02*
X169047618Y-92129526D01*
X169047618Y-92129526D02*
X169238095Y-92129526D01*
X169238095Y-92129526D02*
X169428571Y-92034288D01*
X169428571Y-92034288D02*
X169523809Y-91939049D01*
X169523809Y-91939049D02*
X169619047Y-91748573D01*
X169619047Y-91748573D02*
X169714285Y-91367621D01*
X169714285Y-91367621D02*
X169714285Y-90891430D01*
X169714285Y-90891430D02*
X169619047Y-90510478D01*
X169619047Y-90510478D02*
X169523809Y-90320002D01*
X169523809Y-90320002D02*
X169428571Y-90224764D01*
X169428571Y-90224764D02*
X169238095Y-90129526D01*
X167809523Y-90320002D02*
X167714285Y-90224764D01*
X167714285Y-90224764D02*
X167523809Y-90129526D01*
X167523809Y-90129526D02*
X167047618Y-90129526D01*
X167047618Y-90129526D02*
X166857142Y-90224764D01*
X166857142Y-90224764D02*
X166761904Y-90320002D01*
X166761904Y-90320002D02*
X166666666Y-90510478D01*
X166666666Y-90510478D02*
X166666666Y-90700954D01*
X166666666Y-90700954D02*
X166761904Y-90986668D01*
X166761904Y-90986668D02*
X167904761Y-92129526D01*
X167904761Y-92129526D02*
X166666666Y-92129526D01*
X164952380Y-90796192D02*
X164952380Y-92129526D01*
X165428571Y-90034288D02*
X165904761Y-91462859D01*
X165904761Y-91462859D02*
X164666666Y-91462859D01*
D11*
X147619048Y-118957419D02*
X147619048Y-119671704D01*
X147619048Y-119671704D02*
X147666667Y-119814561D01*
X147666667Y-119814561D02*
X147761905Y-119909800D01*
X147761905Y-119909800D02*
X147904762Y-119957419D01*
X147904762Y-119957419D02*
X148000000Y-119957419D01*
X146666667Y-119957419D02*
X147142857Y-119957419D01*
X147142857Y-119957419D02*
X147142857Y-118957419D01*
X145761905Y-119862180D02*
X145809524Y-119909800D01*
X145809524Y-119909800D02*
X145952381Y-119957419D01*
X145952381Y-119957419D02*
X146047619Y-119957419D01*
X146047619Y-119957419D02*
X146190476Y-119909800D01*
X146190476Y-119909800D02*
X146285714Y-119814561D01*
X146285714Y-119814561D02*
X146333333Y-119719323D01*
X146333333Y-119719323D02*
X146380952Y-119528847D01*
X146380952Y-119528847D02*
X146380952Y-119385990D01*
X146380952Y-119385990D02*
X146333333Y-119195514D01*
X146333333Y-119195514D02*
X146285714Y-119100276D01*
X146285714Y-119100276D02*
X146190476Y-119005038D01*
X146190476Y-119005038D02*
X146047619Y-118957419D01*
X146047619Y-118957419D02*
X145952381Y-118957419D01*
X145952381Y-118957419D02*
X145809524Y-119005038D01*
X145809524Y-119005038D02*
X145761905Y-119052657D01*
X145047619Y-118957419D02*
X145047619Y-119671704D01*
X145047619Y-119671704D02*
X145095238Y-119814561D01*
X145095238Y-119814561D02*
X145190476Y-119909800D01*
X145190476Y-119909800D02*
X145333333Y-119957419D01*
X145333333Y-119957419D02*
X145428571Y-119957419D01*
X144095238Y-119957419D02*
X144571428Y-119957419D01*
X144571428Y-119957419D02*
X144571428Y-118957419D01*
X143190476Y-119862180D02*
X143238095Y-119909800D01*
X143238095Y-119909800D02*
X143380952Y-119957419D01*
X143380952Y-119957419D02*
X143476190Y-119957419D01*
X143476190Y-119957419D02*
X143619047Y-119909800D01*
X143619047Y-119909800D02*
X143714285Y-119814561D01*
X143714285Y-119814561D02*
X143761904Y-119719323D01*
X143761904Y-119719323D02*
X143809523Y-119528847D01*
X143809523Y-119528847D02*
X143809523Y-119385990D01*
X143809523Y-119385990D02*
X143761904Y-119195514D01*
X143761904Y-119195514D02*
X143714285Y-119100276D01*
X143714285Y-119100276D02*
X143619047Y-119005038D01*
X143619047Y-119005038D02*
X143476190Y-118957419D01*
X143476190Y-118957419D02*
X143380952Y-118957419D01*
X143380952Y-118957419D02*
X143238095Y-119005038D01*
X143238095Y-119005038D02*
X143190476Y-119052657D01*
X142476190Y-118957419D02*
X142476190Y-119671704D01*
X142476190Y-119671704D02*
X142523809Y-119814561D01*
X142523809Y-119814561D02*
X142619047Y-119909800D01*
X142619047Y-119909800D02*
X142761904Y-119957419D01*
X142761904Y-119957419D02*
X142857142Y-119957419D01*
X141523809Y-119957419D02*
X141999999Y-119957419D01*
X141999999Y-119957419D02*
X141999999Y-118957419D01*
X140619047Y-119862180D02*
X140666666Y-119909800D01*
X140666666Y-119909800D02*
X140809523Y-119957419D01*
X140809523Y-119957419D02*
X140904761Y-119957419D01*
X140904761Y-119957419D02*
X141047618Y-119909800D01*
X141047618Y-119909800D02*
X141142856Y-119814561D01*
X141142856Y-119814561D02*
X141190475Y-119719323D01*
X141190475Y-119719323D02*
X141238094Y-119528847D01*
X141238094Y-119528847D02*
X141238094Y-119385990D01*
X141238094Y-119385990D02*
X141190475Y-119195514D01*
X141190475Y-119195514D02*
X141142856Y-119100276D01*
X141142856Y-119100276D02*
X141047618Y-119005038D01*
X141047618Y-119005038D02*
X140904761Y-118957419D01*
X140904761Y-118957419D02*
X140809523Y-118957419D01*
X140809523Y-118957419D02*
X140666666Y-119005038D01*
X140666666Y-119005038D02*
X140619047Y-119052657D01*
X139904761Y-118957419D02*
X139904761Y-119671704D01*
X139904761Y-119671704D02*
X139952380Y-119814561D01*
X139952380Y-119814561D02*
X140047618Y-119909800D01*
X140047618Y-119909800D02*
X140190475Y-119957419D01*
X140190475Y-119957419D02*
X140285713Y-119957419D01*
X138952380Y-119957419D02*
X139428570Y-119957419D01*
X139428570Y-119957419D02*
X139428570Y-118957419D01*
X138047618Y-119862180D02*
X138095237Y-119909800D01*
X138095237Y-119909800D02*
X138238094Y-119957419D01*
X138238094Y-119957419D02*
X138333332Y-119957419D01*
X138333332Y-119957419D02*
X138476189Y-119909800D01*
X138476189Y-119909800D02*
X138571427Y-119814561D01*
X138571427Y-119814561D02*
X138619046Y-119719323D01*
X138619046Y-119719323D02*
X138666665Y-119528847D01*
X138666665Y-119528847D02*
X138666665Y-119385990D01*
X138666665Y-119385990D02*
X138619046Y-119195514D01*
X138619046Y-119195514D02*
X138571427Y-119100276D01*
X138571427Y-119100276D02*
X138476189Y-119005038D01*
X138476189Y-119005038D02*
X138333332Y-118957419D01*
X138333332Y-118957419D02*
X138238094Y-118957419D01*
X138238094Y-118957419D02*
X138095237Y-119005038D01*
X138095237Y-119005038D02*
X138047618Y-119052657D01*
X132347552Y-109428571D02*
X133014219Y-109428571D01*
X133347552Y-109428571D02*
X133299933Y-109476190D01*
X133299933Y-109476190D02*
X133252314Y-109428571D01*
X133252314Y-109428571D02*
X133299933Y-109380952D01*
X133299933Y-109380952D02*
X133347552Y-109428571D01*
X133347552Y-109428571D02*
X133252314Y-109428571D01*
X132347552Y-108952381D02*
X133014219Y-108952381D01*
X132918981Y-108952381D02*
X132966600Y-108904762D01*
X132966600Y-108904762D02*
X133014219Y-108809524D01*
X133014219Y-108809524D02*
X133014219Y-108666667D01*
X133014219Y-108666667D02*
X132966600Y-108571429D01*
X132966600Y-108571429D02*
X132871362Y-108523810D01*
X132871362Y-108523810D02*
X132347552Y-108523810D01*
X132871362Y-108523810D02*
X132966600Y-108476191D01*
X132966600Y-108476191D02*
X133014219Y-108380953D01*
X133014219Y-108380953D02*
X133014219Y-108238096D01*
X133014219Y-108238096D02*
X132966600Y-108142857D01*
X132966600Y-108142857D02*
X132871362Y-108095238D01*
X132871362Y-108095238D02*
X132347552Y-108095238D01*
X132347552Y-107190477D02*
X132871362Y-107190477D01*
X132871362Y-107190477D02*
X132966600Y-107238096D01*
X132966600Y-107238096D02*
X133014219Y-107333334D01*
X133014219Y-107333334D02*
X133014219Y-107523810D01*
X133014219Y-107523810D02*
X132966600Y-107619048D01*
X132395172Y-107190477D02*
X132347552Y-107285715D01*
X132347552Y-107285715D02*
X132347552Y-107523810D01*
X132347552Y-107523810D02*
X132395172Y-107619048D01*
X132395172Y-107619048D02*
X132490410Y-107666667D01*
X132490410Y-107666667D02*
X132585648Y-107666667D01*
X132585648Y-107666667D02*
X132680886Y-107619048D01*
X132680886Y-107619048D02*
X132728505Y-107523810D01*
X132728505Y-107523810D02*
X132728505Y-107285715D01*
X132728505Y-107285715D02*
X132776124Y-107190477D01*
X133014219Y-106285715D02*
X132204695Y-106285715D01*
X132204695Y-106285715D02*
X132109457Y-106333334D01*
X132109457Y-106333334D02*
X132061838Y-106380953D01*
X132061838Y-106380953D02*
X132014219Y-106476191D01*
X132014219Y-106476191D02*
X132014219Y-106619048D01*
X132014219Y-106619048D02*
X132061838Y-106714286D01*
X132395172Y-106285715D02*
X132347552Y-106380953D01*
X132347552Y-106380953D02*
X132347552Y-106571429D01*
X132347552Y-106571429D02*
X132395172Y-106666667D01*
X132395172Y-106666667D02*
X132442791Y-106714286D01*
X132442791Y-106714286D02*
X132538029Y-106761905D01*
X132538029Y-106761905D02*
X132823743Y-106761905D01*
X132823743Y-106761905D02*
X132918981Y-106714286D01*
X132918981Y-106714286D02*
X132966600Y-106666667D01*
X132966600Y-106666667D02*
X133014219Y-106571429D01*
X133014219Y-106571429D02*
X133014219Y-106380953D01*
X133014219Y-106380953D02*
X132966600Y-106285715D01*
X132395172Y-105428572D02*
X132347552Y-105523810D01*
X132347552Y-105523810D02*
X132347552Y-105714286D01*
X132347552Y-105714286D02*
X132395172Y-105809524D01*
X132395172Y-105809524D02*
X132490410Y-105857143D01*
X132490410Y-105857143D02*
X132871362Y-105857143D01*
X132871362Y-105857143D02*
X132966600Y-105809524D01*
X132966600Y-105809524D02*
X133014219Y-105714286D01*
X133014219Y-105714286D02*
X133014219Y-105523810D01*
X133014219Y-105523810D02*
X132966600Y-105428572D01*
X132966600Y-105428572D02*
X132871362Y-105380953D01*
X132871362Y-105380953D02*
X132776124Y-105380953D01*
X132776124Y-105380953D02*
X132680886Y-105857143D01*
X133014219Y-104333333D02*
X133014219Y-103952381D01*
X132347552Y-104190476D02*
X133204695Y-104190476D01*
X133204695Y-104190476D02*
X133299933Y-104142857D01*
X133299933Y-104142857D02*
X133347552Y-104047619D01*
X133347552Y-104047619D02*
X133347552Y-103952381D01*
X132347552Y-103619047D02*
X133014219Y-103619047D01*
X132823743Y-103619047D02*
X132918981Y-103571428D01*
X132918981Y-103571428D02*
X132966600Y-103523809D01*
X132966600Y-103523809D02*
X133014219Y-103428571D01*
X133014219Y-103428571D02*
X133014219Y-103333333D01*
X132347552Y-102857142D02*
X132395172Y-102952380D01*
X132395172Y-102952380D02*
X132442791Y-102999999D01*
X132442791Y-102999999D02*
X132538029Y-103047618D01*
X132538029Y-103047618D02*
X132823743Y-103047618D01*
X132823743Y-103047618D02*
X132918981Y-102999999D01*
X132918981Y-102999999D02*
X132966600Y-102952380D01*
X132966600Y-102952380D02*
X133014219Y-102857142D01*
X133014219Y-102857142D02*
X133014219Y-102714285D01*
X133014219Y-102714285D02*
X132966600Y-102619047D01*
X132966600Y-102619047D02*
X132918981Y-102571428D01*
X132918981Y-102571428D02*
X132823743Y-102523809D01*
X132823743Y-102523809D02*
X132538029Y-102523809D01*
X132538029Y-102523809D02*
X132442791Y-102571428D01*
X132442791Y-102571428D02*
X132395172Y-102619047D01*
X132395172Y-102619047D02*
X132347552Y-102714285D01*
X132347552Y-102714285D02*
X132347552Y-102857142D01*
X132347552Y-102095237D02*
X133014219Y-102095237D01*
X132918981Y-102095237D02*
X132966600Y-102047618D01*
X132966600Y-102047618D02*
X133014219Y-101952380D01*
X133014219Y-101952380D02*
X133014219Y-101809523D01*
X133014219Y-101809523D02*
X132966600Y-101714285D01*
X132966600Y-101714285D02*
X132871362Y-101666666D01*
X132871362Y-101666666D02*
X132347552Y-101666666D01*
X132871362Y-101666666D02*
X132966600Y-101619047D01*
X132966600Y-101619047D02*
X133014219Y-101523809D01*
X133014219Y-101523809D02*
X133014219Y-101380952D01*
X133014219Y-101380952D02*
X132966600Y-101285713D01*
X132966600Y-101285713D02*
X132871362Y-101238094D01*
X132871362Y-101238094D02*
X132347552Y-101238094D01*
X133014219Y-100095237D02*
X132347552Y-99857142D01*
X132347552Y-99857142D02*
X133014219Y-99619047D01*
X132395172Y-98857142D02*
X132347552Y-98952380D01*
X132347552Y-98952380D02*
X132347552Y-99142856D01*
X132347552Y-99142856D02*
X132395172Y-99238094D01*
X132395172Y-99238094D02*
X132490410Y-99285713D01*
X132490410Y-99285713D02*
X132871362Y-99285713D01*
X132871362Y-99285713D02*
X132966600Y-99238094D01*
X132966600Y-99238094D02*
X133014219Y-99142856D01*
X133014219Y-99142856D02*
X133014219Y-98952380D01*
X133014219Y-98952380D02*
X132966600Y-98857142D01*
X132966600Y-98857142D02*
X132871362Y-98809523D01*
X132871362Y-98809523D02*
X132776124Y-98809523D01*
X132776124Y-98809523D02*
X132680886Y-99285713D01*
X132395172Y-97952380D02*
X132347552Y-98047618D01*
X132347552Y-98047618D02*
X132347552Y-98238094D01*
X132347552Y-98238094D02*
X132395172Y-98333332D01*
X132395172Y-98333332D02*
X132442791Y-98380951D01*
X132442791Y-98380951D02*
X132538029Y-98428570D01*
X132538029Y-98428570D02*
X132823743Y-98428570D01*
X132823743Y-98428570D02*
X132918981Y-98380951D01*
X132918981Y-98380951D02*
X132966600Y-98333332D01*
X132966600Y-98333332D02*
X133014219Y-98238094D01*
X133014219Y-98238094D02*
X133014219Y-98047618D01*
X133014219Y-98047618D02*
X132966600Y-97952380D01*
X133014219Y-97666665D02*
X133014219Y-97285713D01*
X133347552Y-97523808D02*
X132490410Y-97523808D01*
X132490410Y-97523808D02*
X132395172Y-97476189D01*
X132395172Y-97476189D02*
X132347552Y-97380951D01*
X132347552Y-97380951D02*
X132347552Y-97285713D01*
X132395172Y-96571427D02*
X132347552Y-96666665D01*
X132347552Y-96666665D02*
X132347552Y-96857141D01*
X132347552Y-96857141D02*
X132395172Y-96952379D01*
X132395172Y-96952379D02*
X132490410Y-96999998D01*
X132490410Y-96999998D02*
X132871362Y-96999998D01*
X132871362Y-96999998D02*
X132966600Y-96952379D01*
X132966600Y-96952379D02*
X133014219Y-96857141D01*
X133014219Y-96857141D02*
X133014219Y-96666665D01*
X133014219Y-96666665D02*
X132966600Y-96571427D01*
X132966600Y-96571427D02*
X132871362Y-96523808D01*
X132871362Y-96523808D02*
X132776124Y-96523808D01*
X132776124Y-96523808D02*
X132680886Y-96999998D01*
X132395172Y-95714284D02*
X132347552Y-95809522D01*
X132347552Y-95809522D02*
X132347552Y-95999998D01*
X132347552Y-95999998D02*
X132395172Y-96095236D01*
X132395172Y-96095236D02*
X132490410Y-96142855D01*
X132490410Y-96142855D02*
X132871362Y-96142855D01*
X132871362Y-96142855D02*
X132966600Y-96095236D01*
X132966600Y-96095236D02*
X133014219Y-95999998D01*
X133014219Y-95999998D02*
X133014219Y-95809522D01*
X133014219Y-95809522D02*
X132966600Y-95714284D01*
X132966600Y-95714284D02*
X132871362Y-95666665D01*
X132871362Y-95666665D02*
X132776124Y-95666665D01*
X132776124Y-95666665D02*
X132680886Y-96142855D01*
X133014219Y-95333331D02*
X133014219Y-94809522D01*
X133014219Y-94809522D02*
X132347552Y-95333331D01*
X132347552Y-95333331D02*
X132347552Y-94809522D01*
X133014219Y-94523807D02*
X132347552Y-94285712D01*
X133014219Y-94047617D02*
X132347552Y-94285712D01*
X132347552Y-94285712D02*
X132109457Y-94380950D01*
X132109457Y-94380950D02*
X132061838Y-94428569D01*
X132061838Y-94428569D02*
X132014219Y-94523807D01*
X132442791Y-93666664D02*
X132395172Y-93619045D01*
X132395172Y-93619045D02*
X132347552Y-93666664D01*
X132347552Y-93666664D02*
X132395172Y-93714283D01*
X132395172Y-93714283D02*
X132442791Y-93666664D01*
X132442791Y-93666664D02*
X132347552Y-93666664D01*
X132395172Y-92761903D02*
X132347552Y-92857141D01*
X132347552Y-92857141D02*
X132347552Y-93047617D01*
X132347552Y-93047617D02*
X132395172Y-93142855D01*
X132395172Y-93142855D02*
X132442791Y-93190474D01*
X132442791Y-93190474D02*
X132538029Y-93238093D01*
X132538029Y-93238093D02*
X132823743Y-93238093D01*
X132823743Y-93238093D02*
X132918981Y-93190474D01*
X132918981Y-93190474D02*
X132966600Y-93142855D01*
X132966600Y-93142855D02*
X133014219Y-93047617D01*
X133014219Y-93047617D02*
X133014219Y-92857141D01*
X133014219Y-92857141D02*
X132966600Y-92761903D01*
X132347552Y-92190474D02*
X132395172Y-92285712D01*
X132395172Y-92285712D02*
X132442791Y-92333331D01*
X132442791Y-92333331D02*
X132538029Y-92380950D01*
X132538029Y-92380950D02*
X132823743Y-92380950D01*
X132823743Y-92380950D02*
X132918981Y-92333331D01*
X132918981Y-92333331D02*
X132966600Y-92285712D01*
X132966600Y-92285712D02*
X133014219Y-92190474D01*
X133014219Y-92190474D02*
X133014219Y-92047617D01*
X133014219Y-92047617D02*
X132966600Y-91952379D01*
X132966600Y-91952379D02*
X132918981Y-91904760D01*
X132918981Y-91904760D02*
X132823743Y-91857141D01*
X132823743Y-91857141D02*
X132538029Y-91857141D01*
X132538029Y-91857141D02*
X132442791Y-91904760D01*
X132442791Y-91904760D02*
X132395172Y-91952379D01*
X132395172Y-91952379D02*
X132347552Y-92047617D01*
X132347552Y-92047617D02*
X132347552Y-92190474D01*
X132347552Y-91428569D02*
X133014219Y-91428569D01*
X132918981Y-91428569D02*
X132966600Y-91380950D01*
X132966600Y-91380950D02*
X133014219Y-91285712D01*
X133014219Y-91285712D02*
X133014219Y-91142855D01*
X133014219Y-91142855D02*
X132966600Y-91047617D01*
X132966600Y-91047617D02*
X132871362Y-90999998D01*
X132871362Y-90999998D02*
X132347552Y-90999998D01*
X132871362Y-90999998D02*
X132966600Y-90952379D01*
X132966600Y-90952379D02*
X133014219Y-90857141D01*
X133014219Y-90857141D02*
X133014219Y-90714284D01*
X133014219Y-90714284D02*
X132966600Y-90619045D01*
X132966600Y-90619045D02*
X132871362Y-90571426D01*
X132871362Y-90571426D02*
X132347552Y-90571426D01*
X131404275Y-110428571D02*
X131404275Y-110047619D01*
X131737608Y-110285714D02*
X130880466Y-110285714D01*
X130880466Y-110285714D02*
X130785228Y-110238095D01*
X130785228Y-110238095D02*
X130737608Y-110142857D01*
X130737608Y-110142857D02*
X130737608Y-110047619D01*
X130737608Y-109714285D02*
X131737608Y-109714285D01*
X130737608Y-109285714D02*
X131261418Y-109285714D01*
X131261418Y-109285714D02*
X131356656Y-109333333D01*
X131356656Y-109333333D02*
X131404275Y-109428571D01*
X131404275Y-109428571D02*
X131404275Y-109571428D01*
X131404275Y-109571428D02*
X131356656Y-109666666D01*
X131356656Y-109666666D02*
X131309037Y-109714285D01*
X130737608Y-108809523D02*
X131404275Y-108809523D01*
X131737608Y-108809523D02*
X131689989Y-108857142D01*
X131689989Y-108857142D02*
X131642370Y-108809523D01*
X131642370Y-108809523D02*
X131689989Y-108761904D01*
X131689989Y-108761904D02*
X131737608Y-108809523D01*
X131737608Y-108809523D02*
X131642370Y-108809523D01*
X130785228Y-107904762D02*
X130737608Y-108000000D01*
X130737608Y-108000000D02*
X130737608Y-108190476D01*
X130737608Y-108190476D02*
X130785228Y-108285714D01*
X130785228Y-108285714D02*
X130832847Y-108333333D01*
X130832847Y-108333333D02*
X130928085Y-108380952D01*
X130928085Y-108380952D02*
X131213799Y-108380952D01*
X131213799Y-108380952D02*
X131309037Y-108333333D01*
X131309037Y-108333333D02*
X131356656Y-108285714D01*
X131356656Y-108285714D02*
X131404275Y-108190476D01*
X131404275Y-108190476D02*
X131404275Y-108000000D01*
X131404275Y-108000000D02*
X131356656Y-107904762D01*
X130737608Y-107476190D02*
X131737608Y-107476190D01*
X131118561Y-107380952D02*
X130737608Y-107095238D01*
X131404275Y-107095238D02*
X131023323Y-107476190D01*
X131404275Y-106666666D02*
X130737608Y-106666666D01*
X131309037Y-106666666D02*
X131356656Y-106619047D01*
X131356656Y-106619047D02*
X131404275Y-106523809D01*
X131404275Y-106523809D02*
X131404275Y-106380952D01*
X131404275Y-106380952D02*
X131356656Y-106285714D01*
X131356656Y-106285714D02*
X131261418Y-106238095D01*
X131261418Y-106238095D02*
X130737608Y-106238095D01*
X130785228Y-105380952D02*
X130737608Y-105476190D01*
X130737608Y-105476190D02*
X130737608Y-105666666D01*
X130737608Y-105666666D02*
X130785228Y-105761904D01*
X130785228Y-105761904D02*
X130880466Y-105809523D01*
X130880466Y-105809523D02*
X131261418Y-105809523D01*
X131261418Y-105809523D02*
X131356656Y-105761904D01*
X131356656Y-105761904D02*
X131404275Y-105666666D01*
X131404275Y-105666666D02*
X131404275Y-105476190D01*
X131404275Y-105476190D02*
X131356656Y-105380952D01*
X131356656Y-105380952D02*
X131261418Y-105333333D01*
X131261418Y-105333333D02*
X131166180Y-105333333D01*
X131166180Y-105333333D02*
X131070942Y-105809523D01*
X130785228Y-104952380D02*
X130737608Y-104857142D01*
X130737608Y-104857142D02*
X130737608Y-104666666D01*
X130737608Y-104666666D02*
X130785228Y-104571428D01*
X130785228Y-104571428D02*
X130880466Y-104523809D01*
X130880466Y-104523809D02*
X130928085Y-104523809D01*
X130928085Y-104523809D02*
X131023323Y-104571428D01*
X131023323Y-104571428D02*
X131070942Y-104666666D01*
X131070942Y-104666666D02*
X131070942Y-104809523D01*
X131070942Y-104809523D02*
X131118561Y-104904761D01*
X131118561Y-104904761D02*
X131213799Y-104952380D01*
X131213799Y-104952380D02*
X131261418Y-104952380D01*
X131261418Y-104952380D02*
X131356656Y-104904761D01*
X131356656Y-104904761D02*
X131404275Y-104809523D01*
X131404275Y-104809523D02*
X131404275Y-104666666D01*
X131404275Y-104666666D02*
X131356656Y-104571428D01*
X130785228Y-104142856D02*
X130737608Y-104047618D01*
X130737608Y-104047618D02*
X130737608Y-103857142D01*
X130737608Y-103857142D02*
X130785228Y-103761904D01*
X130785228Y-103761904D02*
X130880466Y-103714285D01*
X130880466Y-103714285D02*
X130928085Y-103714285D01*
X130928085Y-103714285D02*
X131023323Y-103761904D01*
X131023323Y-103761904D02*
X131070942Y-103857142D01*
X131070942Y-103857142D02*
X131070942Y-103999999D01*
X131070942Y-103999999D02*
X131118561Y-104095237D01*
X131118561Y-104095237D02*
X131213799Y-104142856D01*
X131213799Y-104142856D02*
X131261418Y-104142856D01*
X131261418Y-104142856D02*
X131356656Y-104095237D01*
X131356656Y-104095237D02*
X131404275Y-103999999D01*
X131404275Y-103999999D02*
X131404275Y-103857142D01*
X131404275Y-103857142D02*
X131356656Y-103761904D01*
X130785228Y-102571427D02*
X130737608Y-102476189D01*
X130737608Y-102476189D02*
X130737608Y-102285713D01*
X130737608Y-102285713D02*
X130785228Y-102190475D01*
X130785228Y-102190475D02*
X130880466Y-102142856D01*
X130880466Y-102142856D02*
X130928085Y-102142856D01*
X130928085Y-102142856D02*
X131023323Y-102190475D01*
X131023323Y-102190475D02*
X131070942Y-102285713D01*
X131070942Y-102285713D02*
X131070942Y-102428570D01*
X131070942Y-102428570D02*
X131118561Y-102523808D01*
X131118561Y-102523808D02*
X131213799Y-102571427D01*
X131213799Y-102571427D02*
X131261418Y-102571427D01*
X131261418Y-102571427D02*
X131356656Y-102523808D01*
X131356656Y-102523808D02*
X131404275Y-102428570D01*
X131404275Y-102428570D02*
X131404275Y-102285713D01*
X131404275Y-102285713D02*
X131356656Y-102190475D01*
X130737608Y-101714284D02*
X131737608Y-101714284D01*
X130737608Y-101285713D02*
X131261418Y-101285713D01*
X131261418Y-101285713D02*
X131356656Y-101333332D01*
X131356656Y-101333332D02*
X131404275Y-101428570D01*
X131404275Y-101428570D02*
X131404275Y-101571427D01*
X131404275Y-101571427D02*
X131356656Y-101666665D01*
X131356656Y-101666665D02*
X131309037Y-101714284D01*
X130737608Y-100666665D02*
X130785228Y-100761903D01*
X130785228Y-100761903D02*
X130832847Y-100809522D01*
X130832847Y-100809522D02*
X130928085Y-100857141D01*
X130928085Y-100857141D02*
X131213799Y-100857141D01*
X131213799Y-100857141D02*
X131309037Y-100809522D01*
X131309037Y-100809522D02*
X131356656Y-100761903D01*
X131356656Y-100761903D02*
X131404275Y-100666665D01*
X131404275Y-100666665D02*
X131404275Y-100523808D01*
X131404275Y-100523808D02*
X131356656Y-100428570D01*
X131356656Y-100428570D02*
X131309037Y-100380951D01*
X131309037Y-100380951D02*
X131213799Y-100333332D01*
X131213799Y-100333332D02*
X130928085Y-100333332D01*
X130928085Y-100333332D02*
X130832847Y-100380951D01*
X130832847Y-100380951D02*
X130785228Y-100428570D01*
X130785228Y-100428570D02*
X130737608Y-100523808D01*
X130737608Y-100523808D02*
X130737608Y-100666665D01*
X131404275Y-99476189D02*
X130737608Y-99476189D01*
X131404275Y-99904760D02*
X130880466Y-99904760D01*
X130880466Y-99904760D02*
X130785228Y-99857141D01*
X130785228Y-99857141D02*
X130737608Y-99761903D01*
X130737608Y-99761903D02*
X130737608Y-99619046D01*
X130737608Y-99619046D02*
X130785228Y-99523808D01*
X130785228Y-99523808D02*
X130832847Y-99476189D01*
X130737608Y-98857141D02*
X130785228Y-98952379D01*
X130785228Y-98952379D02*
X130880466Y-98999998D01*
X130880466Y-98999998D02*
X131737608Y-98999998D01*
X130737608Y-98047617D02*
X131737608Y-98047617D01*
X130785228Y-98047617D02*
X130737608Y-98142855D01*
X130737608Y-98142855D02*
X130737608Y-98333331D01*
X130737608Y-98333331D02*
X130785228Y-98428569D01*
X130785228Y-98428569D02*
X130832847Y-98476188D01*
X130832847Y-98476188D02*
X130928085Y-98523807D01*
X130928085Y-98523807D02*
X131213799Y-98523807D01*
X131213799Y-98523807D02*
X131309037Y-98476188D01*
X131309037Y-98476188D02*
X131356656Y-98428569D01*
X131356656Y-98428569D02*
X131404275Y-98333331D01*
X131404275Y-98333331D02*
X131404275Y-98142855D01*
X131404275Y-98142855D02*
X131356656Y-98047617D01*
X130737608Y-96809521D02*
X131737608Y-96809521D01*
X131356656Y-96809521D02*
X131404275Y-96714283D01*
X131404275Y-96714283D02*
X131404275Y-96523807D01*
X131404275Y-96523807D02*
X131356656Y-96428569D01*
X131356656Y-96428569D02*
X131309037Y-96380950D01*
X131309037Y-96380950D02*
X131213799Y-96333331D01*
X131213799Y-96333331D02*
X130928085Y-96333331D01*
X130928085Y-96333331D02*
X130832847Y-96380950D01*
X130832847Y-96380950D02*
X130785228Y-96428569D01*
X130785228Y-96428569D02*
X130737608Y-96523807D01*
X130737608Y-96523807D02*
X130737608Y-96714283D01*
X130737608Y-96714283D02*
X130785228Y-96809521D01*
X130785228Y-95523807D02*
X130737608Y-95619045D01*
X130737608Y-95619045D02*
X130737608Y-95809521D01*
X130737608Y-95809521D02*
X130785228Y-95904759D01*
X130785228Y-95904759D02*
X130880466Y-95952378D01*
X130880466Y-95952378D02*
X131261418Y-95952378D01*
X131261418Y-95952378D02*
X131356656Y-95904759D01*
X131356656Y-95904759D02*
X131404275Y-95809521D01*
X131404275Y-95809521D02*
X131404275Y-95619045D01*
X131404275Y-95619045D02*
X131356656Y-95523807D01*
X131356656Y-95523807D02*
X131261418Y-95476188D01*
X131261418Y-95476188D02*
X131166180Y-95476188D01*
X131166180Y-95476188D02*
X131070942Y-95952378D01*
X131737608Y-94095235D02*
X131737608Y-93999997D01*
X131737608Y-93999997D02*
X131689989Y-93904759D01*
X131689989Y-93904759D02*
X131642370Y-93857140D01*
X131642370Y-93857140D02*
X131547132Y-93809521D01*
X131547132Y-93809521D02*
X131356656Y-93761902D01*
X131356656Y-93761902D02*
X131118561Y-93761902D01*
X131118561Y-93761902D02*
X130928085Y-93809521D01*
X130928085Y-93809521D02*
X130832847Y-93857140D01*
X130832847Y-93857140D02*
X130785228Y-93904759D01*
X130785228Y-93904759D02*
X130737608Y-93999997D01*
X130737608Y-93999997D02*
X130737608Y-94095235D01*
X130737608Y-94095235D02*
X130785228Y-94190473D01*
X130785228Y-94190473D02*
X130832847Y-94238092D01*
X130832847Y-94238092D02*
X130928085Y-94285711D01*
X130928085Y-94285711D02*
X131118561Y-94333330D01*
X131118561Y-94333330D02*
X131356656Y-94333330D01*
X131356656Y-94333330D02*
X131547132Y-94285711D01*
X131547132Y-94285711D02*
X131642370Y-94238092D01*
X131642370Y-94238092D02*
X131689989Y-94190473D01*
X131689989Y-94190473D02*
X131737608Y-94095235D01*
X130832847Y-93333330D02*
X130785228Y-93285711D01*
X130785228Y-93285711D02*
X130737608Y-93333330D01*
X130737608Y-93333330D02*
X130785228Y-93380949D01*
X130785228Y-93380949D02*
X130832847Y-93333330D01*
X130832847Y-93333330D02*
X130737608Y-93333330D01*
X131309037Y-92714283D02*
X131356656Y-92809521D01*
X131356656Y-92809521D02*
X131404275Y-92857140D01*
X131404275Y-92857140D02*
X131499513Y-92904759D01*
X131499513Y-92904759D02*
X131547132Y-92904759D01*
X131547132Y-92904759D02*
X131642370Y-92857140D01*
X131642370Y-92857140D02*
X131689989Y-92809521D01*
X131689989Y-92809521D02*
X131737608Y-92714283D01*
X131737608Y-92714283D02*
X131737608Y-92523807D01*
X131737608Y-92523807D02*
X131689989Y-92428569D01*
X131689989Y-92428569D02*
X131642370Y-92380950D01*
X131642370Y-92380950D02*
X131547132Y-92333331D01*
X131547132Y-92333331D02*
X131499513Y-92333331D01*
X131499513Y-92333331D02*
X131404275Y-92380950D01*
X131404275Y-92380950D02*
X131356656Y-92428569D01*
X131356656Y-92428569D02*
X131309037Y-92523807D01*
X131309037Y-92523807D02*
X131309037Y-92714283D01*
X131309037Y-92714283D02*
X131261418Y-92809521D01*
X131261418Y-92809521D02*
X131213799Y-92857140D01*
X131213799Y-92857140D02*
X131118561Y-92904759D01*
X131118561Y-92904759D02*
X130928085Y-92904759D01*
X130928085Y-92904759D02*
X130832847Y-92857140D01*
X130832847Y-92857140D02*
X130785228Y-92809521D01*
X130785228Y-92809521D02*
X130737608Y-92714283D01*
X130737608Y-92714283D02*
X130737608Y-92523807D01*
X130737608Y-92523807D02*
X130785228Y-92428569D01*
X130785228Y-92428569D02*
X130832847Y-92380950D01*
X130832847Y-92380950D02*
X130928085Y-92333331D01*
X130928085Y-92333331D02*
X131118561Y-92333331D01*
X131118561Y-92333331D02*
X131213799Y-92380950D01*
X131213799Y-92380950D02*
X131261418Y-92428569D01*
X131261418Y-92428569D02*
X131309037Y-92523807D01*
X130737608Y-91904759D02*
X131404275Y-91904759D01*
X131309037Y-91904759D02*
X131356656Y-91857140D01*
X131356656Y-91857140D02*
X131404275Y-91761902D01*
X131404275Y-91761902D02*
X131404275Y-91619045D01*
X131404275Y-91619045D02*
X131356656Y-91523807D01*
X131356656Y-91523807D02*
X131261418Y-91476188D01*
X131261418Y-91476188D02*
X130737608Y-91476188D01*
X131261418Y-91476188D02*
X131356656Y-91428569D01*
X131356656Y-91428569D02*
X131404275Y-91333331D01*
X131404275Y-91333331D02*
X131404275Y-91190474D01*
X131404275Y-91190474D02*
X131356656Y-91095235D01*
X131356656Y-91095235D02*
X131261418Y-91047616D01*
X131261418Y-91047616D02*
X130737608Y-91047616D01*
X130737608Y-90571426D02*
X131404275Y-90571426D01*
X131309037Y-90571426D02*
X131356656Y-90523807D01*
X131356656Y-90523807D02*
X131404275Y-90428569D01*
X131404275Y-90428569D02*
X131404275Y-90285712D01*
X131404275Y-90285712D02*
X131356656Y-90190474D01*
X131356656Y-90190474D02*
X131261418Y-90142855D01*
X131261418Y-90142855D02*
X130737608Y-90142855D01*
X131261418Y-90142855D02*
X131356656Y-90095236D01*
X131356656Y-90095236D02*
X131404275Y-89999998D01*
X131404275Y-89999998D02*
X131404275Y-89857141D01*
X131404275Y-89857141D02*
X131356656Y-89761902D01*
X131356656Y-89761902D02*
X131261418Y-89714283D01*
X131261418Y-89714283D02*
X130737608Y-89714283D01*
D12*
G04 #@! TO.C,TP3*
X172750000Y-105000000D02*
G75*
G02*
X169250000Y-105000000I-1750000J0D01*
G01*
X169250000Y-105000000D02*
G75*
G02*
X172750000Y-105000000I1750000J0D01*
G01*
G04 #@! TO.C,TP2*
X146750000Y-95000000D02*
G75*
G02*
X143250000Y-95000000I-1750000J0D01*
G01*
X143250000Y-95000000D02*
G75*
G02*
X146750000Y-95000000I1750000J0D01*
G01*
G04 #@! TD*
M02*
