G04 #@! TF.GenerationSoftware,KiCad,Pcbnew,8.0.2-1.fc40*
G04 #@! TF.CreationDate,2024-05-26T13:32:19-07:00*
G04 #@! TF.ProjectId,busicard-top,62757369-6361-4726-942d-746f702e6b69,rev?*
G04 #@! TF.SameCoordinates,Original*
G04 #@! TF.FileFunction,Soldermask,Bot*
G04 #@! TF.FilePolarity,Negative*
%FSLAX46Y46*%
G04 Gerber Fmt 4.6, Leading zero omitted, Abs format (unit mm)*
G04 Created by KiCad (PCBNEW 8.0.2-1.fc40) date 2024-05-26 13:32:19*
%MOMM*%
%LPD*%
G01*
G04 APERTURE LIST*
%ADD10C,5.000000*%
%ADD11C,3.000000*%
G04 APERTURE END LIST*
D10*
G04 #@! TO.C,TP9*
X175000000Y-119500000D03*
G04 #@! TD*
G04 #@! TO.C,TP1*
X175000000Y-80500000D03*
G04 #@! TD*
G04 #@! TO.C,TP10*
X133500000Y-80500000D03*
G04 #@! TD*
G04 #@! TO.C,TP5*
X196500000Y-119500000D03*
G04 #@! TD*
G04 #@! TO.C,TP6*
X196500000Y-80500000D03*
G04 #@! TD*
G04 #@! TO.C,TP8*
X153000000Y-80500000D03*
G04 #@! TD*
G04 #@! TO.C,TP4*
X133500000Y-119500000D03*
G04 #@! TD*
G04 #@! TO.C,TP7*
X153000000Y-119500000D03*
G04 #@! TD*
D11*
G04 #@! TO.C,TP3*
X171000000Y-105000000D03*
G04 #@! TD*
G04 #@! TO.C,TP2*
X145000000Y-95000000D03*
G04 #@! TD*
G36*
X144943039Y-84019685D02*
G01*
X144988794Y-84072489D01*
X145000000Y-84124000D01*
X145000000Y-105876000D01*
X144980315Y-105943039D01*
X144927511Y-105988794D01*
X144876000Y-106000000D01*
X140051362Y-106000000D01*
X139984323Y-105980315D01*
X139963681Y-105963681D01*
X134036319Y-100036319D01*
X134002834Y-99974996D01*
X134000000Y-99948638D01*
X134000000Y-90051362D01*
X134019685Y-89984323D01*
X134036319Y-89963681D01*
X139963681Y-84036319D01*
X140025004Y-84002834D01*
X140051362Y-84000000D01*
X144876000Y-84000000D01*
X144943039Y-84019685D01*
G37*
G36*
X170943039Y-94019685D02*
G01*
X170988794Y-94072489D01*
X171000000Y-94124000D01*
X171000000Y-115876000D01*
X170980315Y-115943039D01*
X170927511Y-115988794D01*
X170876000Y-116000000D01*
X166051362Y-116000000D01*
X165984323Y-115980315D01*
X165963681Y-115963681D01*
X160036319Y-110036319D01*
X160002834Y-109974996D01*
X160000000Y-109948638D01*
X160000000Y-100051362D01*
X160019685Y-99984323D01*
X160036319Y-99963681D01*
X165963681Y-94036319D01*
X166025004Y-94002834D01*
X166051362Y-94000000D01*
X170876000Y-94000000D01*
X170943039Y-94019685D01*
G37*
M02*
