G04 #@! TF.GenerationSoftware,KiCad,Pcbnew,8.0.2-1.fc40*
G04 #@! TF.CreationDate,2024-05-26T13:32:19-07:00*
G04 #@! TF.ProjectId,busicard-top,62757369-6361-4726-942d-746f702e6b69,rev?*
G04 #@! TF.SameCoordinates,Original*
G04 #@! TF.FileFunction,Copper,L2,Bot*
G04 #@! TF.FilePolarity,Positive*
%FSLAX46Y46*%
G04 Gerber Fmt 4.6, Leading zero omitted, Abs format (unit mm)*
G04 Created by KiCad (PCBNEW 8.0.2-1.fc40) date 2024-05-26 13:32:19*
%MOMM*%
%LPD*%
G01*
G04 APERTURE LIST*
G04 #@! TA.AperFunction,ComponentPad*
%ADD10C,5.000000*%
G04 #@! TD*
G04 #@! TA.AperFunction,SMDPad,CuDef*
%ADD11C,3.000000*%
G04 #@! TD*
G04 #@! TA.AperFunction,Conductor*
%ADD12C,1.000000*%
G04 #@! TD*
G04 APERTURE END LIST*
D10*
G04 #@! TO.P,TP9,1,1*
G04 #@! TO.N,unconnected-(TP9-Pad1)*
X175000000Y-119500000D03*
G04 #@! TD*
G04 #@! TO.P,TP1,1,1*
G04 #@! TO.N,/BATT1+*
X175000000Y-80500000D03*
G04 #@! TD*
G04 #@! TO.P,TP10,1,1*
G04 #@! TO.N,unconnected-(TP10-Pad1)*
X133500000Y-80500000D03*
G04 #@! TD*
G04 #@! TO.P,TP5,1,1*
G04 #@! TO.N,unconnected-(TP5-Pad1)*
X196500000Y-119500000D03*
G04 #@! TD*
G04 #@! TO.P,TP6,1,1*
G04 #@! TO.N,unconnected-(TP6-Pad1)*
X196500000Y-80500000D03*
G04 #@! TD*
G04 #@! TO.P,TP8,1,1*
G04 #@! TO.N,unconnected-(TP8-Pad1)*
X153000000Y-80500000D03*
G04 #@! TD*
G04 #@! TO.P,TP4,1,1*
G04 #@! TO.N,/BATT2+*
X133500000Y-119500000D03*
G04 #@! TD*
G04 #@! TO.P,TP7,1,1*
G04 #@! TO.N,unconnected-(TP7-Pad1)*
X153000000Y-119500000D03*
G04 #@! TD*
D11*
G04 #@! TO.P,TP3,1,1*
G04 #@! TO.N,/BATT2+*
X171000000Y-105000000D03*
G04 #@! TD*
G04 #@! TO.P,TP2,1,1*
G04 #@! TO.N,/BATT1+*
X145000000Y-95000000D03*
G04 #@! TD*
D12*
G04 #@! TO.N,/BATT1+*
X161000000Y-95000000D02*
X161000000Y-97000000D01*
X157000000Y-101000000D02*
X157000000Y-102500000D01*
X142000000Y-98000000D02*
X145000000Y-95000000D01*
X161000000Y-97000000D02*
X157000000Y-101000000D01*
X144000000Y-108000000D02*
X142000000Y-106000000D01*
X151500000Y-108000000D02*
X144000000Y-108000000D01*
X157000000Y-102500000D02*
X151500000Y-108000000D01*
X142000000Y-106000000D02*
X142000000Y-98000000D01*
X175000000Y-81000000D02*
X161000000Y-95000000D01*
G04 #@! TO.N,/BATT2+*
X171000000Y-105000000D02*
X164000000Y-112000000D01*
X141000000Y-112000000D02*
X134000000Y-119000000D01*
X164000000Y-112000000D02*
X141000000Y-112000000D01*
G04 #@! TD*
G04 #@! TA.AperFunction,Conductor*
G04 #@! TO.N,/BATT1+*
G36*
X144442539Y-84019685D02*
G01*
X144488294Y-84072489D01*
X144499500Y-84124000D01*
X144499500Y-92065891D01*
X144533608Y-92193187D01*
X144543870Y-92210961D01*
X144599500Y-92307314D01*
X144692686Y-92400500D01*
X144806814Y-92466392D01*
X144908095Y-92493529D01*
X144967753Y-92529892D01*
X144998283Y-92592739D01*
X145000000Y-92613303D01*
X145000000Y-93126000D01*
X144980315Y-93193039D01*
X144927511Y-93238794D01*
X144876000Y-93250000D01*
X144868848Y-93250000D01*
X144609500Y-93289090D01*
X144609494Y-93289092D01*
X144358858Y-93366404D01*
X144358854Y-93366405D01*
X144122550Y-93480204D01*
X144122546Y-93480206D01*
X143905835Y-93627956D01*
X143853391Y-93676615D01*
X145000000Y-94823223D01*
X145000000Y-95176774D01*
X143853391Y-96323383D01*
X143905835Y-96372043D01*
X144122546Y-96519793D01*
X144122550Y-96519795D01*
X144358854Y-96633594D01*
X144358858Y-96633595D01*
X144609494Y-96710907D01*
X144609500Y-96710909D01*
X144868848Y-96749999D01*
X144868857Y-96750000D01*
X144876000Y-96750000D01*
X144943039Y-96769685D01*
X144988794Y-96822489D01*
X145000000Y-96874000D01*
X145000000Y-97386696D01*
X144980315Y-97453735D01*
X144927511Y-97499490D01*
X144908097Y-97506469D01*
X144875686Y-97515154D01*
X144806812Y-97533608D01*
X144692686Y-97599500D01*
X144692683Y-97599502D01*
X144599502Y-97692683D01*
X144599500Y-97692686D01*
X144533608Y-97806812D01*
X144499500Y-97934108D01*
X144499500Y-105876000D01*
X144479815Y-105943039D01*
X144427011Y-105988794D01*
X144375500Y-106000000D01*
X134124000Y-106000000D01*
X134056961Y-105980315D01*
X134011206Y-105927511D01*
X134000000Y-105876000D01*
X134000000Y-94999995D01*
X143245093Y-94999995D01*
X143245093Y-95000004D01*
X143264692Y-95261545D01*
X143264693Y-95261550D01*
X143323058Y-95517270D01*
X143418883Y-95761426D01*
X143418882Y-95761426D01*
X143550030Y-95988577D01*
X143676302Y-96146919D01*
X144823222Y-94999999D01*
X143676302Y-93853079D01*
X143550027Y-94011426D01*
X143418883Y-94238573D01*
X143323058Y-94482729D01*
X143264693Y-94738449D01*
X143264692Y-94738454D01*
X143245093Y-94999995D01*
X134000000Y-94999995D01*
X134000000Y-86091725D01*
X134019685Y-86024686D01*
X134072489Y-85978931D01*
X134113483Y-85968172D01*
X134199292Y-85960869D01*
X134659887Y-85881892D01*
X135112124Y-85764139D01*
X135552747Y-85608457D01*
X135552752Y-85608455D01*
X135978566Y-85415974D01*
X135978568Y-85415972D01*
X135978579Y-85415968D01*
X136386553Y-85188060D01*
X136773730Y-84926375D01*
X137137319Y-84632797D01*
X137474701Y-84309442D01*
X137710014Y-84042075D01*
X137769081Y-84004757D01*
X137803096Y-84000000D01*
X144375500Y-84000000D01*
X144442539Y-84019685D01*
G37*
G04 #@! TD.AperFunction*
G04 #@! TD*
G04 #@! TA.AperFunction,Conductor*
G04 #@! TO.N,/BATT2+*
G36*
X170442539Y-94019685D02*
G01*
X170488294Y-94072489D01*
X170499500Y-94124000D01*
X170499500Y-102065891D01*
X170533608Y-102193187D01*
X170543870Y-102210961D01*
X170599500Y-102307314D01*
X170692686Y-102400500D01*
X170806814Y-102466392D01*
X170908095Y-102493529D01*
X170967753Y-102529892D01*
X170998283Y-102592739D01*
X171000000Y-102613303D01*
X171000000Y-102879442D01*
X170980315Y-102946481D01*
X170927511Y-102992236D01*
X170884847Y-103003126D01*
X170714637Y-103015300D01*
X170435104Y-103076109D01*
X170167041Y-103176091D01*
X169915961Y-103313191D01*
X169915953Y-103313196D01*
X169773436Y-103419882D01*
X171000000Y-104646447D01*
X171000000Y-105353551D01*
X169773436Y-106580115D01*
X169915960Y-106686807D01*
X169915961Y-106686808D01*
X170167042Y-106823908D01*
X170167041Y-106823908D01*
X170435104Y-106923890D01*
X170714637Y-106984699D01*
X170884846Y-106996873D01*
X170950310Y-107021290D01*
X170992182Y-107077223D01*
X171000000Y-107120557D01*
X171000000Y-107386696D01*
X170980315Y-107453735D01*
X170927511Y-107499490D01*
X170908097Y-107506469D01*
X170875686Y-107515154D01*
X170806812Y-107533608D01*
X170692686Y-107599500D01*
X170692683Y-107599502D01*
X170599502Y-107692683D01*
X170599500Y-107692686D01*
X170533608Y-107806812D01*
X170499500Y-107934108D01*
X170499500Y-115876000D01*
X170479815Y-115943039D01*
X170427011Y-115988794D01*
X170375500Y-116000000D01*
X160124000Y-116000000D01*
X160056961Y-115980315D01*
X160011206Y-115927511D01*
X160000000Y-115876000D01*
X160000000Y-104999998D01*
X168994891Y-104999998D01*
X168994891Y-105000001D01*
X169015300Y-105285362D01*
X169076109Y-105564895D01*
X169176091Y-105832958D01*
X169313191Y-106084038D01*
X169313196Y-106084046D01*
X169419882Y-106226561D01*
X169419883Y-106226562D01*
X170646446Y-105000000D01*
X170646446Y-104999999D01*
X169419883Y-103773436D01*
X169419882Y-103773437D01*
X169313196Y-103915953D01*
X169313191Y-103915961D01*
X169176091Y-104167041D01*
X169076109Y-104435104D01*
X169015300Y-104714637D01*
X168994891Y-104999998D01*
X160000000Y-104999998D01*
X160000000Y-99466282D01*
X160019685Y-99399243D01*
X160036316Y-99378603D01*
X161777139Y-97637782D01*
X161886632Y-97473914D01*
X161962051Y-97291835D01*
X161962051Y-97291832D01*
X161962053Y-97291828D01*
X161965320Y-97275400D01*
X161968560Y-97259115D01*
X161983762Y-97182688D01*
X162000500Y-97098541D01*
X162000500Y-95465782D01*
X162020185Y-95398743D01*
X162036819Y-95378101D01*
X163378601Y-94036319D01*
X163439924Y-94002834D01*
X163466282Y-94000000D01*
X170375500Y-94000000D01*
X170442539Y-94019685D01*
G37*
G04 #@! TD.AperFunction*
G04 #@! TD*
M02*
